<svg id="Vrstva_1" data-name="Vrstva 1" xmlns="http://www.w3.org/2000/svg" viewBox="0 0 72.24 72.24"><rect x="6.42" y="40.03" width="43.71" height="2.94" rx="0.7" transform="translate(-21.07 32.15) rotate(-45)"/><path d="M11,56.68a.22.22,0,0,0,0,.3l1.78,1.79a.22.22,0,0,0,.3,0,.21.21,0,0,0,0-.3l-1.79-1.79A.22.22,0,0,0,11,56.68Z"/><path d="M10.23,57.42a.18.18,0,0,0,0,.27l1.79,1.79a.18.18,0,0,0,.27,0c.08-.08,0-.19,0-.27L10.5,57.45A.18.18,0,0,0,10.23,57.42Z"/><path d="M9.45,58.18a.22.22,0,0,0,0,.3l1.78,1.79a.22.22,0,0,0,.3,0,.21.21,0,0,0,0-.3L9.75,58.18A.22.22,0,0,0,9.45,58.18Z"/><rect x="43.66" y="20.48" width="3.8" height="7.55" rx="0.7" transform="translate(-3.81 39.32) rotate(-45)"/><rect x="46.66" y="19.14" width="4.79" height="3.08" rx="0.7" transform="translate(-0.25 40.75) rotate(-45)"/><path d="M45.17,20.31a.66.66,0,0,0,.95.05l2.68-2.67a1.38,1.38,0,0,1,1.94-.06L52.11,19a1.42,1.42,0,0,1,0,2l-2.68,2.67a.63.63,0,0,0,0,.92l.06.06a.67.67,0,0,0,1,.06l3.2-3.2.09-.08a3.89,3.89,0,0,0,.74-1.86,2.58,2.58,0,0,0,0-1c-.36-2.22,1.05-2.78,2.05-3.58a2,2,0,0,1,1.89-.36,3.09,3.09,0,0,0,3.17-.75l1.27-1.27a.85.85,0,0,0,0-1.19l-1.35-1.35a3,3,0,0,0-3.92-.27h0L50,14.37h0l-1,1-3.91,3.91a.66.66,0,0,0,0,.94Z"/></svg>