<svg id="Vrstva_1" data-name="Vrstva 1" xmlns="http://www.w3.org/2000/svg" viewBox="0 0 72.24 72.24"><path d="M55.16,13.53A14.63,14.63,0,0,0,34.28,27.32l-1.59,6.76L20,45.53A8.89,8.89,0,0,1,21.3,46a9.23,9.23,0,0,1,5.63,8.48,10,10,0,0,1-.07,1.1l27.69-15.3a14.63,14.63,0,0,0,.61-26.72Zm-8.34.36a15.94,15.94,0,0,1,4,0A12.22,12.22,0,0,1,54.47,15h0A12.39,12.39,0,0,1,57.6,17.1a15.77,15.77,0,0,1,2.58,3.12,1.19,1.19,0,0,1-1.52,1.71,1.12,1.12,0,0,1-.49-.43A10.66,10.66,0,0,0,47.1,16.26a1.19,1.19,0,0,1-.28-2.37ZM40.47,35.23a1.18,1.18,0,0,1-1.22.13,1.2,1.2,0,0,1-.44-.37,15.48,15.48,0,0,1-2-3.49,12.16,12.16,0,0,1-.61-7.44,15.66,15.66,0,0,1,1.41-3.79,1.19,1.19,0,1,1,2.11,1.09,10.66,10.66,0,0,0,1,12.21A1.19,1.19,0,0,1,40.47,35.23Zm.8-12.09a8.44,8.44,0,1,1,4,11.24A8.44,8.44,0,0,1,41.27,23.14Zm19.82,8.25a15.75,15.75,0,0,1-2,3.48,12.44,12.44,0,0,1-2.73,2.6,12.22,12.22,0,0,1-3.41,1.64,15.62,15.62,0,0,1-4,.68,1.18,1.18,0,0,1-1.25-1.14,1.19,1.19,0,0,1,1.14-1.24,10.68,10.68,0,0,0,10.07-7,1.19,1.19,0,1,1,2.19.94Z"/><path d="M17.72,57.8a3.35,3.35,0,1,0-3.34-3.35A3.35,3.35,0,0,0,17.72,57.8Z"/><path d="M17.72,62a7.55,7.55,0,1,0-7.54-7.55A7.55,7.55,0,0,0,17.72,62ZM13.5,52.67a4.61,4.61,0,1,1-.36,1.78A4.59,4.59,0,0,1,13.5,52.67Z"/></svg>