<svg id="Vrstva_1" data-name="Vrstva 1" xmlns="http://www.w3.org/2000/svg" viewBox="0 0 72.24 72.24"><path d="M50.75,31.77H41.42c-.38,0-.75-.39-1.07-.6s-.7-.59-1.08-.59H26.78a1.57,1.57,0,0,1-.72-.08L22.8,29.22c-.09,0-.18.17-.28.17h-1.3c-.39,0-.88,0-.88.41v3.43l2.38.62v2l-2.38.61v3.43c0,.44.49.21.88.21h1.3c.1,0,.19.27.28.23l3.26-1.39a1.73,1.73,0,0,1,.72,0H39.27c.38,0,1.31-.1,1.31-.31v-.27c0-.21.46-.61.84-.61h9.33c.4,0,.54.24.54-.19V32.17C51.29,31.73,51.15,31.77,50.75,31.77Z"/><path d="M53.63,37a2,2,0,0,1-.54-1,2,2,0,0,0-.53-1L43.72,26.2a1.71,1.71,0,0,1-.39-.63l-1.24-3.36a.49.49,0,0,0-.15-.24L41,21.05A.75.75,0,0,0,40,21.1l-2.42,2.42.82,1.7L37,26.63l-1.7-.82-2.43,2.42a.77.77,0,0,0,0,1.06l.92.92a.61.61,0,0,0,.24.15L37.3,31.6a1.74,1.74,0,0,1,.63.4l8.83,8.84a2.57,2.57,0,0,0,1,.54h0a1.88,1.88,0,0,1,1,.52l6.6,6.6a.75.75,0,0,0,1.06,0l3.79-3.79a.76.76,0,0,0,0-1.06Z"/><path d="M24.07,50.24h5.36c.43,0,.43-.18.43-.57V40.33c0-.37.39-.74.6-1.07s.59-.7.59-1.07V25.69a1.74,1.74,0,0,1,.06-.72l1.29-3.26c0-.08-.16-.18-.16-.27v-1.3c0-.4,0-.84-.44-.84H28.37l-.62,2.38h-2l-.62-2.38H21.7c-.43,0-1.36.44-1.36.84v1.3c0,.09.31.19.35.27L22.38,25c.11.23.34.47.34.72v12.5c0,.37.09.15.29,1.34H22.7c.21,0,0,.43,0,.8v9.34C22.72,50.06,23.64,50.24,24.07,50.24Z"/></svg>