<svg id="Vrstva_1" data-name="Vrstva 1" xmlns="http://www.w3.org/2000/svg" viewBox="0 0 72.24 72.24"><path d="M14.11,43.49l-3.65,3.65a1,1,0,0,0,.2,1.39L24.39,62.26a1,1,0,0,0,1.36.17l3.66-3.65a1,1,0,0,0-.17-1.37l-.18-.18a1.52,1.52,0,0,1-.32-2L30.88,53l-11-11-2.14,2.15a1.49,1.49,0,0,1-2-.3l-.18-.18A1,1,0,0,0,14.11,43.49ZM27.57,56.9a.59.59,0,0,1,.06.83L24.7,60.67a.58.58,0,0,1-.82-.08h0c-.26-.26-.35-.69-.15-.89l2.93-2.94a.71.71,0,0,1,.91.14ZM24.69,54a.62.62,0,0,1,.08.85L21.84,57.8a.61.61,0,0,1-.84-.09h0a.65.65,0,0,1-.12-.87L23.8,53.9a.66.66,0,0,1,.88.12ZM21.8,51.13a.59.59,0,0,1,.06.83l-2.94,2.93a.57.57,0,0,1-.81-.07h0A.63.63,0,0,1,18,54L20.93,51a.65.65,0,0,1,.87.09Zm-2.88-2.88a.6.6,0,0,1,.07.84L16.06,52a.6.6,0,0,1-.83-.09h0c-.27-.27-.34-.69-.14-.88L18,48.12a.67.67,0,0,1,.89.13ZM16,45.36a.65.65,0,0,1,.1.87L13.2,49.16a.64.64,0,0,1-.86-.11h0a.65.65,0,0,1-.12-.86l2.94-2.93a.65.65,0,0,1,.87.1Z"/><path d="M57.56,28.74l.18.18a1,1,0,0,0,1.36.16l3.65-3.65a1,1,0,0,0-.15-1.37L48.87,10.33a1,1,0,0,0-1.41-.19l-3.65,3.65a1,1,0,0,0,.2,1.4l.18.18a1.48,1.48,0,0,1,.29,2l-2.14,2.13,11,11,2.14-2.14A1.53,1.53,0,0,1,57.56,28.74Zm-11.88-13a.62.62,0,0,1-.1-.85l2.93-2.94a.64.64,0,0,1,.86.1h0a.64.64,0,0,1,.11.87l-2.93,2.94a.63.63,0,0,1-.86-.12Zm2.89,2.89a.67.67,0,0,1-.13-.88l2.94-2.93a.67.67,0,0,1,.88.12h0a.62.62,0,0,1,.09.85l-2.94,2.93a.61.61,0,0,1-.84-.09Zm2.88,2.88a.62.62,0,0,1-.09-.85l2.93-2.93a.62.62,0,0,1,.85.09h0a.58.58,0,0,1,.07.83l-2.93,2.94a.59.59,0,0,1-.83-.08Zm2.89,2.89a.65.65,0,0,1-.12-.87l2.93-2.94a.68.68,0,0,1,.88.12h0a.63.63,0,0,1,.09.86l-2.93,2.93a.62.62,0,0,1-.85-.1Zm2.88,2.88a.7.7,0,0,1-.14-.89L60,23.41a.68.68,0,0,1,.89.13h0a.6.6,0,0,1,.08.84l-2.93,2.93a.6.6,0,0,1-.84-.08Z"/><path d="M39.77,22.3s.5,1.15.09,1.55L24.18,39.54a1.1,1.1,0,0,1-1.58-.08l-1.67,1.68.85.84L31,51.15l.81.81,1.67-1.67s-.49-1.17-.08-1.57L49,33a1.07,1.07,0,0,1,1.55.1h0l1.64-1.64-.81-.82-9.17-9.17-.84-.84-1.65,1.64Z"/></svg>