<svg id="Vrstva_1" data-name="Vrstva 1" xmlns="http://www.w3.org/2000/svg" viewBox="0 0 72.24 72.24"><path d="M55.08,32.47l-.67.67a4.1,4.1,0,0,1,1.27,1.25l2.17-2.16v-.66l-.35-.36-.27-.27h-.66l-.91,1h0Z"/><rect x="56.92" y="28.27" width="6.47" height="0.78" transform="translate(-2.64 50.94) rotate(-45.01)"/><path d="M51.93,40.29h.12a3.54,3.54,0,0,0,0-7.07h-.12a3.53,3.53,0,0,0,0,7.06Z"/><path d="M49.87,25.84c-.18,0-.41,0-.41.19v2.59a.32.32,0,0,0,.33.32.33.33,0,0,1,.33.32v3.51a4.55,4.55,0,0,1,3.73,0l.13-.13,1.28-1.32a5.79,5.79,0,0,1-1.47-3.79V26c0-.18,0-.19-.23-.19H49.87Z"/><path d="M49.85,47.86h3.7c.17,0,.22-.22.22-.39v-2.6a3,3,0,0,1,1.77-2.64L59,40.69A1.79,1.79,0,0,0,60,39v-3.2a1.76,1.76,0,0,0-.73-1.5l-1.55-1.11-1.58,1.6-.12.12a4.31,4.31,0,0,1,.39,1.82,4.36,4.36,0,0,1-1.29,3.11,4.55,4.55,0,0,1-5,.87v3.5a.33.33,0,0,1-.33.32.33.33,0,0,0-.33.31v2.6A.49.49,0,0,0,49.85,47.86Z"/><path d="M32.73,58.76A21.88,21.88,0,0,0,51,49H49.85a1.56,1.56,0,0,1-1.51-1.49V45A17.83,17.83,0,0,1,44.46,50a2.79,2.79,0,0,1-3.75,0l-3.1-2.86a1.55,1.55,0,0,1-.1-2.18L47.2,34.39A1.78,1.78,0,0,1,49,33.85l.05,0h0v-4a1.48,1.48,0,0,1-.66-1.2V26a1.36,1.36,0,0,1,1.51-1.29h1.28a22,22,0,1,0-18.42,34ZM44,50.92a.49.49,0,0,1,.68-.13l2.07,1.42a.49.49,0,1,1-.56.8L44.14,51.6A.48.48,0,0,1,44,50.92Zm-5.53,3a.48.48,0,0,1,.68.11l1.46,2a.49.49,0,1,1-.79.57l-1.46-2A.48.48,0,0,1,38.48,53.93ZM21,51l-1,2.28a.49.49,0,0,1-.65.25.5.5,0,0,1-.24-.65l1-2.28a.48.48,0,0,1,.64-.25h0A.49.49,0,0,1,21,51Zm5.57,3.17-.19,2.49a.49.49,0,0,1-1-.07l.18-2.5a.49.49,0,0,1,1,.08Zm6.66,4.08a.5.5,0,0,1-.61-.34l-.67-2.41a.49.49,0,0,1,.94-.27l.68,2.41A.5.5,0,0,1,33.2,58.21ZM34,54.4c-.42,0-.84,0-1.26,0A17.62,17.62,0,0,1,19.51,48.5a2.79,2.79,0,0,1,0-3.74l2.85-3.11a1.54,1.54,0,0,1,2.18-.09l10.54,9.68A1.82,1.82,0,0,1,34,54.4ZM32.73,43.05A6.29,6.29,0,1,1,39,36.76,6.29,6.29,0,0,1,32.73,43.05ZM44.49,22.53l1-2.29a.49.49,0,0,1,.89.41l-1,2.28a.48.48,0,0,1-.64.25A.5.5,0,0,1,44.49,22.53Zm-5.57-3.17.19-2.5a.49.49,0,1,1,1,.08l-.18,2.5a.5.5,0,0,1-.53.45A.49.49,0,0,1,38.92,19.36Zm-6.66-4.08a.5.5,0,0,1,.61.34L33.54,18a.48.48,0,0,1-.33.6.49.49,0,0,1-.61-.34l-.68-2.41A.49.49,0,0,1,32.26,15.28Zm-.8,3.86c.42,0,.84,0,1.27,0A17.61,17.61,0,0,1,45.94,25a2.8,2.8,0,0,1,0,3.75l-2.85,3.1a1.54,1.54,0,0,1-2.18.09L30.34,22.3A1.82,1.82,0,0,1,31.46,19.14ZM25,16.73a.49.49,0,0,1,.68.12l1.46,2a.49.49,0,0,1-.79.57l-1.46-2A.5.5,0,0,1,25,16.73Zm-.21,6.85,3.11,2.86a1.56,1.56,0,0,1,.09,2.18L18.25,39.15A1.82,1.82,0,0,1,15.1,38c0-.41,0-.83,0-1.26A17.65,17.65,0,0,1,21,23.56,2.8,2.8,0,0,1,24.74,23.58Zm-6.17-3a.5.5,0,0,1,.68-.13l2.07,1.41a.49.49,0,0,1-.55.81L18.7,21.28A.49.49,0,0,1,18.57,20.6Zm-4.66,5.82a.49.49,0,0,1,.59-.36l2.43.62a.49.49,0,0,1,.35.6.48.48,0,0,1-.59.35L14.26,27A.48.48,0,0,1,13.91,26.42Zm-2,6.52,2.49-.25a.49.49,0,0,1,.1,1l-2.49.25a.51.51,0,0,1-.54-.44A.49.49,0,0,1,12,32.94Zm-.28,8a.49.49,0,0,1,.23-.65l2.26-1.09a.5.5,0,0,1,.65.23.49.49,0,0,1-.23.65l-2.25,1.09A.5.5,0,0,1,11.67,40.93Zm5.15,5.15-1.75,1.79a.49.49,0,1,1-.7-.68l1.75-1.79a.48.48,0,0,1,.69,0A.5.5,0,0,1,16.82,46.08Z"/></svg>