<svg id="Vrstva_1" data-name="Vrstva 1" xmlns="http://www.w3.org/2000/svg" viewBox="0 0 72.24 72.24"><path d="M42.44,10.69a1.08,1.08,0,1,0-1.53-1.53,1.07,1.07,0,0,0-.26,1.12L39,12l.65.65,1.68-1.68A1,1,0,0,0,42.44,10.69Z"/><rect x="64.89" y="36.73" width="3.14" height="0.99" transform="translate(-6.86 57.89) rotate(-45)"/><polygon points="48.73 56.7 48.73 56.71 48.73 56.71 48.73 56.7"/><path d="M22.66,30.68,39.45,13.92l-1.79-1.79L20.91,28.88A19.68,19.68,0,0,0,48.74,56.7v0A19.6,19.6,0,0,0,53,50.19c0-.07.05-.14.08-.22h0l.06-.16,0-.08a.58.58,0,0,0,0-.14l0-.09a.5.5,0,0,1,.05-.13l0-.11,0-.13,0-.11,0-.12a.56.56,0,0,0,0-.12l0-.12s0-.08,0-.13l0-.11a.69.69,0,0,0,.05-.13s0-.06,0-.08h0a19.26,19.26,0,0,0,.75-5.41A19.67,19.67,0,0,0,34.82,23.14a20.42,20.42,0,0,0-3.5.31l-3.79,3.78a17.24,17.24,0,1,1-4.87,3.45Z"/><path d="M63.73,38.2l-8.62,8.63A24.71,24.71,0,0,1,54,50.58c-.22.54-.47,1.07-.73,1.59L65.48,40Z"/></svg>