<svg id="Vrstva_1" data-name="Vrstva 1" xmlns="http://www.w3.org/2000/svg" viewBox="0 0 72.24 72.24"><path d="M35.82,28a7.71,7.71,0,1,0,7.7,7.71A7.72,7.72,0,0,0,35.82,28Zm0,13.8a6.09,6.09,0,1,1,6.08-6.09A6.09,6.09,0,0,1,35.82,41.83Z"/><path d="M60.07,35.74a2.68,2.68,0,0,1,2.52-2.68c-.05-.56-.12-1.11-.21-1.66A2.68,2.68,0,0,1,61,26.22c-.2-.53-.41-1-.64-1.55A2.68,2.68,0,0,1,57.68,20c-.33-.46-.67-.9-1-1.34a2.68,2.68,0,0,1-3.79-3.79c-.43-.36-.88-.7-1.33-1a2.68,2.68,0,0,1-4.64-2.68c-.51-.23-1-.45-1.55-.65a2.69,2.69,0,0,1-5.19-1.38c-.55-.09-1.1-.17-1.66-.22a2.69,2.69,0,0,1-5.37,0c-.56.05-1.11.13-1.66.22a2.68,2.68,0,0,1-5.18,1.38c-.53.2-1.05.42-1.56.65a2.68,2.68,0,0,1-4.64,2.68c-.45.33-.89.67-1.33,1A2.68,2.68,0,0,1,15,18.69c-.36.44-.7.88-1,1.34a2.68,2.68,0,0,1-2.68,4.64c-.23.51-.44,1-.64,1.55A2.68,2.68,0,0,1,9.25,31.4c-.08.55-.16,1.1-.21,1.66a2.69,2.69,0,0,1,0,5.36c0,.56.13,1.12.21,1.66a2.69,2.69,0,0,1,1.39,5.18c.2.52.42,1,.65,1.55A2.68,2.68,0,0,1,14,51.44c.32.45.66.89,1,1.33a2.68,2.68,0,0,1,3.79,3.78q.64.53,1.32,1a2.69,2.69,0,0,1,4.64,2.68c.51.23,1,.44,1.55.64a2.68,2.68,0,0,1,5.17,1.38c.55.09,1.1.16,1.66.21a2.68,2.68,0,0,1,5.35,0c.56,0,1.11-.12,1.66-.21a2.69,2.69,0,0,1,5.18-1.38c.52-.2,1-.41,1.54-.64a2.69,2.69,0,0,1,4.64-2.68c.45-.33.89-.67,1.33-1a2.68,2.68,0,0,1,3.79-3.78c.35-.44.69-.88,1-1.33a2.68,2.68,0,0,1,2.68-4.63c.23-.51.45-1,.65-1.55a2.69,2.69,0,0,1,1.39-5.18c.09-.54.16-1.1.22-1.66A2.68,2.68,0,0,1,60.07,35.74ZM54.18,23.36a21.83,21.83,0,0,1,2.46,4.84,2.89,2.89,0,0,1-3.5-1.3A2.69,2.69,0,0,1,54.18,23.36ZM46.9,41.45a2.68,2.68,0,0,1,1.41-5.13A12.53,12.53,0,0,1,46.9,41.45ZM48.12,48l0,0a17.57,17.57,0,0,1-4.37,3.18A2.74,2.74,0,0,1,48.12,48ZM23.32,36.33a2.68,2.68,0,0,1,1.42,5.13A12.39,12.39,0,0,1,23.32,36.33Zm3.84,11.25a2.83,2.83,0,0,1,.75,3.59A17.76,17.76,0,0,1,23.54,48h0A2.9,2.9,0,0,1,27.16,47.58Zm-8.47-14.7a17.19,17.19,0,0,1,1.64-5,2.65,2.65,0,0,1-1.64,5ZM19,40.07a17.5,17.5,0,0,1-.53-5.24,2.66,2.66,0,0,1,2.69,2.38A2.76,2.76,0,0,1,19,40.07Zm2.3-13.9a17.41,17.41,0,0,1,2.23-2.73,14.77,14.77,0,0,1,1.32-1.19,2.66,2.66,0,0,1-3.55,3.92Zm3.38,3.73a2.93,2.93,0,0,1,1.63,3.28,2.71,2.71,0,0,1-3,1.84A12.49,12.49,0,0,1,24.69,29.9Zm.58-1A12.53,12.53,0,0,1,29,25.14a2.66,2.66,0,0,1-3.73,3.77Zm1.17-7.81A17.13,17.13,0,0,1,31.26,19a2.65,2.65,0,0,1-4.82,2.14Zm8.81,2a2.83,2.83,0,0,1-2,3.08A2.92,2.92,0,0,1,30,24.56,12.4,12.4,0,0,1,35.25,23.14Zm-2.07-4.59a17.9,17.9,0,0,1,5.27,0,2.65,2.65,0,0,1-5.27,0Zm3.24,4.59a12.51,12.51,0,0,1,5.24,1.43,2.92,2.92,0,0,1-3.27,1.65A2.85,2.85,0,0,1,36.42,23.14ZM40.37,19a17.13,17.13,0,0,1,4.82,2.14A2.65,2.65,0,0,1,40.37,19Zm2.28,6.2a12.62,12.62,0,0,1,3.73,3.76,2.82,2.82,0,0,1-3.57-.15A2.85,2.85,0,0,1,42.65,25.16Zm2.71,8A2.9,2.9,0,0,1,47,29.92a12.45,12.45,0,0,1,1.37,5.23A2.79,2.79,0,0,1,45.36,33.18Zm1.4-7.36a2.64,2.64,0,0,1,0-3.57,16.18,16.18,0,0,1,1.31,1.19,17.81,17.81,0,0,1,2.23,2.72A2.64,2.64,0,0,1,46.76,25.82Zm4.54,2a17.19,17.19,0,0,1,1.64,5,2.65,2.65,0,0,1-1.64-5Zm-.84,9.35a2.66,2.66,0,0,1,2.69-2.38,17.6,17.6,0,0,1-.53,5.26A2.78,2.78,0,0,1,50.46,37.21Zm-1-18.93a22.65,22.65,0,0,1,3.79,3.79,2.68,2.68,0,0,1-3.79-3.79Zm-1.29-.93a2.69,2.69,0,0,1-3.54,1,2.84,2.84,0,0,1-1.28-3.5A22.34,22.34,0,0,1,48.17,17.35Zm-6.32-2.94a2.77,2.77,0,0,1-3,2.1,2.82,2.82,0,0,1-2.26-2.92A22.3,22.3,0,0,1,41.85,14.41ZM35,13.59a2.82,2.82,0,0,1-2.26,2.92,2.78,2.78,0,0,1-3-2.08A22.31,22.31,0,0,1,35,13.59Zm-6.76,1.32A2.86,2.86,0,0,1,27,18.39a2.68,2.68,0,0,1-3.53-1A21.68,21.68,0,0,1,28.25,14.91Zm-6.1,3.39a2.68,2.68,0,0,1-3.78,3.79A22.22,22.22,0,0,1,22.15,18.3Zm-4.71,5.08a2.68,2.68,0,0,1,1,3.52A2.87,2.87,0,0,1,15,28.2,21.86,21.86,0,0,1,17.44,23.38Zm-2.92,6.31a2.78,2.78,0,0,1,2.05,3A2.83,2.83,0,0,1,13.7,35,21.72,21.72,0,0,1,14.52,29.69Zm0,12.09a21.8,21.8,0,0,1-.83-5.26,2.82,2.82,0,0,1,2.87,2.26A2.78,2.78,0,0,1,14.53,41.78Zm2.93,6.3A22.23,22.23,0,0,1,15,43.27a2.84,2.84,0,0,1,3.44,1.3A2.69,2.69,0,0,1,17.46,48.08Zm4.71,5.06a22.22,22.22,0,0,1-3.78-3.79,2.68,2.68,0,0,1,3.78,3.79Zm.1-6.58a17.2,17.2,0,0,1-2.67-4.65A2.84,2.84,0,0,1,23.07,43,2.81,2.81,0,0,1,22.27,46.56ZM28.2,56.5a22.17,22.17,0,0,1-4.75-2.43,2.68,2.68,0,0,1,3.51-1A2.75,2.75,0,0,1,28.2,56.5Zm.92-10.29a12.49,12.49,0,0,1-3.78-3.74,2.68,2.68,0,0,1,3.78,3.74ZM35,57.83A22.23,22.23,0,0,1,29.69,57a2.78,2.78,0,0,1,3.06-2A2.68,2.68,0,0,1,35,57.83ZM29.69,52a2.74,2.74,0,0,1,3.06-1.89,2.8,2.8,0,0,1,2.09,3A17.6,17.6,0,0,1,29.69,52Zm5.57-3.82a12.33,12.33,0,0,1-5.13-1.36,2.68,2.68,0,0,1,5.13,1.36Zm-5.82-6.06a9,9,0,1,1,12.75,0A9,9,0,0,1,29.44,42.08Zm9,3.17a2.68,2.68,0,0,1,3.15,1.52,12.6,12.6,0,0,1-5.12,1.37A2.68,2.68,0,0,1,38.39,45.25ZM36.58,57.83A2.69,2.69,0,0,1,38.84,55a2.73,2.73,0,0,1,3,2A22,22,0,0,1,36.58,57.83ZM36.79,53a2.8,2.8,0,0,1,2.09-3A2.74,2.74,0,0,1,41.94,52,17.6,17.6,0,0,1,36.79,53Zm5.75-6.85a2.68,2.68,0,0,1,3.77-3.74A12.45,12.45,0,0,1,42.54,46.19Zm.84,10.32a2.72,2.72,0,0,1,1.25-3.43,2.68,2.68,0,0,1,3.52,1A21.61,21.61,0,0,1,43.38,56.51ZM48.57,43A2.8,2.8,0,0,1,52,41.93a17.09,17.09,0,0,1-2.61,4.57A2.71,2.71,0,0,1,48.57,43Zm.86,10.13a2.69,2.69,0,0,1,3.8-3.78A22.28,22.28,0,0,1,49.43,53.16Zm4.73-5.06a2.68,2.68,0,0,1-1-3.53,2.84,2.84,0,0,1,3.47-1.27A21.93,21.93,0,0,1,54.16,48.1Zm2.94-6.29a2.79,2.79,0,0,1-2.08-3,2.68,2.68,0,0,1,2.91-2.25A22,22,0,0,1,57.1,41.81ZM55,32.69a2.77,2.77,0,0,1,2.1-3,22,22,0,0,1,.81,5.24A2.68,2.68,0,0,1,55,32.69Z"/></svg>