<svg id="Vrstva_1" data-name="Vrstva 1" xmlns="http://www.w3.org/2000/svg" viewBox="0 0 72.24 72.24"><path d="M18,52.2c.69.59.44,1.32,0,2.62.27.2.55.39.84.58,1.05-.9,1.65-1.38,2.45-.95s.7,1.2.52,2.57c.31.14.62.27.94.39.85-1.09,1.33-1.69,2.2-1.44s.94,1,1.05,2.41c.33.07.66.13,1,.18.6-1.24.95-1.93,1.85-1.86s1.14.81,1.53,2.13h.5l.52,0c.32-1.34.52-2.09,1.42-2.21s1.28.56,1.94,1.77l1-.23c0-1.38.08-2.15.94-2.46S38.05,56,38.94,57l.92-.43c-.25-1.36-.37-2.13.4-2.6s1.4,0,2.49.83c.28-.2.55-.41.81-.62-.52-1.28-.8-2-.14-2.62s1.36-.3,2.6.29c.23-.25.45-.51.66-.77-.77-1.14-1.2-1.79-.68-2.54s1.27-.57,2.61-.25l.49-.89c-1-1-1.55-1.5-1.2-2.34s1.12-.83,2.5-.79c.1-.33.2-.65.29-1-1.18-.72-1.83-1.14-1.66-2S50,40.22,51.31,40c0-.34.06-.67.08-1-1.3-.47-2-.74-2-1.65s.68-1.21,2-1.74c0-.34-.08-.68-.13-1-1.37-.19-2.13-.3-2.35-1.19s.42-1.33,1.56-2.11c-.1-.32-.22-.64-.33-1-1.38.11-2.15.15-2.55-.67-.28-.59-.08-1.05.41-1.64-1.14,1.23-2.3,2.46-3.46,3.67.16.37.31.74.44,1.13A.89.89,0,0,1,44.11,34l-1.17,0-.78,0c-2.66,2.65-5.21,5-7.77,7.19a5.23,5.23,0,0,1-7.4-7.4c2-2.4,4.23-4.79,6.67-7.26,0-.47-.06-.93-.1-1.39,0,0,0-.05,0-.08l0-1.17A.88.88,0,0,1,34.67,23a14.44,14.44,0,0,1,1.84.68c.93-.9,1.86-1.78,2.81-2.66-.65-.45-.57-1.21-.4-2.49L38,18.15c-.85,1.09-1.33,1.69-2.2,1.44s-.95-1-1.06-2.41l-1-.19c-.6,1.25-1,1.94-1.86,1.87s-1.13-.81-1.52-2.13h-.5l-.52,0c-.33,1.34-.52,2.09-1.42,2.2S26.64,18.4,26,17.18c-.33.08-.66.15-1,.24,0,1.38-.08,2.15-.93,2.46s-1.37-.28-2.27-1.33c-.31.13-.61.28-.91.43.24,1.36.37,2.12-.41,2.6s-1.39,0-2.49-.83l-.8.62c.52,1.28.8,2,.14,2.62s-1.36.3-2.6-.29c-.23.25-.45.51-.67.77.78,1.14,1.2,1.79.69,2.53s-1.27.58-2.61.26c-.17.29-.33.59-.49.89,1,1,1.55,1.5,1.2,2.34s-1.12.83-2.5.79c-.11.32-.2.65-.29,1,1.17.72,1.82,1.14,1.66,2s-.93,1.05-2.28,1.3c0,.33-.06.67-.08,1,1.3.47,2,.74,2,1.65s-.69,1.21-2,1.74c0,.34.08.68.13,1,1.37.18,2.13.3,2.34,1.18s-.42,1.34-1.56,2.12c.11.32.22.64.34,1,1.38-.1,2.15-.14,2.54.68s-.13,1.39-1.08,2.39c.17.29.34.58.53.86,1.32-.38,2.07-.59,2.62.13s.16,1.39-.56,2.56c.23.26.46.5.7.74C16.64,52,17.33,51.61,18,52.2ZM44,37.45a1.94,1.94,0,1,1,2,1.89A1.94,1.94,0,0,1,44,37.45ZM28.05,22.26a1.94,1.94,0,1,1,2,1.89A1.94,1.94,0,0,1,28.05,22.26Zm4.62,31a1.94,1.94,0,1,1-2-1.89A1.93,1.93,0,0,1,32.67,53.3Zm1.59-11.76c3-.09,5.9-.24,8.8-.46h0l1.17,0a.85.85,0,0,1,.86,1.08,15.52,15.52,0,0,1-9.76,10.21.9.9,0,0,1-1.18-.82l0-1.17v0C34.26,47.36,34.28,44.44,34.26,41.54Zm-18.63-8.2a15.43,15.43,0,0,1,9.7-10.11.86.86,0,0,1,1.13.81l0,1.17a.13.13,0,0,0,0,.06h0c-.08,2.92-.12,5.82-.1,8.69q-4.44.13-8.77.46l-1.13,0A.87.87,0,0,1,15.63,33.34ZM12.86,38.2a1.94,1.94,0,1,1,2,1.89A1.94,1.94,0,0,1,12.86,38.2Zm2.92,4.48a.87.87,0,0,1,.81-1.15l1.2,0h0c2.95.08,5.87.14,8.75.14q.18,4.53.53,9l0,1.1a.86.86,0,0,1-1.1.86A15.44,15.44,0,0,1,15.78,42.68Z"/><path d="M28,34.65a3.91,3.91,0,1,0,5.53,5.52h0c10.3-8.73,19.11-19.34,27.85-29.63a2.63,2.63,0,1,0-3.72-3.73C47.25,15.61,36.69,24.35,28,34.65Zm5.13,5a3.26,3.26,0,1,1,0-4.6A3.27,3.27,0,0,1,33.08,39.68ZM58.2,7.5a1.81,1.81,0,1,1,0,2.56A1.8,1.8,0,0,1,58.2,7.5Z"/><path d="M29.18,35.75a2.26,2.26,0,1,0,3.2,0A2.27,2.27,0,0,0,29.18,35.75Z"/></svg>