<svg id="Vrstva_1" data-name="Vrstva 1" xmlns="http://www.w3.org/2000/svg" viewBox="0 0 72.24 72.24"><path d="M12.46,37.23c.06,1.14-.82,1.56-2.4,2.28.06.42.13.84.2,1.26,1.74.18,2.7.3,3,1.4s-.47,1.7-1.88,2.73c.15.4.3.8.47,1.2,1.73-.19,2.7-.28,3.23.74S15,48.6,13.81,49.9c.22.36.45.72.7,1.07,1.65-.54,2.59-.83,3.31.06s.26,1.74-.6,3.25l.44.45.47.46c1.5-.88,2.35-1.35,3.25-.63s.61,1.65.08,3.31c.35.24.71.47,1.07.69,1.3-1.17,2-1.81,3.06-1.29s.94,1.49.76,3.22l1.2.45c1-1.41,1.61-2.19,2.72-1.9s1.23,1.26,1.42,3c.42.08.84.14,1.27.2.7-1.59,1.11-2.48,2.26-2.42s1.46,1,2,2.62c.43,0,.85,0,1.28-.07.36-1.7.58-2.65,1.71-2.83s1.63.65,2.51,2.15c.42-.1.83-.21,1.24-.34,0-1.74,0-2.71,1.08-3.13s1.74.3,2.91,1.59c.38-.19.76-.38,1.14-.59-.37-1.7-.56-2.66.4-3.29s1.76-.07,3.17.94c.34-.26.67-.53,1-.81-.71-1.59-1.09-2.48-.29-3.3s1.71-.43,3.3.27c.28-.33.54-.66.8-1-1-1.41-1.58-2.21-1-3.17s1.58-.78,3.28-.43c.2-.38.4-.76.58-1.14-1.3-1.17-2-1.83-1.61-2.9s1.38-1.09,3.13-1.1c.11-.41.22-.83.32-1.24-1.51-.87-2.34-1.37-2.17-2.5s1.12-1.36,2.82-1.73c0-.43.05-.85.06-1.28-1.65-.54-2.57-.85-2.64-2s.82-1.56,2.4-2.28c0-.42-.12-.85-.2-1.27-1.73-.18-2.7-.29-3-1.4s.47-1.69,1.88-2.73c-.15-.4-.3-.79-.46-1.19-1.74.19-2.71.27-3.24-.75s.12-1.75,1.28-3.05c-.23-.37-.46-.72-.71-1.08-1.65.55-2.58.83-3.31-.05s-.25-1.75.61-3.26L55.1,17l-.47-.46c-1.51.87-2.36,1.34-3.25.63s-.62-1.65-.09-3.31c-.35-.24-.71-.47-1.07-.7-1.3,1.17-2,1.81-3,1.3s-1-1.49-.77-3.23l-1.2-.45c-1,1.41-1.61,2.19-2.72,1.9s-1.23-1.26-1.42-3c-.42-.07-.84-.14-1.26-.19C39.09,11.13,38.68,12,37.54,12s-1.47-1-2-2.63l-1.28.07c-.36,1.71-.57,2.66-1.7,2.84S30.9,11.59,30,10.09c-.41.1-.83.21-1.24.33,0,1.75,0,2.72-1.08,3.14S26,13.26,24.79,12c-.38.18-.76.38-1.13.58.36,1.71.55,2.67-.41,3.3s-1.76.07-3.17-.95c-.34.26-.67.54-1,.82.71,1.58,1.09,2.48.28,3.29s-1.7.44-3.3-.26c-.27.33-.54.66-.8,1,1,1.41,1.58,2.2,1,3.17s-1.58.78-3.29.42c-.2.38-.39.76-.58,1.15,1.3,1.16,2,1.83,1.61,2.9s-1.38,1.09-3.12,1.1c-.12.41-.23.82-.33,1.24,1.51.87,2.35,1.37,2.17,2.5S11.58,33.58,9.88,34c0,.42-.05.85-.06,1.28C11.48,35.77,12.4,36.09,12.46,37.23Zm11.8,14.31a2.44,2.44,0,1,1,0-3.46A2.44,2.44,0,0,1,24.26,51.54ZM52,51.44A2.44,2.44,0,1,1,52,48,2.44,2.44,0,0,1,52,51.44ZM48.48,20.22a2.44,2.44,0,1,1,0,3.45A2.45,2.45,0,0,1,48.48,20.22Zm-27.78.09a2.44,2.44,0,1,1,0,3.45A2.44,2.44,0,0,1,20.7,20.31Zm-1.54,6.57a1.12,1.12,0,0,1,1.77-.27L22,27.69a.86.86,0,0,0,1,.16,15.77,15.77,0,0,1,2.31-3,16.17,16.17,0,0,1,3.06-2.4.85.85,0,0,0-.08-1.14l-1-1a1.09,1.09,0,0,1,.26-1.75,19.42,19.42,0,0,1,17.67,0,1.07,1.07,0,0,1,.25,1.73l-1,1.05a.89.89,0,0,0-.12,1.08,16.62,16.62,0,0,1,3,2.36,15.7,15.7,0,0,1,2.36,3,.86.86,0,0,0,1.05-.16l1-1.05a1.12,1.12,0,0,1,1.77.28,19.66,19.66,0,0,1,0,17.86,1.13,1.13,0,0,1-1.77.31L50.8,44a.83.83,0,0,0-1-.16,15.88,15.88,0,0,1-5.37,5.4.91.91,0,0,0,.11,1.1l1,1a1.06,1.06,0,0,1-.24,1.72,19.5,19.5,0,0,1-17.81,0,1.12,1.12,0,0,1-.28-1.78l1-1.05a.84.84,0,0,0,.13-1.06,15.48,15.48,0,0,1-3-2.33,16,16,0,0,1-2.37-3,.87.87,0,0,0-1.09.11l-1,1a1.09,1.09,0,0,1-1.74-.24A19.51,19.51,0,0,1,19.16,26.88Z"/></svg>