<svg id="Vrstva_1" data-name="Vrstva 1" xmlns="http://www.w3.org/2000/svg" viewBox="0 0 72.24 72.24"><circle cx="43.3" cy="32.08" r="0.92"/><circle cx="31.7" cy="32.08" r="0.92"/><path d="M43.29,28.44c-2.06,0-1.38,1.24-5.76,1.24s-3.69-1.24-5.76-1.24a3.65,3.65,0,0,0,0,7.3c2.07,0,1.39-1.24,5.76-1.24s3.7,1.24,5.76,1.24a3.65,3.65,0,0,0,0-7.3ZM31.7,33.52a1.45,1.45,0,1,1,1.45-1.44A1.45,1.45,0,0,1,31.7,33.52Zm11.6,0a1.45,1.45,0,1,1,1.45-1.44A1.45,1.45,0,0,1,43.3,33.52Z"/><path d="M61.16,15.52a.92.92,0,0,0,0-1.3.92.92,0,1,0,0,1.3Z"/><circle cx="52.3" cy="23.07" r="0.92"/><path d="M55,25.62c1.46-1.46.09-1.86,3.19-4.95s3.49-1.74,5-3.2a3.65,3.65,0,0,0-5.17-5.16c-1.46,1.46-.1,1.85-3.19,5S51.24,19,49.78,20.45A3.66,3.66,0,0,0,55,25.62Zm4.53-11.77a1.45,1.45,0,1,1,0,2A1.44,1.44,0,0,1,59.48,13.85ZM51.28,24.1a1.45,1.45,0,1,1,2,0A1.46,1.46,0,0,1,51.28,24.1Z"/><path d="M51.67,27.5A3.85,3.85,0,0,1,49,26.38a3.76,3.76,0,0,1-1.12-2.65,12,12,0,0,1-1.75,2.11h0A11.1,11.1,0,0,1,44,27.61a3.85,3.85,0,0,1,2.65,1.12,3.78,3.78,0,0,1,1.12,2.65,12,12,0,0,1,1.75-2.11h0A10.85,10.85,0,0,1,51.67,27.5Z"/><path d="M22.09,40.41a.92.92,0,1,0,1.3,0A.92.92,0,0,0,22.09,40.41Z"/><path d="M13.89,48.61a.93.93,0,0,0,0,1.31.92.92,0,0,0,1.3,0,.93.93,0,0,0,0-1.31A.92.92,0,0,0,13.89,48.61Z"/><path d="M20.16,38.5c-1.46,1.46-.1,1.86-3.2,5s-3.49,1.73-5,3.19a3.66,3.66,0,0,0,5.17,5.17c1.46-1.46.1-1.86,3.19-5s3.49-1.73,4.95-3.19a3.65,3.65,0,1,0-5.16-5.17Zm-4.6,11.79a1.45,1.45,0,1,1,0-2A1.44,1.44,0,0,1,15.56,50.29Zm8.2-8.2a1.45,1.45,0,0,1-2-2.05,1.45,1.45,0,1,1,2,2.05Z"/><path d="M31.09,36.5a3.76,3.76,0,0,1-2.65-1.12,3.81,3.81,0,0,1-1.12-2.65,11.24,11.24,0,0,1-1.75,2.11h0a11.66,11.66,0,0,1-2.11,1.75,3.83,3.83,0,0,1,3.77,3.77A11.66,11.66,0,0,1,29,38.28h0A11.66,11.66,0,0,1,31.09,36.5Z"/></svg>