<svg id="Vrstva_1" data-name="Vrstva 1" xmlns="http://www.w3.org/2000/svg" viewBox="0 0 72.24 72.24"><path d="M47.76,32l-2,2c.17.3.34.6.49.9a2.73,2.73,0,0,1-1.89,3.91A1,1,0,0,1,45,38c-.06-.17-.12-.33-.19-.49A1,1,0,0,1,43.56,37a1.13,1.13,0,0,1-.09-.5l-1.84,1.89q.19.46.36.93l-1.14.18a1.43,1.43,0,0,1-.08-.22L32.22,48l-1,.81a6,6,0,0,1-.91.46,5.68,5.68,0,0,1-2.15.42A5.61,5.61,0,0,1,26,49.3a5.74,5.74,0,0,1-1.89-9.38l8.8-8.54.17-1,.64.25,1.82-1.77-.15,0a1,1,0,0,1-.51-1.23l-.49-.18a1,1,0,0,1-.93.61,2.74,2.74,0,0,1,3.91-1.89c.22.11.43.23.64.35l2.16-2.1a1.37,1.37,0,0,1,0-1.12l-.62-.35a1.33,1.33,0,0,1-1.71.54,1.35,1.35,0,0,1-.69-1.66l-.66-.25A1.33,1.33,0,0,1,34,20.73l-.68-.16a1.33,1.33,0,0,1-2.62-.41c-.24,0-.47-.05-.71-.06a1.33,1.33,0,0,1-1.34,1.17,1.34,1.34,0,0,1-1.31-1.22l-.7,0a1.34,1.34,0,0,1-2.64.32l-.69.13a1.33,1.33,0,0,1-2.56.69l-.67.23a1.33,1.33,0,0,1-2.44,1l-.63.32a1.33,1.33,0,0,1-2.27,1.37c-.2.13-.39.27-.58.41a1.33,1.33,0,0,1-2.06,1.67q-.26.22-.51.48a1.33,1.33,0,0,1-1.81,1.94c-.16.18-.3.36-.45.54A1.34,1.34,0,0,1,7.81,31.4c-.13.2-.25.4-.37.6a1.33,1.33,0,0,1-1.2,2.36c-.1.22-.19.44-.28.65a1.33,1.33,0,0,1-.86,2.51l-.18.68a1.34,1.34,0,0,1-.5,2.61c0,.23-.06.46-.09.7a1.33,1.33,0,0,1,1.13,1.38,1.35,1.35,0,0,1-1.27,1.27c0,.23,0,.47,0,.7a1.33,1.33,0,0,1,.22,2.64c0,.24.07.47.11.7a1.34,1.34,0,0,1,.6,2.59c.06.22.13.45.2.67a1.33,1.33,0,0,1,1,2.48l.3.64A1.33,1.33,0,0,1,7.88,56.9l.38.59a1.33,1.33,0,0,1,1.6,2.11l.47.54A1.33,1.33,0,0,1,12.2,62l.53.46a1.33,1.33,0,0,1,1.78-.15,1.32,1.32,0,0,1,.34,1.75l.59.39a1.33,1.33,0,0,1,2.32,1.29l.64.29a1.34,1.34,0,0,1,2.48.95l.67.21a1.34,1.34,0,0,1,2.59.59l.69.11a1.34,1.34,0,0,1,2.65.23h.7A1.33,1.33,0,0,1,30.83,68l.7-.09a1.33,1.33,0,0,1,2.6-.5l.69-.18a1.33,1.33,0,0,1,2.5-.87c.22-.08.44-.18.65-.27a1.34,1.34,0,0,1,2.37-1.21c.2-.11.4-.24.6-.36A1.33,1.33,0,0,1,43.11,63l.55-.45a1.33,1.33,0,0,1,1.94-1.81l.48-.51a1.35,1.35,0,0,1-.1-1.79,1.33,1.33,0,0,1,1.77-.27l.41-.58a1.33,1.33,0,0,1,1.37-2.27l.32-.63A1.33,1.33,0,0,1,49.26,53a1.32,1.32,0,0,1,1.62-.75c.08-.23.16-.45.23-.67A1.33,1.33,0,0,1,51.8,49c0-.23.09-.47.13-.7a1.33,1.33,0,0,1,.32-2.63c0-.23,0-.47,0-.7a1.34,1.34,0,0,1,0-2.66l-.06-.7A1.33,1.33,0,0,1,51.77,39c-.05-.23-.1-.46-.16-.69a1.33,1.33,0,0,1-.77-2.53c-.08-.22-.17-.44-.26-.66a1.34,1.34,0,0,1-1.12-2.41c-.11-.2-.22-.41-.34-.61A1.33,1.33,0,0,1,47.76,32Zm-21,4.36a2.74,2.74,0,0,1-3.95,2L20.2,37.09l.52-.56a10.67,10.67,0,0,1,6.46-3.07Zm.9-5.71-.26,0a.75.75,0,0,1-.66.75.73.73,0,0,1-.81-.57L25.5,31a.75.75,0,0,1-.54.84.74.74,0,0,1-.89-.46l-.37.13a.74.74,0,0,1-1.36.58l-.35.18a.74.74,0,0,1-.29,1,.75.75,0,0,1-1-.19l-.32.23a.74.74,0,0,1-1.15.93l-.29.27a.74.74,0,0,1-1,1.08l-.24.3.05.06-1.08-.56A14,14,0,0,1,18,33.8a14.51,14.51,0,0,1,9.82-4.25Zm4.18-.51a1.4,1.4,0,1,1-1.16-1.6A1.4,1.4,0,0,1,31.8,30.17Zm-18-.3,0,0A20.19,20.19,0,0,1,25,24.14a2.74,2.74,0,0,1,3.15,3,1,1,0,0,1-.61-.83l-.52,0a1,1,0,0,1-1.95.24l-.51.1a1,1,0,0,1-1.9.5l-.49.17a1,1,0,0,1-.56,1.21,1,1,0,0,1-1.25-.44l-.47.24a1,1,0,0,1-.38,1.27,1,1,0,0,1-1.3-.26l-.43.3a1,1,0,0,1-.2,1.31,1,1,0,0,1-1.32-.07l-.38.35a1,1,0,0,1-1.34,1.44l-.33.4a1,1,0,0,1,.27,1.12h0A2.7,2.7,0,0,1,13.81,29.87ZM14.09,37A1.4,1.4,0,0,1,16,36.4a1.39,1.39,0,1,1-1.88.6Zm3.74,4.87,2.53,1.29a2.74,2.74,0,0,1,.69,4.38l-2,2A10.69,10.69,0,0,1,17.83,41.87Zm-3.54-1.8,1,.51a2.25,2.25,0,0,0-.05.22A.74.74,0,0,1,15,42.25c0,.13,0,.26,0,.39a.74.74,0,0,1-.08,1.48c0,.13,0,.26,0,.39a.76.76,0,0,1,.73.68A.75.75,0,0,1,15,46c0,.13,0,.26.07.39a.73.73,0,0,1,.81.57.74.74,0,0,1-.48.87c0,.12.07.25.11.37a.74.74,0,0,1,.89.45.75.75,0,0,1-.36.94l.17.35a.75.75,0,0,1,.72,1.3c.06.09.13.19.18.28l-.8.8A14.53,14.53,0,0,1,14.29,40.07ZM19,53.38a1.39,1.39,0,0,1-2,2,1.39,1.39,0,0,1,2-2Zm-8.86,0A20.36,20.36,0,0,1,8.14,41a2.73,2.73,0,0,1,3.93-2,1,1,0,0,1-1,.29c0,.16-.09.33-.13.5a1,1,0,0,1,.68,1.13,1,1,0,0,1-1.06.8l-.06.52a1,1,0,0,1,.83,1,1,1,0,0,1-.93.94c0,.17,0,.34,0,.52a1,1,0,0,1,.17,2c0,.18,0,.35.08.52A1,1,0,0,1,11.15,49l.15.5a1,1,0,0,1,1.18.6A1,1,0,0,1,12,51.37l.22.48a1,1,0,0,1,1.26.42,1,1,0,0,1-.3,1.29l.28.45a1,1,0,0,1,1.09,0l-.07.06A2.74,2.74,0,0,1,10.11,53.43ZM31.38,64.2a20.23,20.23,0,0,1-12.42-2,2.73,2.73,0,0,1-.7-4.37l.06-.06a1,1,0,0,1,0,1.07l.44.28a1,1,0,0,1,1.28-.31,1,1,0,0,1,.43,1.26l.47.22a1,1,0,0,1,1.84.7l.5.15a1,1,0,0,1,1.15-.65,1,1,0,0,1,.76,1.09l.51.08a1,1,0,0,1,2,.17h.52a1,1,0,0,1,.94-.94,1,1,0,0,1,1,.84l.52-.06a1,1,0,0,1,.79-1.06,1,1,0,0,1,1.14.68l.5-.13a1,1,0,0,1,.29-.95A2.74,2.74,0,0,1,31.38,64.2Zm.9-6.13a14.57,14.57,0,0,1-12.22-2l.8-.8a2.33,2.33,0,0,1,.26.16.74.74,0,0,1,1.29.71l.35.17a.74.74,0,0,1,1.38.53l.38.11A.74.74,0,0,1,26,57.3l.39.06a.74.74,0,0,1,1.47.13h.4a.74.74,0,0,1,1.47-.08l.39-.05a.75.75,0,0,1,1.46-.28l.22-.05Zm-9.42-4.78,2-2a2.73,2.73,0,0,1,4.36.68l1.29,2.53A10.81,10.81,0,0,1,22.86,53.29ZM36,56.38a1.39,1.39,0,1,1-1.87-.61A1.39,1.39,0,0,1,36,56.38ZM41,42.14a1.39,1.39,0,1,1,1.59,1.16A1.4,1.4,0,0,1,41,42.14Zm-7.08,7.44a2.73,2.73,0,0,1,2-3.95l2.93-.46a10.65,10.65,0,0,1-3.07,6.45c-.18.19-.37.36-.56.53Zm2.54,5,.06.06.31-.25a.74.74,0,0,1,.08-1,.75.75,0,0,1,1,0l.27-.29a.74.74,0,0,1,.93-1.15l.23-.32a.74.74,0,0,1-.2-1,.75.75,0,0,1,1-.29L40.3,50a.75.75,0,0,1-.33-.94.73.73,0,0,1,.91-.42l.12-.37a.75.75,0,0,1-.45-.89.73.73,0,0,1,.84-.54c0-.13,0-.26.07-.39A.74.74,0,0,1,41.64,45c0-.08,0-.17,0-.25l1.15-.18a14.51,14.51,0,0,1-4.25,9.81A13.24,13.24,0,0,1,37,55.67Zm11.71-7.26a20.17,20.17,0,0,1-5.7,11.19l0,0a2.71,2.71,0,0,1-4.32-.69v0a1,1,0,0,1,1.12.28l.41-.33a1,1,0,0,1,1.43-1.34l.36-.38a1,1,0,0,1,1.24-1.53l.3-.42a1,1,0,0,1,1-1.69l.24-.46A1,1,0,0,1,45,50.13c.06-.16.12-.33.17-.49a1,1,0,0,1,.51-1.9c0-.17.07-.34.1-.51A1,1,0,0,1,46,45.28c0-.18,0-.35,0-.52a1,1,0,0,1-.82-.6A2.73,2.73,0,0,1,48.19,47.31Z"/><path d="M62.14,10a3.78,3.78,0,0,0-5.34,0L25,40.81a4.48,4.48,0,0,0,6.3,6.37h0L62.13,15.36a3.76,3.76,0,0,0,0-5.34ZM32.06,44a3.9,3.9,0,0,1-6.65,2.76A3.9,3.9,0,1,1,32.06,44ZM61,13.78A2,2,0,1,1,61,11,2,2,0,0,1,61,13.78Z"/><path d="M26.07,41.89a3,3,0,1,0,4.19,0A3,3,0,0,0,26.07,41.89Z"/></svg>