<svg id="Vrstva_1" data-name="Vrstva 1" xmlns="http://www.w3.org/2000/svg" viewBox="0 0 72.24 72.24"><path d="M47.85,18.81l-2.07-2.08-8.05,8.05s4.24-.36,4.52-.36Z"/><path d="M48.41,18.3a.24.24,0,0,0,.33,0l.43-.43,3.17.87a.78.78,0,0,1,.33.19l.77.77.26.26.75.76a.7.7,0,0,1,.19.32l.82,3.12-.37.36a.34.34,0,0,0,0,.47l2.15,2.15a.3.3,0,0,0,.43,0l1.67-1.66a.3.3,0,0,0,0-.41l-1.8-1.81-.93-3.51v0l-1.35-1.35L55,18.13l-1.37-1.37h0l-3.5-.92-1.8-1.79a.28.28,0,0,0-.4,0L46.27,15.7a.34.34,0,0,0,0,.47Z"/><path d="M54.6,25.55,49,31.16c0,.33-.36,4.52-.36,4.52l8-8Z"/><path d="M12.89,49.61a.2.2,0,0,1,0,.27l-1.62,1.63a.18.18,0,0,0,0,.25l1.49,1.49a.18.18,0,0,0,.25,0l1.62-1.62a.2.2,0,0,1,.28,0l.2.19a.15.15,0,0,0,.23,0l20.4-20.4a4.38,4.38,0,0,1,1.21-.84l.73-.34a1.19,1.19,0,0,0,.38-.25,16.36,16.36,0,0,0,1.77-1.77c.55-.71,1.71-2.37,4-1.47a2.38,2.38,0,0,1,.8.53l.74.74.73.73a2.35,2.35,0,0,1,.52.8c.9,2.32-.75,3.48-1.46,4a17.5,17.5,0,0,0-1.78,1.76,2.26,2.26,0,0,0-.25.38l-.34.73A4.24,4.24,0,0,1,42,37.65L21.57,58a.17.17,0,0,0,0,.25l.2.19a.21.21,0,0,1,0,.28l-1.62,1.62a.19.19,0,0,0,0,.26l1.49,1.49a.2.2,0,0,0,.27,0l1.62-1.63a.18.18,0,0,1,.26,0l.26.26a.2.2,0,0,0,.27,0L44.66,40.38a7.82,7.82,0,0,0,3.1-2.2l.14-1.8s.46-6.7.47-7-.53-1-.53-1L46.43,27,45,25.55S44.36,25,44,25l-7,.48-1.81.14a7.94,7.94,0,0,0-2.2,3.1L12.63,49.09a.19.19,0,0,0,0,.26Z"/><path d="M57.12,19.23l3-3.71.06-.07,2.56-2.56-2.21-2.21L58,13.24l-.07.07-3.73,3,1.5,1.49Z"/><rect x="16.52" y="51.33" width="1.73" height="9.38" transform="translate(-34.52 28.7) rotate(-45)"/><rect x="10.31" y="49.55" width="2.3" height="1.02" rx="0.18" transform="translate(-32.05 22.77) rotate(-45)"/><rect x="22.23" y="61.55" width="1.73" height="0.38" transform="translate(-36.88 34.41) rotate(-44.99)"/></svg>