<svg id="Vrstva_1" data-name="Vrstva 1" xmlns="http://www.w3.org/2000/svg" viewBox="0 0 72.24 72.24"><path d="M62.59,13.16l-2-2.54a.39.39,0,0,0-.52-.09L58,11.83a.28.28,0,0,0-.12.31.45.45,0,0,1-.19.52L31.75,31.21a.55.55,0,0,1-.83-.24l-1.38-3.29a.28.28,0,0,0-.36-.15L28,28a.28.28,0,0,0-.15.36l1.86,4.48a.33.33,0,0,1-.11.38L12.35,46.57a7.33,7.33,0,0,0-1.78,2.16,1.86,1.86,0,0,0,0,1.67h0a.89.89,0,0,0,.71.4l25.24.92a1.73,1.73,0,0,0,.3.41l-.27.32a.3.3,0,0,0,0,.37.31.31,0,0,0,.5,0l.32-.37a1.79,1.79,0,0,0,.7.15,1.71,1.71,0,0,0,1.38-.7l.36.2a.33.33,0,0,0,.38,0,.32.32,0,0,0-.06-.5l-.41-.23a1.56,1.56,0,0,0,.05-.44,1.72,1.72,0,0,0-.14-.68c1.56-2.31,16.6-28.84,18-30.62A15.93,15.93,0,0,1,60,16.7c.26-.23.49-.33.61-.19a.28.28,0,0,0,.35,0l2.33-1.46a.39.39,0,0,0,.13-.55Zm-51.21,37a.61.61,0,1,1,.6-.6A.6.6,0,0,1,11.38,50.11Zm23.53-.23-20.56-.31a1.18,1.18,0,0,1-.72-2.1L30,34.73a.33.33,0,0,1,.5.13L36,48.23A1.19,1.19,0,0,1,34.91,49.88Zm4.2,1.1a1,1,0,0,1-2-.07,1,1,0,0,1,2,.07ZM55.54,17.32c-4.81,8.6-12.77,20.86-17,29.75a.49.49,0,0,1-.89,0L32.16,34a1,1,0,0,1,.38-1.2L55.15,17A.27.27,0,0,1,55.54,17.32Z"/><rect x="27.01" y="26.86" width="2.54" height="0.74" transform="translate(-8.53 13.57) rotate(-23.56)"/></svg>