<svg id="Vrstva_1" data-name="Vrstva 1" xmlns="http://www.w3.org/2000/svg" viewBox="0 0 72.24 72.24"><path d="M44.86,29.63h1.68a.93.93,0,0,0,.94-.92V26.9A.92.92,0,0,1,48.4,26h1.23a1,1,0,0,0,.94-.94v-3.9a1,1,0,0,0-.94-.95H41.8a.94.94,0,0,0-.92.95V25a.93.93,0,0,0,.92.94H43a.92.92,0,0,1,.93.92v1.81A.93.93,0,0,0,44.86,29.63Z"/><path d="M58.78,34.82c-.77-.28-4.55-1.33-8.21-2.31V28a.68.68,0,0,0-.7-.67h-1.1a.66.66,0,0,0-.67.67v1.93a.73.73,0,0,1-.71.72H44a.72.72,0,0,1-.69-.72V28a.68.68,0,0,0-.7-.67H41.59a.65.65,0,0,0-.66.67v5.6l-.41.2C38.61,34.59,15.63,43,5,51.5a.92.92,0,0,0,.56,1.64H16.31a.93.93,0,0,0,.52-.18c2.05-1.42,17.52-11.74,34.42-13.33.61.06,1.21.14,1.82.23,0,0,2.6,1,4.15-.49s2.52-2.51,2.52-2.51A1.53,1.53,0,0,0,58.78,34.82Zm-45.24,17a.26.26,0,0,1-.17.05H11.22a.31.31,0,0,1-.16-.57C17.3,47.42,33,38.84,48.8,39.46,33.42,40.05,18.72,48.51,13.54,51.8Z"/></svg>