<svg id="Vrstva_1" data-name="Vrstva 1" xmlns="http://www.w3.org/2000/svg" viewBox="0 0 72.24 72.24"><path d="M64.76,32.66l1.11-1.11a.42.42,0,0,0,.14-.42l-.53-2.56a.47.47,0,0,0-.1-.24l-18-18a.44.44,0,0,0-.25-.11L44.6,9.7a.5.5,0,0,0-.45.13L43,10.94a.5.5,0,0,0,0,.68L64.12,32.69A.45.45,0,0,0,64.76,32.66Z"/><path d="M48.28,9.39,48,9.68,66.06,27.75l.3-.29C67.53,26.29,49.46,8.21,48.28,9.39Z"/><path d="M31.27,28.35,47.39,44.47a.94.94,0,0,0,1.38,0L53,40.25c.05,0,.19-.07.24-.1L35.59,22.53s-.13.1-.18.15L31.2,26.89A1,1,0,0,0,31.27,28.35Z"/><path d="M40.62,13l-1.4-.4a1,1,0,0,0-1,.28L35.33,15.8a1,1,0,0,0-.32.7L35,20.25a.67.67,0,0,0,.15.52L55,40.62a.74.74,0,0,0,.53.17l3.77-.07a1,1,0,0,0,.7-.31l2.88-2.89a1,1,0,0,0,.28-1l-.43-1.43a1,1,0,0,0-.27-.41L41.06,13.31A1.14,1.14,0,0,0,40.62,13Z"/><path d="M28,30.15l-4.22,4.21c-.05,0,0,.08-.09.11L41.27,52.1c0-.05,0-.12,0-.17l4.21-4.22a1,1,0,0,0,0-1.4L29.43,30.2A1,1,0,0,0,28,30.15Z"/><path d="M21.35,33.87,17.56,34a1,1,0,0,0-.71.34L14,37.17a1,1,0,0,0-.28,1l.42,1.44a1,1,0,0,0,.27.42L35.72,61.39a1,1,0,0,0,.44.28l1.41.39a1,1,0,0,0,1-.28l2.89-2.88a1.1,1.1,0,0,0,.33-.71l.09-3.78a1.18,1.18,0,0,0-.12-.56L21.91,34A1.21,1.21,0,0,0,21.35,33.87Z"/></svg>