<svg id="Vrstva_1" data-name="Vrstva 1" xmlns="http://www.w3.org/2000/svg" viewBox="0 0 72.24 72.24"><path d="M51.86,10.64,41.5,21a.73.73,0,0,0,.08,1l8.84,8.84a.72.72,0,0,0,1,.07L61.8,20.58a.77.77,0,0,0,0-1.06l-8.84-8.84A.79.79,0,0,0,51.86,10.64Zm7.65,8.84-9.17,9.17a.72.72,0,0,1-1-1l9.18-9.17a.68.68,0,0,1,1,0A.69.69,0,0,1,59.51,19.48Zm-2.76-2.77-9.18,9.17a.72.72,0,0,1-1-1l9.17-9.17a.72.72,0,0,1,1,1ZM54,13.94,44.8,23.11a.71.71,0,0,1-1-.06.72.72,0,0,1-.06-1l9.17-9.17a.73.73,0,0,1,1,.06A.72.72,0,0,1,54,13.94Z"/><rect x="15.28" y="51.94" width="3.59" height="6.95" rx="0.79" transform="translate(-34.18 28.31) rotate(-45)"/><rect x="57.52" y="9.7" width="3.59" height="6.95" rx="0.79" transform="translate(8.06 45.8) rotate(-45)"/><path d="M10.69,43.56l-.3.3A.85.85,0,0,0,10.46,45l8.48,8.49L27.43,62a.85.85,0,0,0,1.15,0l.3-.3a.81.81,0,0,0-.09-1.11L27,58.86l-.26-.26L13.85,45.69l-.26-.26-1.78-1.77A.82.82,0,0,0,10.69,43.56Z"/><path d="M27.9,36.06a73,73,0,0,1-12,9.68c-.12.09-.32.21-.38.16l11,11c-.05-.05.08-.26.17-.39A73.13,73.13,0,0,1,48.4,34.84a1.12,1.12,0,0,1,.39-.18l-11-11a1.08,1.08,0,0,1-.18.4A73.57,73.57,0,0,1,27.9,36.06Z"/><path d="M34.53,17.35l-.3.3a.76.76,0,0,0,0,1.08l3,3L50.67,35.19l3,3a.81.81,0,0,0,1.12,0l.3-.3a.76.76,0,0,0-.07-1.08l-9.75-9.75-9.75-9.76A.72.72,0,0,0,34.53,17.35Z"/></svg>