<svg id="Vrstva_1" data-name="Vrstva 1" xmlns="http://www.w3.org/2000/svg" viewBox="0 0 411.81 410.31"><path d="M252.63,231.89v-.6a39.35,39.35,0,0,0-12,3,40.64,40.64,0,0,0-6.87,3.71,40.3,40.3,0,0,0-10.89,10.89,40.75,40.75,0,0,0-3.71,6.84A40,40,0,0,0,216,271.4h.68A39.62,39.62,0,0,1,252.63,231.89Z" transform="translate(-17 -19.69)"/><path d="M248.52,234.81a.5.5,0,0,1,.21,0,.89.89,0,0,1,.76.43,30.47,30.47,0,0,1,3.14-.44v-1.95a38.77,38.77,0,0,0-35,38.57h1.88c0-1,0-2,.12-3a.86.86,0,0,1-.52-.88.88.88,0,0,1,.69-.77,37.37,37.37,0,0,1,1.25-5.91.86.86,0,0,1-.26-.31.61.61,0,0,1,0-.12l0-.13a.66.66,0,0,1,0-.14v-.07a.78.78,0,0,1,0-.21.66.66,0,0,1,.09-.19l0-.06a.62.62,0,0,1,.14-.14.81.81,0,0,1,.56-.21,36,36,0,0,1,1.76-4.19c.22-.45.46-.89.7-1.33a1,1,0,0,1-.21-.42,1,1,0,0,1,0-.34.82.82,0,0,1,.1-.26.87.87,0,0,1,.74-.44.71.71,0,0,1,.2,0c.46-.76.95-1.49,1.46-2.21l.44-.61-.44.61c-.51.72-1,1.45-1.46,2.21h0a35.64,35.64,0,0,1,3.56-4.88.88.88,0,0,1,.1-1,.87.87,0,0,1,.68-.29.76.76,0,0,1,.33.08h0a35.86,35.86,0,0,1,4.49-4,.88.88,0,0,1,.31-1,.85.85,0,0,1,.53-.16.82.82,0,0,1,.5.17,36.13,36.13,0,0,1,5.22-3h0a36.21,36.21,0,0,0-5.24,3h0a35.79,35.79,0,0,1,5.25-3h0a.86.86,0,0,1,.14-.58.93.93,0,0,1,.37-.31.83.83,0,0,1,.34-.07.85.85,0,0,1,.66.28,36.41,36.41,0,0,1,5.75-1.86A.87.87,0,0,1,248.52,234.81Zm-21.1,13.75.48-.59Zm6.88-7.43a.88.88,0,0,0-.31,1c-.5.38-1,.77-1.47,1.18s-1,.83-1.41,1.26q.67-.65,1.41-1.26c.48-.41,1-.8,1.47-1.18a.88.88,0,0,1,.31-1,.85.85,0,0,1,.53-.16h0A.85.85,0,0,0,234.3,241.13Zm6.78-3.91a.84.84,0,0,0-.28.2.83.83,0,0,1,.62-.27h0A.83.83,0,0,0,241.08,237.22Z" transform="translate(-17 -19.69)"/><path d="M202.74,255.73a40,40,0,0,0-3.16,15.67h.59a39.73,39.73,0,0,1,39.69-39.69c.78,0,1.56,0,2.33.08.47-.17.95-.34,1.43-.49-1.24-.11-2.5-.17-3.76-.17a40.38,40.38,0,0,0-37.12,24.6Z" transform="translate(-17 -19.69)"/><path d="M217.87,241.14a.87.87,0,0,1,1,0,36.69,36.69,0,0,1,5.23-3,.86.86,0,0,1,.52-.88.87.87,0,0,1,1,.21,37.15,37.15,0,0,1,5.75-1.87.88.88,0,0,1,.69-.76.86.86,0,0,1,.93.42c.83-.16,1.66-.29,2.5-.38a41.25,41.25,0,0,1,4.42-2.19h-.08a38.71,38.71,0,0,0-38.75,38.74H203c0-1,.05-2,.13-3a.87.87,0,0,1-.52-.89.86.86,0,0,1,.69-.76,36.18,36.18,0,0,1,1.25-5.92.87.87,0,0,1-.32-1,.9.9,0,0,1,.83-.61,37.41,37.41,0,0,1,2.46-5.52.87.87,0,0,1-.1-1,.88.88,0,0,1,.94-.42A37.08,37.08,0,0,1,212,247.4a.86.86,0,0,1,.11-1,.88.88,0,0,1,1-.21,37.32,37.32,0,0,1,4.48-4A.88.88,0,0,1,217.87,241.14Z" transform="translate(-17 -19.69)"/><path d="M289.74,185.09c.06,1.14-.82,1.56-2.4,2.27.05.42.12.85.2,1.27,1.73.18,2.7.29,3,1.4s-.48,1.7-1.88,2.73c.14.4.3.8.46,1.19,1.74-.18,2.71-.27,3.23.75s-.11,1.75-1.27,3.06l.7,1.07c1.66-.54,2.59-.83,3.32.06s.25,1.74-.61,3.25l.44.45.47.45c1.51-.87,2.36-1.34,3.25-.63s.61,1.65.08,3.31c.36.24.72.48,1.08.7,1.3-1.17,2-1.81,3.05-1.3s.94,1.49.77,3.23l1.2.45c1-1.41,1.61-2.19,2.72-1.9s1.23,1.26,1.42,3c.42.07.84.14,1.26.19.71-1.59,1.12-2.47,2.26-2.42s1.47,1,2,2.63l1.29-.07c.36-1.71.57-2.65,1.7-2.84s1.64.65,2.52,2.15l1.24-.33c0-1.74,0-2.72,1.07-3.13s1.74.29,2.92,1.58c.38-.18.76-.38,1.13-.58-.36-1.71-.55-2.67.41-3.3s1.76-.07,3.17.95q.51-.39,1-.81c-.71-1.59-1.09-2.49-.28-3.3s1.7-.44,3.29.26c.28-.33.55-.66.81-1-1-1.41-1.59-2.2-1-3.17s1.58-.78,3.29-.42c.2-.38.39-.76.58-1.15-1.3-1.16-2-1.82-1.61-2.9s1.38-1.09,3.12-1.1c.12-.41.23-.82.33-1.24-1.51-.87-2.35-1.37-2.18-2.5s1.13-1.35,2.83-1.72q0-.64.06-1.29c-1.66-.53-2.58-.85-2.64-2s.81-1.56,2.4-2.27c-.06-.43-.13-.85-.2-1.27-1.74-.18-2.7-.3-3-1.4s.48-1.7,1.89-2.73c-.15-.4-.3-.8-.47-1.19-1.73.18-2.7.27-3.23-.75s.11-1.76,1.27-3.06c-.22-.36-.46-.72-.7-1.07-1.66.54-2.59.83-3.31-.06s-.26-1.74.6-3.25l-.44-.45-.47-.45c-1.5.87-2.35,1.34-3.25.62s-.61-1.65-.08-3.31q-.52-.36-1.08-.69c-1.29,1.17-2,1.81-3.05,1.29s-.94-1.49-.77-3.22c-.39-.16-.79-.31-1.19-.45-1,1.41-1.61,2.19-2.72,1.9s-1.23-1.26-1.42-3c-.42-.08-.84-.14-1.27-.2-.7,1.6-1.11,2.48-2.26,2.42s-1.46-1-2-2.62c-.43,0-.85,0-1.28.07-.36,1.7-.58,2.65-1.71,2.84s-1.63-.65-2.51-2.16c-.42.1-.83.22-1.24.34,0,1.74,0,2.71-1.08,3.13s-1.74-.3-2.91-1.59c-.38.19-.76.38-1.14.59.37,1.71.56,2.66-.4,3.29s-1.76.07-3.17-.94c-.34.26-.67.53-1,.81.71,1.59,1.09,2.48.29,3.3s-1.71.43-3.3-.26c-.28.32-.54.66-.8,1,1,1.41,1.58,2.21,1,3.17s-1.58.78-3.28.43c-.21.38-.4.76-.58,1.14,1.3,1.17,2,1.83,1.61,2.9s-1.38,1.1-3.13,1.1c-.12.42-.22.83-.32,1.24,1.51.87,2.34,1.37,2.17,2.51s-1.12,1.35-2.82,1.72c0,.43-.05.86-.06,1.28C288.75,183.63,289.67,183.94,289.74,185.09Zm11.79,14.3a2.44,2.44,0,1,1,0-3.45A2.44,2.44,0,0,1,301.53,199.39Zm27.79-.09a2.44,2.44,0,1,1,0-3.45A2.44,2.44,0,0,1,329.32,199.3Zm-3.56-31.23a2.44,2.44,0,1,1,0,3.46A2.44,2.44,0,0,1,325.76,168.07Zm-27.78.1a2.44,2.44,0,1,1,0,3.45A2.44,2.44,0,0,1,298,168.17Zm-1.54,6.57a1.11,1.11,0,0,1,1.76-.27l1.08,1.07a.86.86,0,0,0,1,.17,15.53,15.53,0,0,1,5.37-5.36.88.88,0,0,0-.08-1.15l-1-1a1.1,1.1,0,0,1,.27-1.76,19.43,19.43,0,0,1,17.66,0,1.09,1.09,0,0,1,.26,1.74l-1,1a.88.88,0,0,0-.12,1.08,15.44,15.44,0,0,1,3,2.36,15.7,15.7,0,0,1,2.37,3,.86.86,0,0,0,1.05-.16l1-1a1.12,1.12,0,0,1,1.77.28,19.61,19.61,0,0,1,0,17.85,1.12,1.12,0,0,1-1.77.31l-1-1a.83.83,0,0,0-1.05-.15,15.73,15.73,0,0,1-5.36,5.4.88.88,0,0,0,.11,1.09l1.05,1a1.08,1.08,0,0,1-.24,1.73,19.55,19.55,0,0,1-17.82,0,1.13,1.13,0,0,1-.28-1.78l1-1a.83.83,0,0,0,.13-1.07,15.71,15.71,0,0,1-5.37-5.34.86.86,0,0,0-1.09.11l-1,1.05a1.08,1.08,0,0,1-1.74-.25A19.46,19.46,0,0,1,296.44,174.74Z" transform="translate(-17 -19.69)"/><path d="M138.53,21.54a1.07,1.07,0,0,0,0-1.53A1.1,1.1,0,0,0,137,20a1.07,1.07,0,0,0-.26,1.12l-1.68,1.68.65.66,1.68-1.68A1,1,0,0,0,138.53,21.54Z" transform="translate(-17 -19.69)"/><rect x="160.98" y="47.58" width="3.14" height="0.99" transform="translate(-3.39 109.33) rotate(-45)"/><polygon points="127.82 47.87 127.82 47.87 127.82 47.87 127.82 47.87"/><path d="M118.75,41.54l16.8-16.76L133.75,23,117,39.74a19.67,19.67,0,0,0,27.83,27.81h0a19.64,19.64,0,0,0,4.31-6.5l.08-.21h0s0-.1.05-.15l0-.08.06-.14,0-.1s0-.09.05-.13l0-.11,0-.12,0-.12a.56.56,0,0,1,0-.12.56.56,0,0,1,0-.12l0-.11a.93.93,0,0,0,0-.13l0-.11c0-.05,0-.09,0-.14s0-.06,0-.08h0a19.14,19.14,0,0,0,.75-5.4,19.74,19.74,0,0,0-1.44-7.4A19.69,19.69,0,0,0,130.91,34a20.42,20.42,0,0,0-3.5.3l-3.79,3.79a17.23,17.23,0,1,1-4.87,3.45Z" transform="translate(-17 -19.69)"/><path d="M159.83,49.06l-8.63,8.62a24.37,24.37,0,0,1-1.12,3.75c-.22.55-.47,1.07-.73,1.59L161.57,50.8Z" transform="translate(-17 -19.69)"/><path d="M158,374.9h0l0-.05,0,0,0,0-.06,0h0c-.53-.49-2.6-1.94-6.46,1.11-4.44,3.51-19.12,17-25.25,18.75s-8.91.72-13.49,3.52-7.25,10.72-6.65,13.31,3.19,6.54,7.39,5.18c3.63-1.18,4.09-2.27,4.54-1.93h0v0l.07.05s0,0,.05.06h0c.34.45-.73.93-1.91,4.56-1.36,4.2,2.58,6.79,5.17,7.39s10.51-2.07,13.31-6.66,1.74-7.36,3.52-13.49,15.25-20.8,18.76-25.23C160,377.49,158.47,375.37,158,374.9Zm-21.41,23.72c-3.37,3.37-6.66,5.54-7.35,4.86s1.49-4,4.85-7.35,6.66-5.55,7.35-4.86S140,395.25,136.63,398.62Z" transform="translate(-17 -19.69)"/><path d="M417.66,21.5,407.3,31.86a.74.74,0,0,0,.08,1l8.84,8.84a.73.73,0,0,0,1,.07L427.6,31.44a.77.77,0,0,0,0-1.06l-8.85-8.84A.77.77,0,0,0,417.66,21.5Zm7.66,8.83-9.18,9.17a.72.72,0,0,1-1-1l9.17-9.18a.72.72,0,0,1,1,1Zm-2.77-2.77-9.18,9.18a.72.72,0,0,1-1-1l9.17-9.17a.72.72,0,0,1,1,1Zm-2.77-2.76L410.61,34a.77.77,0,0,1-1.08-1.07l9.18-9.18a.77.77,0,0,1,1.07,1.08Z" transform="translate(-17 -19.69)"/><rect x="381.08" y="62.8" width="3.59" height="6.95" rx="0.79" transform="translate(48.28 270.45) rotate(-45)"/><rect x="423.33" y="20.55" width="3.59" height="6.95" rx="0.79" transform="translate(90.52 287.94) rotate(-45)"/><path d="M376.5,54.41l-.3.3a.86.86,0,0,0,.06,1.16l8.49,8.49,8.48,8.48a.85.85,0,0,0,1.15.06l.3-.3a.8.8,0,0,0-.09-1.11l-1.78-1.78-.25-.26-12.91-12.9-.26-.26-1.77-1.78A.83.83,0,0,0,376.5,54.41Z" transform="translate(-17 -19.69)"/><path d="M393.7,46.92a73.3,73.3,0,0,1-12,9.68c-.13.08-.33.21-.38.16l11,11c-.05,0,.07-.26.16-.39a73,73,0,0,1,21.69-21.7,1.16,1.16,0,0,1,.39-.17l-11-11a1.06,1.06,0,0,1-.18.4A73.57,73.57,0,0,1,393.7,46.92Z" transform="translate(-17 -19.69)"/><path d="M400.33,28.2l-.3.3a.76.76,0,0,0,0,1.08l3,3,13.43,13.43,3,3a.82.82,0,0,0,1.13,0l.3-.3a.78.78,0,0,0-.08-1.09L411.12,38l-9.75-9.75A.71.71,0,0,0,400.33,28.2Z" transform="translate(-17 -19.69)"/><path d="M291.39,122.34,287.74,126a1,1,0,0,0,.19,1.4l13.73,13.73a1,1,0,0,0,1.37.17l3.65-3.66a1,1,0,0,0-.16-1.37l-.18-.18A1.52,1.52,0,0,1,306,134l2.15-2.15-11-11L295,123a1.47,1.47,0,0,1-2-.3l-.18-.18A1,1,0,0,0,291.39,122.34Zm13.46,13.42a.59.59,0,0,1,.06.83L302,139.52a.58.58,0,0,1-.82-.07h0a.68.68,0,0,1-.15-.89l2.93-2.93a.7.7,0,0,1,.91.14ZM302,132.87a.64.64,0,0,1,.09.86l-2.94,2.93a.61.61,0,0,1-.84-.1h0a.66.66,0,0,1-.13-.87l2.93-2.94a.69.69,0,0,1,.89.12ZM299.08,130a.58.58,0,0,1,.05.82l-2.93,2.94a.58.58,0,0,1-.81-.07h0a.63.63,0,0,1-.11-.86l2.93-2.93a.64.64,0,0,1,.87.1Zm-2.89-2.89a.62.62,0,0,1,.08.85l-2.93,2.93a.61.61,0,0,1-.84-.09h0a.67.67,0,0,1-.13-.88L295.3,127a.68.68,0,0,1,.89.12Zm-2.88-2.88a.63.63,0,0,1,.09.86L290.47,128a.63.63,0,0,1-.85-.11h0a.63.63,0,0,1-.12-.86l2.93-2.94a.65.65,0,0,1,.88.11Z" transform="translate(-17 -19.69)"/><path d="M334.84,107.59l.18.18a1,1,0,0,0,1.35.17l3.66-3.65a1,1,0,0,0-.16-1.37L326.14,89.19a1,1,0,0,0-1.4-.2l-3.66,3.66a1,1,0,0,0,.21,1.39l.18.18a1.48,1.48,0,0,1,.28,2l-2.13,2.14,11,11,2.13-2.14A1.55,1.55,0,0,1,334.84,107.59ZM323,94.55a.64.64,0,0,1-.1-.86l2.93-2.93a.64.64,0,0,1,.86.1h0a.65.65,0,0,1,.11.87l-2.93,2.93a.65.65,0,0,1-.87-.11Zm2.89,2.88a.65.65,0,0,1-.13-.87l2.93-2.94a.67.67,0,0,1,.88.12h0a.61.61,0,0,1,.08.84l-2.93,2.94a.6.6,0,0,1-.84-.1Zm2.88,2.89a.62.62,0,0,1-.1-.85l2.94-2.93a.62.62,0,0,1,.85.09h0a.59.59,0,0,1,.07.83l-2.93,2.93a.59.59,0,0,1-.83-.07Zm2.89,2.88a.64.64,0,0,1-.12-.87l2.93-2.93a.65.65,0,0,1,.87.11h0a.63.63,0,0,1,.09.86l-2.93,2.93a.61.61,0,0,1-.85-.1Zm2.88,2.89a.69.69,0,0,1-.14-.89l2.93-2.94a.7.7,0,0,1,.9.14h0a.59.59,0,0,1,.07.83l-2.93,2.94a.59.59,0,0,1-.83-.08Z" transform="translate(-17 -19.69)"/><path d="M317,101.16s.51,1.14.1,1.55L301.45,118.4a1.1,1.1,0,0,1-1.57-.08L298.21,120l.84.85,9.17,9.17.81.81,1.68-1.68s-.49-1.16-.08-1.57l15.68-15.69a1.09,1.09,0,0,1,1.56.1h0l1.64-1.64-.81-.81-9.17-9.17-.85-.85-1.64,1.65Z" transform="translate(-17 -19.69)"/><path d="M138.62,123.12l-7-7-15.14,15.14a1.42,1.42,0,0,0,0,2l5,5a1.42,1.42,0,0,0,2,0Z" transform="translate(-17 -19.69)"/><path d="M148.07,95.39l-3.2,3.19a.79.79,0,0,0,0,1.11l.13.13L155,109.9h0a.82.82,0,0,0,1.14,0l3.19-3.19a.84.84,0,0,0,0-1.16l-10.2-10.21A.82.82,0,0,0,148.07,95.39Z" transform="translate(-17 -19.69)"/><path d="M132.44,113.08l.05,0-.38.38a1.27,1.27,0,0,0,0,1.79l7.28,7.28a1.17,1.17,0,0,0,1.7,0l.38-.38.14.14a1,1,0,0,0,1.42,0l11.5-11.49L143.9,100.12l-11.49,11.5A1,1,0,0,0,132.44,113.08Z" transform="translate(-17 -19.69)"/><path d="M142,96.82l1.42,1.42a.4.4,0,0,0,.58,0l3.68-3.68a.42.42,0,0,0-.08-.66l-2-.82a.39.39,0,0,0-.49.08L142,96.26A.38.38,0,0,0,142,96.82Z" transform="translate(-17 -19.69)"/><rect x="130.9" y="97.4" width="2.49" height="6.34" rx="0.37" transform="translate(-49.41 103.21) rotate(-45)"/><path d="M135.38,101.49l6.56-6.56.27-.27.29-.29,2.06-2.06.08-.08-2.93-2.93a1.47,1.47,0,0,0-2.07-.14h0l-1.18,1.17-7.11,7.11Z" transform="translate(-17 -19.69)"/><path d="M160.53,98.71a1.94,1.94,0,0,0,0-2.73l-2.28-2.28a2,2,0,0,0-2.74,0L152.25,97l5,5Zm-5,0a2.19,2.19,0,1,1,3.1,0A2.18,2.18,0,0,1,155.51,98.74Z" transform="translate(-17 -19.69)"/><path d="M118.36,140.54l2-2-4.09-4.09-2,2a2.54,2.54,0,0,0,0,3.59l.5.5A2.49,2.49,0,0,0,118.36,140.54Zm-3.23-3.48a1.88,1.88,0,1,1,0,2.66A1.87,1.87,0,0,1,115.13,137.06Z" transform="translate(-17 -19.69)"/><path d="M160,180.52l1.11-1.12a.47.47,0,0,0,.14-.42l-.53-2.55a.55.55,0,0,0-.1-.25l-18-18a.6.6,0,0,0-.26-.11l-2.53-.53a.52.52,0,0,0-.45.13l-1.11,1.12a.47.47,0,0,0,0,.67l21.07,21.07A.44.44,0,0,0,160,180.52Z" transform="translate(-17 -19.69)"/><path d="M143.56,157.24l-.29.3,18.07,18.07.29-.3C162.81,174.14,144.73,156.07,143.56,157.24Z" transform="translate(-17 -19.69)"/><path d="M126.55,176.21l16.12,16.11a.92.92,0,0,0,1.37,0l4.22-4.22c.05,0,.18-.06.23-.1l-17.62-17.62c0,.05-.13.1-.18.16l-4.22,4.21A1,1,0,0,0,126.55,176.21Z" transform="translate(-17 -19.69)"/><path d="M135.9,160.88l-1.4-.39a1,1,0,0,0-1,.27l-2.89,2.89a1.05,1.05,0,0,0-.33.7l-.06,3.75a.73.73,0,0,0,.15.53l19.86,19.85a.72.72,0,0,0,.52.16l3.78-.06a1,1,0,0,0,.7-.32l2.88-2.88a1,1,0,0,0,.28-1l-.43-1.42a1,1,0,0,0-.27-.42l-21.36-21.35A1,1,0,0,0,135.9,160.88Z" transform="translate(-17 -19.69)"/><path d="M123.22,178,119,182.22c-.05.05,0,.08-.09.11L136.54,200s0-.12,0-.17l4.21-4.21a1,1,0,0,0,0-1.4L124.7,178.05A1.05,1.05,0,0,0,123.22,178Z" transform="translate(-17 -19.69)"/><path d="M116.63,181.73l-3.79.08a1,1,0,0,0-.72.33L109.24,185a1,1,0,0,0-.29,1l.43,1.43a1.06,1.06,0,0,0,.26.43L131,209.25a1,1,0,0,0,.44.27l1.4.4a1,1,0,0,0,1-.28l2.89-2.89a1,1,0,0,0,.32-.7l.1-3.79a1.16,1.16,0,0,0-.12-.55l-19.85-19.86A1.23,1.23,0,0,0,116.63,181.73Z" transform="translate(-17 -19.69)"/><path d="M50.32,389.44Z" transform="translate(-17 -19.69)"/><path d="M51.34,389.44h0Z" transform="translate(-17 -19.69)"/><path d="M51.36,389.5l0-.06S51.37,389.55,51.36,389.5Z" transform="translate(-17 -19.69)"/><path d="M64.37,383.33a3.62,3.62,0,0,0-2.31-.34c-.29.07-.57.16-.86.24l-4.5,1.24-3.67,1a2.84,2.84,0,0,0-.49.17c-.28.14-.31.4-.39.67-.23.73-.47,1.46-.7,2.2a1.56,1.56,0,0,0-.09,1c.14.44.56.68.91.94a1.9,1.9,0,0,1,.41.39,1.41,1.41,0,0,1,.2.92c0,1.53,0,3.05,0,4.57s0,3,0,4.53a2.07,2.07,0,0,0,.39,1.54,1.13,1.13,0,0,0,1,.3c.7-.09,1.4-.21,2.09-.31a2.22,2.22,0,0,0,.89-.24,1.56,1.56,0,0,0,.42-.56q2.18-3.49,4.36-7c1.18-1.86,2.36-3.72,3.57-5.55a3.63,3.63,0,0,0,.68-1.84,4.61,4.61,0,0,0-.32-1.6A3.78,3.78,0,0,0,64.37,383.33Z" transform="translate(-17 -19.69)"/><path d="M51.33,389.43Z" transform="translate(-17 -19.69)"/><polygon points="49.23 367.47 49.23 367.48 49.23 367.47 49.23 367.47"/><path d="M55.28,411.91v0a5.2,5.2,0,0,1-3.17,3.47c-2.07.64-6.11,1.55-7.36,1.82a.4.4,0,0,0-.3.47l.35,1.77a.4.4,0,0,0,.45.31,2.53,2.53,0,0,1,2.36.64c.82,1.08,3.86,5.52,7.61,6.09s5.09.63,8.11-.64a.44.44,0,0,0,.2-.18l3.31-6.25a.45.45,0,0,0,0-.2l-.56-13.92a.38.38,0,0,0-.07-.21A12.24,12.24,0,0,0,65,403.55c-.69-.69-.06-2.22,1.4-3.93,1.23-1.44,3.89-7.11.92-11.63a5,5,0,0,1-.8,1.62c-.91,1.3-5.24,8.22-7.16,11.31Zm8.19,8.32c-.51,1.22-1.38,3.07-1.63,3.59a.38.38,0,0,1-.22.21,9.16,9.16,0,0,1-11.44-4.44l0-.06a1.34,1.34,0,0,1,1.1-1.84c1.36-.34,3.44-.81,4.2-1a.39.39,0,0,1,.42.17c.42.67,1.81,2.37,4.3.74a.45.45,0,0,1,.34-.05l2.55.79.08,0C63.32,418.51,64,419,63.47,420.23Zm-1-15.26a2.09,2.09,0,0,0,.84,2.41.82.82,0,0,1,.3,1s-.21,0-.21,0v6.41c0,.93-.54.76-.54.76l-1.64-.45a.32.32,0,0,1-.23-.28,3.22,3.22,0,0,0-2.53-2.16.39.39,0,0,1-.28-.49c.42-1.58,1.9-7.16,2.23-7.95S62.83,403.78,62.48,405Z" transform="translate(-17 -19.69)"/><path d="M61.37,409.15a1.53,1.53,0,0,1-.43-2c-.25-.09-.4-.17-.66-.24-.34,1.19-.71,2.78-1.2,4.62a4.3,4.3,0,0,1,3.13,3.14v-5.33C62.22,409.42,61.78,409.39,61.37,409.15Z" transform="translate(-17 -19.69)"/><path d="M49.61,412.52a8.82,8.82,0,0,0-.39,1.47,1.61,1.61,0,0,1,1.38,1.1c.47-.12.91-.25,1.29-.36a4.49,4.49,0,0,0,2.68-3l0-.09,1.82-4.94a8,8,0,0,0-1.38.38,1.6,1.6,0,0,1-2.76,1.59,9,9,0,0,0-1.07,1.07,1.6,1.6,0,0,1-1.6,2.76Z" transform="translate(-17 -19.69)"/><path d="M62.8,419l-1.66-.52a4.24,4.24,0,0,1-6.72-.84c-.93.21-2.11.49-3,.71a1.16,1.16,0,0,0-.5.24,1.6,1.6,0,0,1,.84,2.06,10,10,0,0,0,1.17,1.25,1.59,1.59,0,0,1,2.25,1.39,7.5,7.5,0,0,0,1.56.43,1.59,1.59,0,0,1,1.35-.75,1.6,1.6,0,0,1,1.38.79,9.86,9.86,0,0,0,1.54-.33,1.6,1.6,0,0,1,.8-1.45l.11-.06c.31-.67.64-1.41.88-2S63,419.17,62.8,419Z" transform="translate(-17 -19.69)"/><path d="M50.32,388.11c.21-.65.41-1.31.62-2-1.1-.15-2.21-.28-3.31-.44a1.46,1.46,0,0,0-.79.16l-1.35.48-4.26,1.52-4.08,1.46-1.15.41a6.27,6.27,0,0,0-.82.41,5.9,5.9,0,0,1-3.16.66,19.33,19.33,0,0,0-2.16-.29,8.05,8.05,0,0,0-2.06.33c-.14,0-.09,0-.09.15v13.7a15,15,0,0,1,1.62-.61,1.87,1.87,0,0,0,1-.69,4.34,4.34,0,0,1,.26-.53,1.92,1.92,0,0,1,.64-.5,5.89,5.89,0,0,1,1.68-.54c.79-.18,1.57-.49,2.35-.74,2.9-.93,5.82-1.91,8.81-2.55a13.24,13.24,0,0,1,1.87-.3c.3,0,.78-.07,1,.16a4.07,4.07,0,0,0,2,.81,20.82,20.82,0,0,0,2.72.44c0-2.45,0-4.86.07-7.31,0-.28,0-.56,0-.83a.51.51,0,0,0-.26-.43,6.32,6.32,0,0,1-.82-.65,1.83,1.83,0,0,1-.46-1.64C50.17,388.55,50.25,388.33,50.32,388.11Zm-1.94,4.23a1.22,1.22,0,0,1-.44.64c-.29.22-.46.44-.75.66a.63.63,0,0,1-.64.14l-.63-.2-2.27-.7c-.45-.14-1.48-.24-1.91-.42s-.94-.4-.94-.71h0c0-.58,1.46-.83,2-1s1.48-.45,2.09-.67,1.54-.52,2.25-.78c.43-.15,1.23-.48,1.6-.07.08.08-.33.18-.33.29,0,.3-.43.6-.43.9v1.2C47.94,391.83,48.44,392.12,48.38,392.34Zm-7.58-.45Zm0-.05Zm0-.08Z" transform="translate(-17 -19.69)"/><circle cx="5.11" cy="357.82" r="1.87"/><path d="M28.11,387.77c.34,0-.29-1.69-1.75-2a1.13,1.13,0,0,1-.89-.89l-.16-.81a1.14,1.14,0,0,1,.1-.73,1.32,1.32,0,0,1,.74-.66c.82-.32,2-1,.76-2a2.59,2.59,0,0,1-.85-2,3.75,3.75,0,0,0,.09-.82,4,4,0,1,0-6.89,2.75,3.87,3.87,0,0,1,.61,3.42c-.23.75-.47,1.56-.68,2.28a4.84,4.84,0,0,1,6.7.14,4.67,4.67,0,0,1,1.19,1.94A2.82,2.82,0,0,1,28.11,387.77Zm-6-7.67a2.59,2.59,0,1,1,2.59-2.59A2.59,2.59,0,0,1,22.11,380.1Z" transform="translate(-17 -19.69)"/><path d="M22.45,387.74a1.87,1.87,0,1,0,1.87,1.86A1.87,1.87,0,0,0,22.45,387.74Z" transform="translate(-17 -19.69)"/><path d="M22.47,385.76a4.11,4.11,0,0,0-4.12,4.12c0,.11,0,.22,0,.33a.41.41,0,0,0,0,.11l0,3.08a4.76,4.76,0,0,0,1.12,3.1l7.12,8.42,0-14.59a.37.37,0,0,0,0-.11c0-.11,0-.23,0-.34A4.11,4.11,0,0,0,22.47,385.76Zm0,6.43A2.59,2.59,0,1,1,25,389.6,2.59,2.59,0,0,1,22.45,392.19Z" transform="translate(-17 -19.69)"/><path d="M338.55,20.26,323.4,36.66a15.1,15.1,0,0,0-2,2.74l-.87,1.6a12.11,12.11,0,0,1-2,2.64L317,45.22l-5,5-1.58,1.58a11.7,11.7,0,0,1-2.63,2l-1.6.88a14.76,14.76,0,0,0-2.74,2L287,71.79l1.28,1.41,16.24-14.49A12.6,12.6,0,0,1,308,56.45l1.34-.59a11.64,11.64,0,0,0,3.49-2.17l1.29-1.29,5-5,1.29-1.3a11.09,11.09,0,0,0,2.17-3.48l.59-1.34a13,13,0,0,1,2.26-3.47L340,21.54Z" transform="translate(-17 -19.69)"/><path d="M420.44,228.39a14.64,14.64,0,0,0-20.89,13.78L398,248.93l-12.71,11.45a10.22,10.22,0,0,1,1.32.44,9.25,9.25,0,0,1,2.93,2,9.35,9.35,0,0,1,2,2.92,9.21,9.21,0,0,1,.72,3.59,10,10,0,0,1-.06,1.1l27.68-15.31a14.62,14.62,0,0,0,.62-26.71Zm-8.34.36a16,16,0,0,1,4,0,12.54,12.54,0,0,1,3.62,1.07h0a12.9,12.9,0,0,1,3.13,2.12,16.39,16.39,0,0,1,2.57,3.12,1.19,1.19,0,0,1-1.51,1.72,1.13,1.13,0,0,1-.49-.43,10.65,10.65,0,0,0-11.07-5.24,1.19,1.19,0,0,1-.28-2.37Zm-6.35,21.34a1.21,1.21,0,0,1-1.67-.24,15.93,15.93,0,0,1-2-3.5,12.36,12.36,0,0,1-.61-7.44,16.26,16.26,0,0,1,1.41-3.79,1.19,1.19,0,1,1,2.12,1.1,10.65,10.65,0,0,0,1,12.2A1.19,1.19,0,0,1,405.75,250.09Zm.8-12.09a8.44,8.44,0,1,1,4,11.24A8.44,8.44,0,0,1,406.55,238Zm19.81,8.24a15.65,15.65,0,0,1-2,3.48A12.34,12.34,0,0,1,418.2,254a15.63,15.63,0,0,1-4,.67,1.18,1.18,0,0,1-1.24-1.13,1.19,1.19,0,0,1,1.13-1.25,10.64,10.64,0,0,0,10.07-7,1.19,1.19,0,0,1,2.19.94Z" transform="translate(-17 -19.69)"/><path d="M383,272.65a3.34,3.34,0,1,0-3.34-3.34A3.34,3.34,0,0,0,383,272.65Z" transform="translate(-17 -19.69)"/><path d="M383,276.85a7.54,7.54,0,1,0-7.54-7.54A7.54,7.54,0,0,0,383,276.85Zm-4.22-9.32a4.72,4.72,0,0,1,1-1.46,4.57,4.57,0,0,1,6.47,0,4.59,4.59,0,0,1,0,6.48,4.57,4.57,0,0,1-6.47,0,4.57,4.57,0,0,1-1-5Z" transform="translate(-17 -19.69)"/><path d="M249.52,31.56c.29.29.61.44.71.34l.37-.38c.1-.09.06-.31-.1-.59l-.8-1.39a2.89,2.89,0,0,0-.48-.62l-6-6a3.9,3.9,0,0,0-.38-.33l-2.71-2c-.38-.29-.7-.39-.83-.26l-.32.32c-.1.1.05.42.34.71Z" transform="translate(-17 -19.69)"/><path d="M245,34.16l2.41-.16a.85.85,0,0,0,.85-.14l.75-.75c.2-.2.11-.6-.18-.89l-2.43-2.43a4.62,4.62,0,0,1-3.86-1.55A4.63,4.63,0,0,1,241,24.37L238.59,22c-.29-.29-.67-.36-.87-.15l-.64.64a.93.93,0,0,0,0,1.11l2.27,5.1a1.68,1.68,0,0,0,.3.4l4.74,4.68A1.5,1.5,0,0,0,245,34.16Z" transform="translate(-17 -19.69)"/><rect x="194.93" y="48.05" width="54.48" height="6.93" transform="translate(11.65 152.49) rotate(-45)"/><circle cx="37.58" cy="232.24" r="0.92"/><circle cx="25.98" cy="232.24" r="0.92"/><path d="M54.57,248.29c-2.07,0-1.39,1.25-5.76,1.25s-3.7-1.25-5.76-1.25a3.66,3.66,0,0,0,0,7.31c2.06,0,1.38-1.24,5.76-1.24s3.69,1.24,5.76,1.24a3.66,3.66,0,0,0,0-7.31ZM43,253.38a1.45,1.45,0,1,1,1.45-1.45A1.45,1.45,0,0,1,43,253.38Zm11.6,0A1.45,1.45,0,1,1,56,251.93,1.45,1.45,0,0,1,54.58,253.38Z" transform="translate(-17 -19.69)"/><path d="M72.43,235.38a.92.92,0,1,0-1.3,0A.92.92,0,0,0,72.43,235.38Z" transform="translate(-17 -19.69)"/><circle cx="46.58" cy="223.23" r="0.92"/><path d="M66.22,245.47c1.46-1.46.1-1.86,3.19-4.95s3.5-1.73,5-3.19a3.66,3.66,0,0,0-5.17-5.17c-1.46,1.46-.1,1.86-3.19,5s-3.5,1.74-5,3.19a3.66,3.66,0,0,0,5.17,5.17Zm4.54-11.77a1.45,1.45,0,1,1,0,2.05A1.44,1.44,0,0,1,70.76,233.7ZM62.56,244a1.45,1.45,0,1,1,2,0A1.44,1.44,0,0,1,62.56,244Z" transform="translate(-17 -19.69)"/><path d="M62.94,247.35a3.81,3.81,0,0,1-3.76-3.77,11.66,11.66,0,0,1-1.75,2.11h0a11.57,11.57,0,0,1-2.11,1.75,3.81,3.81,0,0,1,2.65,1.12,3.85,3.85,0,0,1,1.12,2.65,11.24,11.24,0,0,1,1.75-2.11h0A12.4,12.4,0,0,1,62.94,247.35Z" transform="translate(-17 -19.69)"/><path d="M33.37,260.27a.92.92,0,1,0,1.3,0A.92.92,0,0,0,33.37,260.27Z" transform="translate(-17 -19.69)"/><path d="M25.16,268.47a.92.92,0,0,0,0,1.3.92.92,0,1,0,0-1.3Z" transform="translate(-17 -19.69)"/><path d="M31.43,258.35c-1.46,1.46-.1,1.86-3.19,4.95s-3.49,1.74-4.95,3.2a3.66,3.66,0,1,0,5.17,5.17c1.46-1.46.1-1.86,3.19-5s3.49-1.73,5-3.19a3.66,3.66,0,1,0-5.17-5.17Zm-4.59,11.79a1.45,1.45,0,1,1,0-2A1.44,1.44,0,0,1,26.84,270.14Zm8.2-8.2a1.44,1.44,0,0,1-2,0,1.45,1.45,0,1,1,2,0Z" transform="translate(-17 -19.69)"/><path d="M42.37,256.36a3.85,3.85,0,0,1-2.65-1.12,3.78,3.78,0,0,1-1.12-2.65,12,12,0,0,1-1.75,2.11h0a11.1,11.1,0,0,1-2.11,1.74,3.83,3.83,0,0,1,3.77,3.77,11.57,11.57,0,0,1,1.75-2.11h0A11.1,11.1,0,0,1,42.37,256.36Z" transform="translate(-17 -19.69)"/><path d="M310.27,375.24a25.22,25.22,0,1,0,25.22,25.22A25.22,25.22,0,0,0,310.27,375.24Zm20.4,13.43a.77.77,0,0,1-.17,1,23.35,23.35,0,0,1,1.33,3,.78.78,0,0,1,.85.54.8.8,0,0,1-.37.94,23.78,23.78,0,0,1,.67,3.17.79.79,0,0,1,.16,1.55c0,.53.06,1.08.06,1.63s0,1.08-.06,1.61a.79.79,0,0,1-.16,1.54,22.15,22.15,0,0,1-.67,3.18.79.79,0,0,1,.37.94.81.81,0,0,1-.85.54,22.42,22.42,0,0,1-1.32,3,.79.79,0,0,1-.78,1.35,23.31,23.31,0,0,1-1.9,2.62.79.79,0,0,1,0,1,.8.8,0,0,1-1,.15,23.61,23.61,0,0,1-2.41,2.17.8.8,0,0,1-.25,1,.79.79,0,0,1-1-.07,22.35,22.35,0,0,1-2.81,1.63.79.79,0,0,1-1.41.63,21.88,21.88,0,0,1-3.09,1,.8.8,0,0,1-.63.79.79.79,0,0,1-.89-.47,23,23,0,0,1-3.23.34.79.79,0,0,1-1.55,0,24.37,24.37,0,0,1-3.23-.33.8.8,0,0,1-.9.46.78.78,0,0,1-.62-.78,22.78,22.78,0,0,1-3.09-1,.81.81,0,0,1-1,.27.8.8,0,0,1-.45-.9,22.28,22.28,0,0,1-2.81-1.62.81.81,0,0,1-1,.06.79.79,0,0,1-.25-1,23.71,23.71,0,0,1-2.41-2.18.79.79,0,0,1-1-1.15,23.59,23.59,0,0,1-1.92-2.63.78.78,0,0,1-.93-.35.79.79,0,0,1,.16-1,22,22,0,0,1-1.33-3,.8.8,0,0,1-.84-.54.79.79,0,0,1,.36-.93,23.93,23.93,0,0,1-.67-3.18.8.8,0,0,1-.71-.71.78.78,0,0,1,.55-.83c0-.54-.06-1.09-.06-1.63s0-1.09.06-1.62a.79.79,0,0,1-.55-.84.8.8,0,0,1,.71-.71,22.44,22.44,0,0,1,.67-3.18.79.79,0,0,1,.48-1.47,22,22,0,0,1,1.32-3,.79.79,0,0,1,.78-1.34,22.31,22.31,0,0,1,1.91-2.63.81.81,0,0,1,0-1,.79.79,0,0,1,1-.14,23.71,23.71,0,0,1,2.41-2.18.78.78,0,0,1,.25-1,.8.8,0,0,1,1,.06,22.35,22.35,0,0,1,2.81-1.63.8.8,0,0,1,.45-.9.79.79,0,0,1,1,.27,22.89,22.89,0,0,1,3.1-1,.78.78,0,0,1,1.51-.32,23,23,0,0,1,3.23-.34.8.8,0,0,1,1.56,0,22.81,22.81,0,0,1,3.22.34.79.79,0,0,1,1.52.32,23.21,23.21,0,0,1,3.09,1,.78.78,0,0,1,1-.27.79.79,0,0,1,.45.9,22.35,22.35,0,0,1,2.81,1.63.79.79,0,0,1,1-.07.8.8,0,0,1,.25,1,23.5,23.5,0,0,1,2.4,2.17.8.8,0,0,1,1,.15.79.79,0,0,1,0,1,23.74,23.74,0,0,1,1.91,2.62A.77.77,0,0,1,330.67,388.67Z" transform="translate(-17 -19.69)"/><path d="M315.27,396.77l2.79-4.79,9.25-6.73-.17-.24-8.71,6.34,5.49-9.41-.26-.15-5.83,10L313.36,395l.6-5.51,5.72-9.91-.26-.15L314,388.8,315.23,378l-.29,0-1.27,11.5-2.76,4.8L309.22,389l1.19-11.38-.29,0L309,388.26l-3.32-10.37-.28.09,3.52,11-.57,5.51-3.69-4.13-3.54-10.88-.28.09,3.33,10.24-7.25-8.13-.22.2,7.7,8.63,1.71,5.26-5-2.27L293.4,385l-.22.19,7.21,8-9.92-4.47-.13.27,10.55,4.75,3.7,4.11-5.53,0-10.46-4.65-.12.27,9.84,4.37-10.89-.05v.3l11.56.05,5.06,2.25-5.64,2.23h-12v.29h11.34l-9.68,4.39.26.27L299,402.9h5.58l-3.71,4.1-10.44,4.66.12.27,9.84-4.39L293,415.6l.22.2,7.79-8.56,5-2.25-1.73,5.26-7.66,8.51.22.19,7.2-8-3.41,10.34.28.09,3.63-11,3.7-4.12.55,5.51-3.53,10.89.28.09L309,412.52,310,423.36l.3,0-1.16-11.51,1.71-5.26,2.75,4.8,1.2,11.39.29,0L314,412l5.4,9.46.26-.14-5.74-10.05-.58-5.5,4.46,3.27,5.73,9.91.26-.15-5.39-9.32,8.78,6.44.18-.24L318,408.84l-2.77-4.79,5.41,1.17,9.26,6.73.18-.24-8.72-6.33L332,407.7l.07-.29L320.78,405l-4.48-3.25,5.42-1.13,11.2,2.37.06-.29-10.53-2.23,10.66-2.21-.06-.29-11.33,2.35-5.41-1.15,4.49-3.23L332,393.5l-.07-.29-10.53,2.25,8.84-6.36-.17-.24-9.39,6.75Zm2.19-4.35-2.59,4.43-1.75.37.19-1.78Zm-9,9.92.14.26h-.37l0-.37Zm-.26-3.79,0-.37h.38l-.15.25Zm.31,1.91a1.74,1.74,0,1,1,1.74,1.73A1.73,1.73,0,0,1,308.53,400.46Zm.43-2.25,0,0h0l-.05,0Zm4,2.49.19.32-.31.22,0-.29Zm-.14-.84,0-.29.3.21-.19.33Zm.31.54.26-.44.62.45-.62.44Zm.17-.87-.41-.3.05-.52.75.16Zm-.5-2.24-.87.18-.27-.84,1.32-1Zm-.46,4.72a.47.47,0,0,0,.06-.09l.2-.14,0,.37-.37.08Zm-.05-3.44.36.08,0,.38-.23-.17Zm.38,3.88.08.75L312,403l.16-.49Zm0-4.09-.5-.11-.15-.49.74-.16Zm-.95-.54.12.36-.28-.06-.2-.22Zm-.59-.18-.34-.38.61-.45.23.73Zm-.1.34h0Zm-.23-.26-.29.06-.26-.13.3-.22Zm-.87-.21-.47-.21.38-.66.51.57Zm.07.36H310l0,0Zm-.34-.16-.24.18h-.29l.19-.32Zm-.3,5.19.08,0,.2.14-.34.15-.19-.32Zm.55.37.42.31-.51.56-.37-.66Zm.32-.14.19-.08.15,0,.21.05-.25.28Zm.88,0,.51.11-.24.72-.61-.45Zm.23-.25.14-.15.14-.08.2-.05-.11.36Zm.57.42.86.19.18,1.62-1.32-1Zm1-1.23-.05-.51.42-.3.38.66Zm.9.12.82,1.41-1.59-.35-.1-.88Zm-.29-1.1.72-.52,1.32,1-1.6.33Zm0-1.41.45-.76,1.59.33-1.32,1Zm.3-1.1-.86-.18.09-.88,1.59-.34Zm-.26-8.43-.56,5.1-1.45,1.06-.55-1.71Zm-2.26,6.35-.72.52-.59-.67.81-1.4Zm-2.18-6.82,1.56,4.88-.9,1.56-1.2-1.34Zm-.58,5.5,1.09,1.21-.45.77-.81-.37Zm-.2,1.92.69.32-.25.44h-.52Zm-3.48-6.05,3.42,3.83-.19,1.79-1.64-.74Zm3.31,7.81v0h0Zm-.36.43-.19.22-.12-.35.34-.16Zm0,2.44-.34-.15.12-.36.19.22Zm-.25-1.37-.09.28-.25-.27.25-.28Zm-.2.61-.16.49-.69-.31.51-.56Zm0,.89.47.21.05.51h-.76Zm.48-3.2-.47.21-.24-.72H308Zm-.65.62.16.48-.35.38-.51-.56Zm-.91.07-1.09-1.21h1.63l.28.84Zm.52,1-.6.66-1.48-.66,1.49-.65Zm-.52,1,.81.36-.28.84h-1.63Zm.74,1.5H308l.09.88-1.49.66Zm.9-5h-.88l-.51-1.54,1.49.67Zm-6.43-3.83,4.68,2.11.55,1.71H305Zm-1.83,4.09,5.13,0,1.21,1.33-1.65.73Zm0,4.47,4.7-2.07,1.64.73-1.21,1.33Zm1.81,4.09,3.45-3.8h1.8l-.56,1.71Zm3.32,3,1.61-4.88,1.64-.73.18,1.79Zm3.43-6.8h.51l.26.45-.7.3Zm.1,1.06.81-.36.44.77-1.08,1.21Zm.72,7.13-.51-5.11,1.2-1.33.89,1.56Zm1.7-5.26-.8-1.42.59-.66.72.53Zm2.75,4.8L311,406.17l.56-1.71,1.45,1.07Zm3.88-2.23-4.14-3-.19-1.79,1.76.38Zm2.63-3.61-5-1.09-.9-1.56,1.76-.36Zm.94-4.37-5,1-1.46-1,1.46-1.05ZM315.92,399l-1.76-.37.9-1.56,5-1.07Z" transform="translate(-17 -19.69)"/><path d="M328.88,381.78a26.3,26.3,0,1,0-37.2,37.2,26.3,26.3,0,0,0,42.83-28.83A26.21,26.21,0,0,0,328.88,381.78Zm-18.6,44.4a25.8,25.8,0,1,1,25.79-25.8A25.82,25.82,0,0,1,310.28,426.18Z" transform="translate(-17 -19.69)"/><path d="M162.87,233l-2-2.54a.4.4,0,0,0-.53-.09l-2.07,1.3a.28.28,0,0,0-.13.31.42.42,0,0,1-.18.51L132,251.06a.54.54,0,0,1-.83-.23l-1.38-3.29a.28.28,0,0,0-.36-.15l-1.2.5a.28.28,0,0,0-.15.36l1.85,4.48a.31.31,0,0,1-.1.38l-17.23,13.32a7.27,7.27,0,0,0-1.79,2.16,1.84,1.84,0,0,0,0,1.66h0a.87.87,0,0,0,.71.4l25.24.92a1.6,1.6,0,0,0,.3.42l-.27.32a.31.31,0,1,0,.46.42l.33-.38a1.63,1.63,0,0,0,.7.15,1.7,1.7,0,0,0,1.37-.69l.37.2a.33.33,0,0,0,.37,0,.32.32,0,0,0-.05-.51l-.42-.22a1.61,1.61,0,0,0,.06-.44,1.72,1.72,0,0,0-.14-.68c1.56-2.32,16.59-28.84,18-30.63a15.93,15.93,0,0,1,2.44-2.94c.26-.22.48-.32.6-.19a.29.29,0,0,0,.36,0l2.33-1.46a.39.39,0,0,0,.13-.54Zm-51.22,37a.6.6,0,0,1-.6-.61.61.61,0,1,1,.6.61Zm23.54-.23-20.56-.31a1.18,1.18,0,0,1-.72-2.11l16.37-12.74a.33.33,0,0,1,.5.13l5.53,13.38A1.19,1.19,0,0,1,135.19,269.74Zm4.19,1.09a1,1,0,1,1-2-.06,1,1,0,0,1,1-1A1,1,0,0,1,139.38,270.83Zm16.43-33.66c-4.8,8.61-12.77,20.87-17,29.75a.48.48,0,0,1-.88,0l-5.48-13.1a1,1,0,0,1,.37-1.19l22.62-15.8A.27.27,0,0,1,155.81,237.17Z" transform="translate(-17 -19.69)"/><rect x="127.28" y="246.72" width="2.54" height="0.74" transform="translate(-105.04 52.28) rotate(-23.56)"/><path d="M58.05,295.38H57.3c-.46,0-.83.56-.83,1l0,7.88,4.3,4.35-1.91-12.38C58.81,295.84,58.46,295.38,58.05,295.38Z" transform="translate(-17 -19.69)"/><path d="M69.94,301a.74.74,0,0,0-1-.19l-7.36,5.08.44,2.81L67,305.19a.86.86,0,0,0,.14-.13l2.72-3.17A.74.74,0,0,0,69.94,301Z" transform="translate(-17 -19.69)"/><path d="M50.15,319.44l-1.82-1.82-.94,0-1.78,1.79c0,.37,0,.58,0,.95l1.82,1.82h.94l1.79-1.78C50.15,320,50.17,319.78,50.15,319.44Z" transform="translate(-17 -19.69)"/><path d="M58.94,307.92l-6.58-6.57a1.88,1.88,0,0,0-2.74.09l-4.06,4.65a1.87,1.87,0,0,0,.08,2.56l4,4a2.1,2.1,0,0,1,0,3l-.67.67a.64.64,0,0,0,0,.91l1.89,1.89a1.28,1.28,0,0,0,1.07.37c1.9-.22,7.6-1,9.16-2.53a4.86,4.86,0,0,0,0-6.85Zm-6.38-3.84a12.47,12.47,0,0,0-4.48,4.48.45.45,0,0,1-.65,0l-1-1a.46.46,0,0,1,0-.66l4.13-4.82a.47.47,0,0,1,.66,0l1.33,1.33A.47.47,0,0,1,52.56,304.08Z" transform="translate(-17 -19.69)"/><path d="M25.56,328.29H17.81a.81.81,0,0,0-.81.83v.74a.81.81,0,0,0,.68.83l12.19,1.91Z" transform="translate(-17 -19.69)"/><path d="M22,340.71a.75.75,0,0,0,1.1,1L26.24,339a.57.57,0,0,0,.13-.14l3.49-5.05-2.8-.44Z" transform="translate(-17 -19.69)"/><path d="M43.32,319.25l-1.82-1.81-.93,0-1.79,1.78c0,.37,0,.58,0,.95L40.6,322c.37,0,.58,0,.95,0l1.78-1.79C43.33,319.81,43.31,319.62,43.32,319.25Z" transform="translate(-17 -19.69)"/><path d="M38.33,320.76a.62.62,0,0,0-.89,0l-.67.67a2.1,2.1,0,0,1-3,0l-4-4a1.88,1.88,0,0,0-2.57-.08l-4.65,4.07a1.89,1.89,0,0,0-.1,2.75l6.57,6.58,2.12,2.11a4.86,4.86,0,0,0,6.85,0c1.55-1.56,2.32-7.26,2.53-9.17a1.27,1.27,0,0,0-.37-1.06Zm-8.58-.88a12.33,12.33,0,0,0-4.47,4.47.46.46,0,0,1-.66,0L23.29,323a.46.46,0,0,1,0-.65l4.82-4.14a.47.47,0,0,1,.66,0l1,1A.47.47,0,0,1,29.75,319.88Z" transform="translate(-17 -19.69)"/><path d="M326.37,244.49h1.68a1,1,0,0,0,.95-.93v-1.8a.91.91,0,0,1,.91-.93h1.23a1,1,0,0,0,.94-.94V236a1,1,0,0,0-.94-1h-7.83a.94.94,0,0,0-.91,1v3.9a.92.92,0,0,0,.91.94h1.2a.93.93,0,0,1,.93.93v1.8A.93.93,0,0,0,326.37,244.49Z" transform="translate(-17 -19.69)"/><path d="M340.29,249.68c-.77-.29-4.55-1.33-8.21-2.32v-4.52a.69.69,0,0,0-.7-.68h-1.1a.66.66,0,0,0-.67.67v1.94a.73.73,0,0,1-.7.72h-3.36a.71.71,0,0,1-.68-.72v-1.93a.69.69,0,0,0-.7-.68h-1.06a.65.65,0,0,0-.67.67v5.61l-.41.19c-1.9.82-24.89,9.25-35.51,17.72a.92.92,0,0,0,.57,1.64h10.73a1,1,0,0,0,.52-.17c2.05-1.42,17.52-11.74,34.43-13.33.6.06,1.21.13,1.81.22,0,0,2.61,1,4.15-.48s2.52-2.52,2.52-2.52A1.51,1.51,0,0,0,340.29,249.68Zm-45.24,17a.34.34,0,0,1-.17,0h-2.14a.31.31,0,0,1-.17-.58c6.25-3.86,22-12.43,37.74-11.82C314.93,254.91,300.23,263.36,295.05,266.66Z" transform="translate(-17 -19.69)"/><path d="M73.81,98.09l-1.44-6.28L72,90.08a2.31,2.31,0,0,0-2.11-2H53.3a2.13,2.13,0,0,0-1.92,1.41L46.83,100a3.3,3.3,0,0,0-.28,1.33v3.78a3.43,3.43,0,0,0,.28,1.35l4.55,10.48a2.19,2.19,0,0,0,1.92,1.45H69.86a2.35,2.35,0,0,0,2.11-2l.4-1.77,1.44-6.28a4.13,4.13,0,0,0,.08-.78V98.87A4,4,0,0,0,73.81,98.09Zm-23.66,2,3.36-7.67a.81.81,0,0,1,.74-.54h7.84a.68.68,0,0,1,.63,1L59.6,99.94a4.27,4.27,0,0,0-.18.54.69.69,0,0,1-.66.52h-8A.69.69,0,0,1,50.15,100Zm12,14.51H54.25a.83.83,0,0,1-.74-.56l-3.35-7.66a.68.68,0,0,1,.62-1h8a.67.67,0,0,1,.66.51,5.52,5.52,0,0,0,.18.53l3.12,7.17A.68.68,0,0,1,62.1,114.55Zm8.83-11.38v4a1,1,0,0,1,0,.29l-1.42,6.29a.92.92,0,0,1-.82.78H67a.84.84,0,0,1-.74-.55l-3.9-8.94a1.32,1.32,0,0,1-.12-.52,4.7,4.7,0,0,1,0-2.73,1.33,1.33,0,0,1,.12-.53l3.9-8.91a.81.81,0,0,1,.74-.54h1.62a.88.88,0,0,1,.81.76l1.43,6.27a1,1,0,0,1,0,.3Z" transform="translate(-17 -19.69)"/><rect x="23.75" y="81.84" width="2.49" height="3.37" rx="0.39"/><rect x="26.95" y="81.13" width="1.89" height="4.91" rx="0.39"/><path d="M44.26,112.27a2.18,2.18,0,0,0-1.92-1.45H25.77a2.35,2.35,0,0,0-2.1,2l-.4,1.76-1.43,6.28a3.44,3.44,0,0,0-.08.78v8.61a3.33,3.33,0,0,0,.08.78l1.43,6.28.4,1.74a2.31,2.31,0,0,0,2.1,2H42.34a2.13,2.13,0,0,0,1.92-1.41l4.56-10.45a3.3,3.3,0,0,0,.28-1.33v-3.78a3.43,3.43,0,0,0-.28-1.35Zm-10.72,2.28h7.85a.87.87,0,0,1,.74.58l3.35,7.68a.69.69,0,0,1-.62,1h-8a.68.68,0,0,1-.66-.51,4.12,4.12,0,0,0-.18-.53l-3.12-7.2A.71.71,0,0,1,33.54,114.55Zm-4.19,22.24a.83.83,0,0,1-.74.54H27a.89.89,0,0,1-.81-.77l-1.43-6.27a1.53,1.53,0,0,1,0-.3v-8a1.43,1.43,0,0,1,0-.29l1.43-6.31a.93.93,0,0,1,.81-.81h1.62a.87.87,0,0,1,.74.58l3.9,8.94a1.37,1.37,0,0,1,.12.53,4.74,4.74,0,0,1,0,2.74,1.32,1.32,0,0,1-.12.52Zm16.14-7.67-3.36,7.67a.81.81,0,0,1-.74.54H33.54a.68.68,0,0,1-.62-1L36,129.21a4.12,4.12,0,0,0,.18-.53.68.68,0,0,1,.66-.52h8A.69.69,0,0,1,45.49,129.12Z" transform="translate(-17 -19.69)"/><rect x="35.41" y="104.56" width="2.49" height="3.37" rx="0.39"/><rect x="32.87" y="103.79" width="1.89" height="4.91" rx="0.39"/><path d="M421.12,180.33l-.67.66a4.1,4.1,0,0,1,1.27,1.25l2.17-2.16v-.66l-.35-.36-.27-.27h-.66l-.92,1h0Z" transform="translate(-17 -19.69)"/><rect x="422.96" y="176.12" width="6.47" height="0.78" transform="translate(-16.96 333.41) rotate(-45.01)"/><path d="M418,188.15h0l.12,0h0a3.54,3.54,0,0,0,0-7.07H418a3.53,3.53,0,0,0,0,7.06Z" transform="translate(-17 -19.69)"/><path d="M415.91,173.69c-.18,0-.41,0-.41.19v2.6a.33.33,0,0,0,.33.32.33.33,0,0,1,.33.31v3.51a4.39,4.39,0,0,1,1.89-.41,4.6,4.6,0,0,1,1.84.39l.13-.12,1.28-1.33a5.77,5.77,0,0,1-1.47-3.79v-1.48c0-.17-.05-.19-.23-.19h-3.69Z" transform="translate(-17 -19.69)"/><path d="M415.89,195.72h3.7c.17,0,.22-.22.22-.4v-2.59a3,3,0,0,1,1.77-2.64l3.44-1.55a1.81,1.81,0,0,0,1.06-1.67v-3.19a1.75,1.75,0,0,0-.73-1.5l-1.55-1.11-1.58,1.59-.12.12a4.43,4.43,0,0,1-.9,4.94,4.51,4.51,0,0,1-5.05.86v3.5a.32.32,0,0,1-.33.32.33.33,0,0,0-.33.32v2.59A.49.49,0,0,0,415.89,195.72Z" transform="translate(-17 -19.69)"/><path d="M398.77,206.62a21.91,21.91,0,0,0,18.31-9.8h-1.19a1.58,1.58,0,0,1-1.51-1.5v-2.43a17.88,17.88,0,0,1-3.89,5,2.8,2.8,0,0,1-3.75,0l-3.1-2.85a1.55,1.55,0,0,1-.1-2.18l9.69-10.54a1.77,1.77,0,0,1,1.77-.53l0,0h0v-4a1.45,1.45,0,0,1-.66-1.19v-2.6a1.36,1.36,0,0,1,1.51-1.28h1.28a22,22,0,1,0-18.42,34Zm11.28-7.84a.49.49,0,0,1,.68-.13l2.07,1.41a.48.48,0,0,1,.12.68.49.49,0,0,1-.68.13l-2.06-1.41A.49.49,0,0,1,410.05,198.78Zm-5.53,3a.48.48,0,0,1,.68.11l1.46,2a.49.49,0,0,1-.79.57l-1.46-2A.48.48,0,0,1,404.52,201.78Zm-17.51-3-1,2.28a.5.5,0,0,1-.65.24.48.48,0,0,1-.24-.65l1-2.28a.49.49,0,0,1,.64-.24h0A.49.49,0,0,1,387,198.82Zm5.57,3.16-.19,2.5a.48.48,0,0,1-.52.45.49.49,0,0,1-.45-.53l.18-2.49a.49.49,0,0,1,.53-.45A.48.48,0,0,1,392.58,202Zm6.66,4.08a.5.5,0,0,1-.61-.33l-.67-2.42a.47.47,0,0,1,.33-.6.5.5,0,0,1,.61.34l.68,2.41A.49.49,0,0,1,399.24,206.06Zm.79-3.81c-.42,0-.84.05-1.26.05a17.65,17.65,0,0,1-13.22-5.94,2.8,2.8,0,0,1,0-3.75l2.85-3.1a1.55,1.55,0,0,1,2.18-.1l10.54,9.69A1.82,1.82,0,0,1,400,202.25Zm-1.26-11.35a6.28,6.28,0,1,1,6.29-6.28A6.28,6.28,0,0,1,398.77,190.9Zm11.76-20.52,1-2.28a.48.48,0,0,1,.65-.24.49.49,0,0,1,.24.64l-1,2.29a.49.49,0,0,1-.89-.41ZM405,167.22l.19-2.5a.48.48,0,0,1,.52-.45.49.49,0,0,1,.45.52l-.18,2.5a.49.49,0,0,1-.53.45A.48.48,0,0,1,405,167.22Zm-6.66-4.09a.5.5,0,0,1,.61.34l.67,2.41a.49.49,0,1,1-.94.27l-.68-2.41A.5.5,0,0,1,398.3,163.13Zm-.8,3.87c.42,0,.84-.05,1.27-.05A17.65,17.65,0,0,1,412,172.89a2.8,2.8,0,0,1,0,3.75l-2.85,3.11a1.56,1.56,0,0,1-2.18.09l-10.54-9.69A1.82,1.82,0,0,1,397.5,167ZM391,164.59a.48.48,0,0,1,.68.11l1.46,2a.5.5,0,0,1-.11.69.5.5,0,0,1-.68-.11l-1.46-2A.48.48,0,0,1,391,164.59Zm-.21,6.85,3.11,2.85a1.56,1.56,0,0,1,.09,2.18L384.29,187a1.82,1.82,0,0,1-3.15-1.12c0-.42-.05-.84-.05-1.26A17.65,17.65,0,0,1,387,171.41,2.8,2.8,0,0,1,390.78,171.44Zm-6.17-3a.49.49,0,0,1,.68-.13l2.07,1.41a.49.49,0,0,1,.13.68.49.49,0,0,1-.68.13l-2.07-1.41A.49.49,0,0,1,384.61,168.46ZM380,174.27a.48.48,0,0,1,.59-.35l2.43.62a.48.48,0,0,1,.35.59.49.49,0,0,1-.59.36l-2.43-.62A.49.49,0,0,1,380,174.27Zm-2,6.53,2.49-.25a.49.49,0,0,1,.54.44.5.5,0,0,1-.44.53l-2.49.25a.49.49,0,0,1-.54-.44A.48.48,0,0,1,378,180.8Zm-.28,8a.51.51,0,0,1,.23-.66l2.26-1.08a.48.48,0,0,1,.65.23.49.49,0,0,1-.23.65L378.37,189A.51.51,0,0,1,377.71,188.79Zm5.15,5.15-1.75,1.79a.51.51,0,0,1-.7,0,.5.5,0,0,1,0-.7l1.74-1.79a.5.5,0,0,1,.71.69Z" transform="translate(-17 -19.69)"/><path d="M225.86,106.89a7.71,7.71,0,1,0,7.7,7.71A7.72,7.72,0,0,0,225.86,106.89Zm0,13.79a6.08,6.08,0,1,1,6.08-6.08A6.09,6.09,0,0,1,225.86,120.68Z" transform="translate(-17 -19.69)"/><path d="M250.11,114.6a2.68,2.68,0,0,1,2.52-2.68c0-.56-.12-1.12-.21-1.66a2.68,2.68,0,0,1-1.38-5.18c-.2-.53-.41-1-.64-1.56a2.68,2.68,0,0,1-2.68-4.64c-.33-.45-.67-.9-1-1.33a2.69,2.69,0,0,1-3.79-3.8c-.43-.35-.88-.69-1.33-1A2.69,2.69,0,0,1,236.94,90c-.51-.23-1-.44-1.56-.64A2.68,2.68,0,0,1,230.2,88c-.55-.09-1.1-.16-1.66-.22a2.69,2.69,0,0,1-5.37,0c-.56.06-1.11.13-1.66.22a2.68,2.68,0,0,1-5.18,1.39c-.53.2-1.05.41-1.56.64a2.66,2.66,0,0,1-1,3.55,2.69,2.69,0,0,1-3.6-.86c-.45.33-.89.67-1.33,1a2.68,2.68,0,0,1-3.78,3.8c-.36.43-.7.88-1,1.33a2.68,2.68,0,0,1-2.68,4.64c-.23.51-.44,1-.64,1.56a2.68,2.68,0,0,1-1.38,5.18c-.08.54-.16,1.1-.21,1.66a2.69,2.69,0,0,1,0,5.36c0,.56.12,1.11.21,1.66a2.68,2.68,0,0,1,1.39,5.17c.2.53.42,1,.65,1.55a2.68,2.68,0,0,1,2.68,4.63c.33.46.67.9,1,1.33a2.68,2.68,0,0,1,3.79,3.78q.65.54,1.32,1a2.69,2.69,0,0,1,4.64,2.68c.51.23,1,.44,1.55.64a2.68,2.68,0,0,1,5.17,1.38c.55.09,1.1.16,1.66.22a2.68,2.68,0,0,1,5.35,0c.56-.06,1.11-.13,1.66-.22a2.69,2.69,0,0,1,5.18-1.38c.52-.2,1-.41,1.54-.64a2.69,2.69,0,0,1,4.64-2.68c.45-.32.89-.66,1.33-1a2.68,2.68,0,0,1,3.79-3.78c.35-.43.69-.87,1-1.33a2.68,2.68,0,0,1,2.68-4.63c.23-.51.45-1,.65-1.55a2.68,2.68,0,0,1,1.39-5.17c.09-.55.16-1.1.22-1.66A2.69,2.69,0,0,1,250.11,114.6Zm-5.89-12.39a21.9,21.9,0,0,1,2.46,4.85,2.89,2.89,0,0,1-3.5-1.31A2.69,2.69,0,0,1,244.22,102.21Zm-7.28,18.09a2.68,2.68,0,0,1,1.41-5.13A12.45,12.45,0,0,1,236.94,120.3Zm1.22,6.51,0,0a17.26,17.26,0,0,1-4.37,3.18,2.74,2.74,0,0,1,4.4-3.21Zm-24.8-11.63a2.68,2.68,0,0,1,1.42,5.14A12.39,12.39,0,0,1,213.36,115.18Zm3.84,11.26A2.82,2.82,0,0,1,218,130a17.26,17.26,0,0,1-4.37-3.18h0A2.9,2.9,0,0,1,217.2,126.44Zm-8.47-14.7a17.09,17.09,0,0,1,1.64-5,2.65,2.65,0,0,1-1.64,5Zm.32,7.18a17.44,17.44,0,0,1-.53-5.23,2.64,2.64,0,0,1,2.69,2.37A2.75,2.75,0,0,1,209.05,118.92Zm2.3-13.9a17.88,17.88,0,0,1,2.23-2.73,16.48,16.48,0,0,1,1.32-1.19,2.66,2.66,0,0,1-3.55,3.92Zm3.38,3.74a2.93,2.93,0,0,1,1.63,3.28,2.73,2.73,0,0,1-3,1.84A12.45,12.45,0,0,1,214.73,108.76Zm.58-1A12.42,12.42,0,0,1,219,104a2.66,2.66,0,0,1-3.73,3.77Zm1.17-7.81a17.16,17.16,0,0,1,4.82-2.15,2.65,2.65,0,0,1-4.82,2.15Zm8.81,2a2.83,2.83,0,0,1-2,3.08,2.92,2.92,0,0,1-3.29-1.66A12.54,12.54,0,0,1,225.29,102Zm-2.07-4.58a17.24,17.24,0,0,1,5.27,0,2.65,2.65,0,0,1-5.27,0Zm3.24,4.59a12.22,12.22,0,0,1,5.24,1.43,2.9,2.9,0,0,1-3.27,1.64A2.83,2.83,0,0,1,226.46,102Zm3.95-4.19a17.42,17.42,0,0,1,4.82,2.14,2.65,2.65,0,0,1-4.82-2.14Zm2.28,6.2a12.65,12.65,0,0,1,3.73,3.77,2.66,2.66,0,0,1-3.73-3.77Zm2.71,8a2.91,2.91,0,0,1,1.59-3.27,12.49,12.49,0,0,1,1.37,5.24A2.8,2.8,0,0,1,235.4,112Zm1.4-7.37a2.64,2.64,0,0,1,0-3.57c.45.37.89.77,1.31,1.19a17.88,17.88,0,0,1,2.23,2.73A2.64,2.64,0,0,1,236.8,104.67Zm4.54,2a17.09,17.09,0,0,1,1.64,5,2.65,2.65,0,0,1-1.64-5Zm-.84,9.34a2.65,2.65,0,0,1,2.69-2.37,17.57,17.57,0,0,1-.53,5.25A2.77,2.77,0,0,1,240.5,116.06Zm-1-18.92a22.28,22.28,0,0,1,3.79,3.79,2.68,2.68,0,0,1-3.79-3.79Zm-1.29-.94a2.68,2.68,0,0,1-3.54,1,2.84,2.84,0,0,1-1.28-3.5A22.31,22.31,0,0,1,238.21,96.2Zm-6.32-2.93a2.77,2.77,0,0,1-3,2.09,2.8,2.8,0,0,1-2.26-2.91A21.8,21.8,0,0,1,231.89,93.27Zm-6.84-.82a2.81,2.81,0,0,1-2.26,2.91,2.76,2.76,0,0,1-3-2.08A21.81,21.81,0,0,1,225.05,92.45Zm-6.76,1.31A2.87,2.87,0,0,1,217,97.25a2.69,2.69,0,0,1-3.53-1A22.57,22.57,0,0,1,218.29,93.76Zm-6.1,3.4a2.68,2.68,0,0,1-3.78,3.79A22.22,22.22,0,0,1,212.19,97.16Zm-4.71,5.07a2.69,2.69,0,0,1,1,3.52,2.84,2.84,0,0,1-3.46,1.3A22.31,22.31,0,0,1,207.48,102.23Zm-2.93,6.31a2.79,2.79,0,0,1,2.06,3,2.83,2.83,0,0,1-2.87,2.27A22.3,22.3,0,0,1,204.55,108.54Zm0,12.09a21.72,21.72,0,0,1-.83-5.26,2.83,2.83,0,0,1,2.87,2.26A2.78,2.78,0,0,1,204.57,120.63Zm2.93,6.3a22,22,0,0,1-2.45-4.81,2.84,2.84,0,0,1,3.44,1.31A2.68,2.68,0,0,1,207.5,126.93Zm4.71,5.06a21.81,21.81,0,0,1-3.78-3.78,2.68,2.68,0,0,1,3.78,3.78Zm.1-6.57a17.2,17.2,0,0,1-2.67-4.65,2.69,2.69,0,0,1,2.67,4.65Zm5.93,9.93a22.17,22.17,0,0,1-4.75-2.43,2.69,2.69,0,0,1,3.51-1A2.75,2.75,0,0,1,218.24,135.35Zm.92-10.29a12.6,12.6,0,0,1-3.79-3.73,2.68,2.68,0,0,1,3.79,3.73ZM225,136.68a21.73,21.73,0,0,1-5.31-.84,2.79,2.79,0,0,1,3.06-2A2.69,2.69,0,0,1,225,136.68Zm-5.31-5.87a2.73,2.73,0,0,1,3.06-1.88,2.79,2.79,0,0,1,2.09,3A17.3,17.3,0,0,1,219.73,130.81ZM225.3,127a12.48,12.48,0,0,1-5.13-1.35A2.68,2.68,0,0,1,225.3,127Zm-5.82-6a9,9,0,1,1,12.75,0A9,9,0,0,1,219.48,120.94Zm9,3.17a2.68,2.68,0,0,1,3.15,1.51,12.45,12.45,0,0,1-5.13,1.37A2.68,2.68,0,0,1,228.43,124.11Zm-1.81,12.57a2.7,2.7,0,0,1,2.26-2.87,2.75,2.75,0,0,1,3,2A21.49,21.49,0,0,1,226.62,136.68Zm.21-4.78a2.79,2.79,0,0,1,2.09-3,2.73,2.73,0,0,1,3.06,1.88A17.3,17.3,0,0,1,226.83,131.9Zm5.75-6.85a2.68,2.68,0,0,1,3.77-3.74A12.57,12.57,0,0,1,232.58,125.05Zm.84,10.32a2.74,2.74,0,0,1,1.25-3.44,2.69,2.69,0,0,1,3.52,1A22.09,22.09,0,0,1,233.42,135.37Zm5.19-13.48a2.78,2.78,0,0,1,3.45-1.1,17.25,17.25,0,0,1-2.61,4.57A2.71,2.71,0,0,1,238.61,121.89Zm.86,10.12a2.68,2.68,0,0,1,3.79-3.78A21.87,21.87,0,0,1,239.47,132ZM244.2,127a2.67,2.67,0,0,1-1-3.52,2.83,2.83,0,0,1,3.47-1.28A21.93,21.93,0,0,1,244.2,127Zm2.94-6.29a2.78,2.78,0,0,1-2.08-3,2.68,2.68,0,0,1,2.91-2.25A21.81,21.81,0,0,1,247.14,120.66Zm-2.08-9.12a2.78,2.78,0,0,1,2.1-3,22.13,22.13,0,0,1,.81,5.25A2.69,2.69,0,0,1,245.06,111.54Z" transform="translate(-17 -19.69)"/><path d="M50.26,60.73a.25.25,0,0,0,0-.34l-6.7-6.7a.24.24,0,0,0-.35,0,.25.25,0,0,0,0,.34l6.7,6.7A.24.24,0,0,0,50.26,60.73Z" transform="translate(-17 -19.69)"/><path d="M71.91,39.07a.25.25,0,0,0,0-.35L65.22,32a.24.24,0,0,0-.34.34l6.68,6.68A.24.24,0,0,0,71.91,39.07Z" transform="translate(-17 -19.69)"/><path d="M47.34,62.89a.53.53,0,0,0,.75,0l1.24-1.24a.53.53,0,0,0,0-.75l-6.28-6.29a.54.54,0,0,0-.76,0l-1.24,1.24a.54.54,0,0,0,0,.76Zm-5.42-7.4a1.08,1.08,0,1,1,0,1.53A1.09,1.09,0,0,1,41.92,55.49Z" transform="translate(-17 -19.69)"/><circle cx="25.69" cy="36.56" r="0.74"/><path d="M72.84,38.15l1.24-1.24a.54.54,0,0,0,0-.75l-6.29-6.29a.54.54,0,0,0-.76,0l-1.24,1.24a.54.54,0,0,0,0,.75l6.29,6.29A.54.54,0,0,0,72.84,38.15Zm-4.65-5.87a1.07,1.07,0,0,1-1.53,0,1.08,1.08,0,1,1,1.53,0Z" transform="translate(-17 -19.69)"/><circle cx="50.42" cy="11.83" r="0.74"/><rect x="43.04" y="41.92" width="29.09" height="8.95" rx="0.5" transform="translate(-32.94 34.61) rotate(-45)"/><rect x="8.14" y="19.17" width="0.49" height="9.95" rx="0.24"/><path d="M24.6,39.4a.54.54,0,0,0-.54-.53H22.31a.53.53,0,0,0-.53.53v8.88a.53.53,0,0,0,.53.53h1.75a.54.54,0,0,0,.54-.53Zm-1.43,2a1.09,1.09,0,1,1,1.08-1.08A1.08,1.08,0,0,1,23.17,41.37Z" transform="translate(-17 -19.69)"/><path d="M23.17,39.55a.74.74,0,1,0,.74.74A.74.74,0,0,0,23.17,39.55Z" transform="translate(-17 -19.69)"/><path d="M26.13,39.88v7.94a.5.5,0,0,0,.5.5h19l9-9h-28A.52.52,0,0,0,26.13,39.88Z" transform="translate(-17 -19.69)"/><path d="M208.06,204.05c.68.59.44,1.32,0,2.62.27.2.55.4.84.58,1.05-.89,1.65-1.38,2.44-.95s.71,1.21.53,2.58l.94.39c.85-1.1,1.33-1.7,2.2-1.44s.94,1,1,2.4c.33.07.66.14,1,.19.6-1.24,1-1.93,1.85-1.86s1.14.81,1.53,2.13h.5l.51,0c.33-1.34.53-2.08,1.43-2.2s1.28.56,1.94,1.77c.33-.07.66-.15,1-.24.05-1.38.08-2.15.94-2.45s1.37.28,2.26,1.33l.92-.44c-.25-1.36-.37-2.12.4-2.6s1.4,0,2.49.83c.28-.2.54-.4.81-.62-.52-1.27-.8-2-.15-2.62s1.37-.3,2.61.29c.23-.25.45-.51.66-.77-.78-1.14-1.2-1.78-.68-2.53s1.27-.58,2.61-.26c.17-.29.33-.59.48-.89-1-.95-1.54-1.5-1.2-2.34s1.13-.83,2.51-.79c.1-.32.2-.64.29-1-1.18-.73-1.83-1.15-1.66-2s.92-1,2.28-1.3c0-.33.06-.67.08-1-1.3-.46-2-.74-2.05-1.65s.69-1.21,2-1.74c0-.34-.07-.67-.13-1-1.36-.18-2.13-.3-2.34-1.18s.42-1.33,1.56-2.11c-.1-.33-.22-.65-.34-1-1.37.1-2.15.15-2.54-.67-.28-.6-.08-1.06.41-1.65-1.14,1.24-2.3,2.46-3.46,3.67.16.37.31.75.44,1.13a.89.89,0,0,1-.79,1.19l-1.17,0-.78,0c-2.66,2.65-5.21,5-7.77,7.18a5.23,5.23,0,0,1-7.4-7.4c2-2.4,4.23-4.78,6.67-7.26,0-.46-.06-.92-.1-1.38,0,0,0-.06,0-.09l0-1.16a.88.88,0,0,1,1.13-.86,15,15,0,0,1,1.84.67c.93-.89,1.86-1.78,2.81-2.66-.66-.45-.57-1.2-.4-2.49-.31-.14-.62-.27-.94-.39-.84,1.1-1.32,1.7-2.2,1.44s-.94-1-1-2.41l-1-.18c-.6,1.24-.95,1.93-1.86,1.86s-1.13-.81-1.52-2.13h-.5l-.52,0c-.33,1.34-.52,2.08-1.42,2.2s-1.28-.56-1.94-1.77l-1,.23c0,1.39-.08,2.16-.93,2.46s-1.37-.28-2.27-1.33c-.31.14-.61.28-.92.44.25,1.36.38,2.12-.4,2.59s-1.39,0-2.49-.82c-.27.2-.54.4-.8.62.52,1.27.8,2,.14,2.62s-1.36.3-2.61-.3c-.22.26-.44.51-.66.78.78,1.14,1.2,1.78.69,2.53s-1.27.58-2.61.26c-.17.29-.34.59-.49.89,1,1,1.55,1.5,1.2,2.33s-1.12.83-2.5.8c-.11.32-.21.64-.29,1,1.17.73,1.82,1.14,1.66,2s-.93,1-2.28,1.29c0,.34-.07.68-.08,1,1.29.46,2,.74,2,1.64s-.69,1.22-2,1.75c0,.33.08.67.13,1,1.37.19,2.13.31,2.34,1.19s-.42,1.33-1.56,2.11c.11.33.22.64.34,1,1.38-.1,2.15-.15,2.54.67s-.13,1.39-1.08,2.39c.17.3.34.58.53.87,1.32-.39,2.07-.59,2.62.13s.16,1.38-.56,2.56c.23.25.46.5.7.74C206.68,203.82,207.37,203.46,208.06,204.05Zm26-14.74a1.94,1.94,0,1,1,3.87-.1,1.94,1.94,0,0,1-3.87.1Zm-15.94-15.19A1.94,1.94,0,1,1,222,174a1.94,1.94,0,0,1-3.87.1Zm4.62,31a1.94,1.94,0,1,1-2-1.88A1.93,1.93,0,0,1,222.71,205.15Zm1.59-11.75c3-.09,5.9-.24,8.8-.47h.05l1.17,0a.86.86,0,0,1,.86,1.09,15.48,15.48,0,0,1-9.76,10.2.9.9,0,0,1-1.18-.82l0-1.16s0,0,0,0C224.3,199.22,224.32,196.29,224.3,193.4Zm-18.63-8.21a15.4,15.4,0,0,1,9.69-10.1.86.86,0,0,1,1.14.8l0,1.17v.06h0q-.14,4.4-.1,8.7c-3,.09-5.88.23-8.77.46l-1.13,0A.87.87,0,0,1,205.67,185.19Zm-2.77,4.87a1.94,1.94,0,1,1,2,1.88A1.93,1.93,0,0,1,202.9,190.06Zm2.92,4.48a.87.87,0,0,1,.81-1.15l1.2,0h0q4.42.14,8.75.15.18,4.53.53,8.95l0,1.1a.86.86,0,0,1-1.1.85A15.4,15.4,0,0,1,205.82,194.54Z" transform="translate(-17 -19.69)"/><path d="M218,186.51a3.91,3.91,0,1,0,5.53,5.52h0c10.3-8.73,19.11-19.34,27.85-29.64a2.64,2.64,0,1,0-3.73-3.73C237.29,167.47,226.73,176.21,218,186.51Zm5.13,5a3.26,3.26,0,1,1,0-4.61A3.27,3.27,0,0,1,223.12,191.54Zm25.12-32.19a1.82,1.82,0,0,1,2.56,0,1.81,1.81,0,1,1-2.56,0Z" transform="translate(-17 -19.69)"/><path d="M219.22,187.6a2.26,2.26,0,1,0,3.2,0A2.27,2.27,0,0,0,219.22,187.6Z" transform="translate(-17 -19.69)"/><rect x="101.93" y="323.89" width="43.71" height="2.94" rx="0.7" transform="translate(-210.81 163.13) rotate(-45)"/><path d="M106.48,340.54a.22.22,0,0,0,0,.3l1.79,1.79a.21.21,0,0,0,.3,0,.22.22,0,0,0,0-.3l-1.79-1.78A.22.22,0,0,0,106.48,340.54Z" transform="translate(-17 -19.69)"/><path d="M105.74,341.28c-.08.08,0,.18,0,.26l1.78,1.79c.09.08.19.11.27,0s0-.18,0-.26L106,341.31A.18.18,0,0,0,105.74,341.28Z" transform="translate(-17 -19.69)"/><path d="M105,342a.22.22,0,0,0,0,.3l1.79,1.79a.21.21,0,0,0,.3,0,.22.22,0,0,0,0-.3L105.26,342A.22.22,0,0,0,105,342Z" transform="translate(-17 -19.69)"/><rect x="139.17" y="304.34" width="3.8" height="7.55" rx="0.7" transform="translate(-193.55 170.31) rotate(-45)"/><rect x="142.18" y="302.99" width="4.79" height="3.08" rx="0.7" transform="translate(-190 171.73) rotate(-45)"/><path d="M140.68,304.17a.69.69,0,0,0,1,.05l2.67-2.68a1.37,1.37,0,0,1,1.94-.05l1.38,1.37a1.42,1.42,0,0,1,0,2l-2.68,2.68a.64.64,0,0,0,0,.92l.06.06a.69.69,0,0,0,1,.06l3.21-3.2.08-.09a3.67,3.67,0,0,0,.74-1.86,2.76,2.76,0,0,0,0-.95c-.37-2.22,1-2.79,2-3.58a2,2,0,0,1,1.89-.36,3.09,3.09,0,0,0,3.17-.75l1.28-1.28a.86.86,0,0,0,0-1.19L157,294a3,3,0,0,0-3.92-.28h0l-7.58,4.55h0l-1,1-3.91,3.91a.64.64,0,0,0,0,.93Z" transform="translate(-17 -19.69)"/><path d="M413.89,97.66l-2.07-2.07-8.05,8s4.24-.35,4.52-.36Z" transform="translate(-17 -19.69)"/><path d="M414.45,97.15a.23.23,0,0,0,.33,0l.43-.42,3.17.87a.69.69,0,0,1,.33.19l.77.77.26.26.75.75a.69.69,0,0,1,.19.33l.82,3.11-.37.37a.33.33,0,0,0,0,.47l2.15,2.15a.32.32,0,0,0,.43,0l1.67-1.67a.3.3,0,0,0,0-.41l-1.8-1.8-.93-3.52h0l-1.35-1.35-.26-.26-1.37-1.38,0,0-3.5-.92-1.8-1.8a.28.28,0,0,0-.4,0l-1.65,1.65a.33.33,0,0,0,0,.46Z" transform="translate(-17 -19.69)"/><path d="M420.63,104.41,415,110c0,.34-.36,4.52-.36,4.52l8-8Z" transform="translate(-17 -19.69)"/><path d="M378.93,128.46a.21.21,0,0,1,0,.28l-1.62,1.62a.18.18,0,0,0,0,.25l1.49,1.49a.17.17,0,0,0,.25,0l1.62-1.62a.21.21,0,0,1,.28,0l.2.2a.15.15,0,0,0,.23,0l20.4-20.39a4.24,4.24,0,0,1,1.21-.84l.73-.34a1.67,1.67,0,0,0,.38-.25,16.53,16.53,0,0,0,1.77-1.78c.55-.71,1.71-2.36,4-1.46a2.24,2.24,0,0,1,.79.53l.75.74.73.73a2.22,2.22,0,0,1,.52.79c.9,2.33-.75,3.49-1.46,4a16.53,16.53,0,0,0-1.78,1.77,1.67,1.67,0,0,0-.25.38l-.34.72a4.27,4.27,0,0,1-.85,1.21l-20.39,20.4a.16.16,0,0,0,0,.24l.2.2a.2.2,0,0,1,0,.27l-1.62,1.62a.19.19,0,0,0,0,.26l1.49,1.49a.2.2,0,0,0,.27,0l1.62-1.62a.19.19,0,0,1,.26,0l.26.26a.2.2,0,0,0,.27,0l20.35-20.39a7.94,7.94,0,0,0,3.1-2.2l.14-1.81s.46-6.69.47-7-.53-1-.53-1l-1.41-1.41L411,104.4s-.64-.55-1-.53l-7,.47-1.81.14a7.94,7.94,0,0,0-2.2,3.1L378.67,128a.17.17,0,0,0,0,.25Z" transform="translate(-17 -19.69)"/><path d="M423.16,98.08l3-3.71.06-.06,2.56-2.56-2.21-2.21L424,92.1l-.07.06-3.73,3,1.49,1.49Z" transform="translate(-17 -19.69)"/><rect x="382.56" y="130.18" width="1.73" height="9.38" transform="translate(-0.07 290.93) rotate(-45)"/><rect x="376.35" y="128.41" width="2.3" height="1.02" rx="0.18" transform="translate(2.42 285.02) rotate(-45)"/><rect x="388.27" y="140.4" width="1.73" height="0.38" transform="translate(-2.47 296.58) rotate(-44.99)"/><path d="M69.77,182.47a9.25,9.25,0,0,1-6.19,11.22l1.87,7,5.75-1.56a.83.83,0,0,0,.62-.65l2.28-10.72a.78.78,0,0,0,0-.4L71,175.76a.86.86,0,0,0-.2-.36l-7.37-8.1a.87.87,0,0,0-.86-.26l-5.67,1.54,1.95,7.27A9.24,9.24,0,0,1,69.77,182.47Z" transform="translate(-17 -19.69)"/><circle cx="8.5" cy="165.97" r="1.97"/><circle cx="8.46" cy="178.35" r="1.97"/><path d="M26.21,193.31H22.89a.88.88,0,0,0-.87.88v7.34a.9.9,0,0,0,.88.89H30.7l28.19.08a.93.93,0,0,0,.23,0l4.94-1.34-1.88-7a9.24,9.24,0,0,1-4.78-17.84L55.46,169l-5.08,1.37L30.59,180.7a3.82,3.82,0,0,1-1.78.45H22.33a.84.84,0,0,0-.56.8v7.57a.87.87,0,0,0,.87.87h3.58a.86.86,0,0,1,.86.85v1.24A.84.84,0,0,1,26.21,193.31Zm6.27-4.51a3.11,3.11,0,0,1,1.65-2.74l4.92-2.57a3.09,3.09,0,0,1,4.52,2.84c0,.18,0,.36,0,.54A12.18,12.18,0,0,0,45,192.14a3.09,3.09,0,0,1-2.75,4.48H35.57a3.1,3.1,0,0,1-3.09-3.09Zm-7-.1a3,3,0,1,1,3-3A3,3,0,0,1,25.46,188.7Zm3.08,9.35a3,3,0,1,1-3-3A3,3,0,0,1,28.54,198.05Z" transform="translate(-17 -19.69)"/><path d="M248.75,404.37a30.92,30.92,0,0,0,.28-3.2h-.73v-1.64H249a28.56,28.56,0,0,0-.28-3.16l-.79.14-.28-1.61.79-.14a28.47,28.47,0,0,0-.83-3.08l-.76.27-.56-1.54.76-.28a29.26,29.26,0,0,0-1.35-2.89l-.7.4-.82-1.42.7-.4a30,30,0,0,0-1.84-2.62l-.61.52-1.06-1.26.62-.52a30,30,0,0,0-2.26-2.25l-.52.61L238,379.25l.52-.62a27.77,27.77,0,0,0-2.61-1.83l-.41.7-1.42-.82.4-.71a29.26,29.26,0,0,0-2.89-1.35l-.28.77-1.54-.57.28-.76a29.28,29.28,0,0,0-3.09-.83l-.14.81-1.62-.29.15-.8a27.65,27.65,0,0,0-3.17-.27v.72h-1.7v-.72a27.48,27.48,0,0,0-3.16.27l.15.8-1.62.29-.14-.81a28.47,28.47,0,0,0-3.08.83l.28.77-1.55.56-.28-.77a29.26,29.26,0,0,0-2.89,1.35l.41.71-1.43.82-.4-.7a27.91,27.91,0,0,0-2.62,1.83l.53.63-1.26,1.05-.53-.62a26.66,26.66,0,0,0-2.25,2.26l.62.52-1.06,1.26-.62-.52a27.77,27.77,0,0,0-1.83,2.61l.7.41-.82,1.43-.71-.41a29.26,29.26,0,0,0-1.35,2.89l.77.28-.56,1.55-.77-.28a26.31,26.31,0,0,0-.82,3.08l.8.14-.28,1.62-.81-.16a26.55,26.55,0,0,0-.27,3.16h.78v1.7h-.78a28,28,0,0,0,.28,3.18l.8-.15.28,1.62-.8.14a26.34,26.34,0,0,0,.83,3.08l.76-.27.57,1.54-.77.28a29.26,29.26,0,0,0,1.35,2.89l.71-.4.82,1.42-.7.4a27.91,27.91,0,0,0,1.83,2.62l.62-.52,1.06,1.26-.62.52a28.23,28.23,0,0,0,2.26,2.25l.52-.62,1.26,1.06-.52.62a27.77,27.77,0,0,0,2.61,1.83l.41-.7,1.42.82-.4.7a25.31,25.31,0,0,0,2.89,1.35l.28-.76,1.54.56-.27.76a26.34,26.34,0,0,0,3.08.83l.14-.8,1.62.29-.16.79a27.3,27.3,0,0,0,3.15.27v-.79h1.7v.79a26.71,26.71,0,0,0,3.18-.27l-.14-.79,1.61-.29.14.79a29.24,29.24,0,0,0,3.09-.82l-.28-.76,1.55-.56.27.75a27.14,27.14,0,0,0,2.89-1.35l-.4-.69,1.42-.83.4.7a28,28,0,0,0,2.62-1.84l-.52-.61,1.26-1,.51.61a28.35,28.35,0,0,0,2.26-2.26l-.61-.51,1.06-1.26.61.51a27.77,27.77,0,0,0,1.83-2.61l-.69-.4.82-1.43.69.4a24.54,24.54,0,0,0,1.35-2.89l-.75-.27.56-1.55.75.28a27,27,0,0,0,.83-3.09l-.79-.14.28-1.62Zm-.31-7.24.14,1.65-1.65.15-.14-1.65Zm-1-4.65.43,1.6-1.6.43-.43-1.6ZM243.18,384l.95,1.36-1.36.95-1-1.35ZM240,380.47l1.17,1.17L240,382.81l-1.17-1.17Zm-3.74-2.94,1.36,1-1,1.36-1.36-.95Zm-4.2-2.25,1.5.7-.69,1.5-1.51-.69Zm-4.52-1.48,1.6.43-.43,1.6-1.6-.43Zm-4.71-.68,1.65.15-.14,1.65-1.66-.14Zm-3.11,0,.15,1.65-1.65.15-.15-1.65Zm-4.71.69.43,1.6-1.6.43-.43-1.59Zm-4.52,1.5.71,1.5-1.5.71L209,376Zm-4.18,2.27.95,1.35-1.36.95-1-1.35Zm-3.74,3,1.18,1.17-1.17,1.17-1.18-1.17Zm-6.35,9.11.7-1.5,1.5.7-.7,1.5Zm-1.49,4.53.43-1.6,1.6.42-.42,1.6Zm-.67,4.71.14-1.65,1.65.14-.14,1.65Zm.15,4.76-.14-1.66,1.65-.14.14,1.65Zm1,4.65-.43-1.6,1.6-.43.43,1.6Zm1.77,4.42-.7-1.5,1.5-.7.7,1.5Zm2.45-28.62,1.36.95-1,1.35-1.36-.94Zm.06,32.66-.95-1.35,1.36-1,1,1.35Zm3.18,3.55-1.17-1.17,1.16-1.17,1.18,1.17Zm3.74,2.94L205,422.3l.95-1.36,1.36.95Zm4.2,2.25-1.5-.7.69-1.5,1.51.69Zm4.52,1.48-1.6-.43.43-1.6,1.6.43Zm4.71.67-1.65-.14.14-1.65L220,426Zm3.11,0-.15-1.65,1.65-.15.15,1.65Zm4.71-.69-.43-1.6,1.6-.44.43,1.6Zm4.52-1.5-.71-1.51,1.5-.7.71,1.5Zm4.18-2.27-1-1.35,1.36-.95.95,1.35Zm3.74-2.95-1.18-1.17,1.17-1.17,1.18,1.17ZM221.32,423a22.61,22.61,0,1,1,22.6-22.61A22.61,22.61,0,0,1,221.32,423Zm21.92-6.31-1.36-.95,1-1.36,1.36.95Zm.95-27.92,1.5-.7.7,1.5-1.5.7Zm2.24,22.37-.7,1.5-1.5-.7.7-1.5Zm1.48-4.53-.42,1.6-1.6-.42.42-1.6Zm-1.11-3.2.14-1.65,1.65.14-.14,1.65Z" transform="translate(-17 -19.69)"/><path d="M241.37,392a21.83,21.83,0,0,0-11.57-11.57,21.93,21.93,0,0,0-16.93,0A22,22,0,0,0,206,385a21.75,21.75,0,0,0,0,30.75,22,22,0,0,0,6.91,4.66,21.76,21.76,0,0,0,28.5-28.5Zm-20,28.94a20.48,20.48,0,1,1,20.48-20.48A20.49,20.49,0,0,1,221.34,420.89Z" transform="translate(-17 -19.69)"/><path d="M218.93,295.13a2.44,2.44,0,0,0-1.64.85,4.32,4.32,0,0,1,1,1,16.19,16.19,0,0,1,2.29,4.72,62.93,62.93,0,0,1,0,33.86,16.19,16.19,0,0,1-2.29,4.72,4.32,4.32,0,0,1-1,1,2.42,2.42,0,0,0,1.64.84c1.51,0,3.27-2.43,4.57-6.36a63.87,63.87,0,0,0,0-34.26C222.2,297.57,220.44,295.13,218.93,295.13Z" transform="translate(-17 -19.69)"/><path d="M216.58,344.06a7.32,7.32,0,0,1-1.89-1.75,19.14,19.14,0,0,1-2.84-5.72,66.53,66.53,0,0,1,0-35.92,19,19,0,0,1,2.84-5.72,7,7,0,0,1,1.89-1.75,4.37,4.37,0,0,1,2.35-.7h.17a5,5,0,0,0-2.44-.65c-2.2,0-5.32,1.5-7.68,8.61a67,67,0,0,0,0,36.33c2.36,7.12,5.48,8.62,7.68,8.62a5,5,0,0,0,2.44-.65h-.17A4.37,4.37,0,0,1,216.58,344.06Z" transform="translate(-17 -19.69)"/><path d="M395.92,331.85a8.17,8.17,0,0,1-5.31,2.3,10.78,10.78,0,0,1-6.88-2.7,1.85,1.85,0,0,1-.57-2.19c.38-.88.43-1.61,0-2-.74-.74-2.79.11-4.57,1.9s-2.64,3.84-1.91,4.58c.41.41,1.21.33,2.15-.11a1.84,1.84,0,0,1,2,.27c3.24,2.72,6.54,4.05,9.85,4a11.84,11.84,0,0,0,7.93-3.48l29.72-35L396,331.77Z" transform="translate(-17 -19.69)"/><path d="M394.1,331.85a8.14,8.14,0,0,1-5.31,2.3,10.77,10.77,0,0,1-6.87-2.7,1.84,1.84,0,0,1-.58-2.19c.39-.88.43-1.61.05-2-.74-.74-2.79.11-4.58,1.9s-2.64,3.84-1.9,4.58c.41.41,1.21.33,2.14-.11a1.84,1.84,0,0,1,2,.27c3.24,2.72,6.55,4.05,9.85,4a11.81,11.81,0,0,0,7.93-3.48l29.73-35-32.38,32.37Z" transform="translate(-17 -19.69)"/><path d="M323.5,315.62h-9.33c-.38,0-.75-.38-1.07-.59s-.7-.6-1.08-.6H299.53a1.72,1.72,0,0,1-.72-.07l-3.26-1.28c-.09,0-.18.16-.28.16H294c-.39,0-.88,0-.88.41v3.43l2.38.62v2l-2.38.62v3.43c0,.43.49.2.88.2h1.3c.1,0,.19.27.28.23l3.26-1.38a1.57,1.57,0,0,1,.72,0H312c.38,0,1.31-.09,1.31-.3v-.27c0-.21.46-.62.84-.62h9.33c.4,0,.54.24.54-.19V316C324,315.59,323.9,315.62,323.5,315.62Z" transform="translate(-17 -19.69)"/><path d="M326.38,320.86a2.05,2.05,0,0,1-.54-1,1.89,1.89,0,0,0-.53-1l-8.84-8.84a1.6,1.6,0,0,1-.39-.62l-1.24-3.37a.61.61,0,0,0-.15-.24l-.92-.92a.75.75,0,0,0-1.06.05l-2.42,2.43.82,1.69-1.41,1.42-1.7-.83-2.43,2.43a.77.77,0,0,0-.05,1.06l.92.92a.75.75,0,0,0,.24.15l3.37,1.23a1.88,1.88,0,0,1,.63.4l8.83,8.84a2.33,2.33,0,0,0,1,.54h0a1.82,1.82,0,0,1,1,.53l6.6,6.6a.76.76,0,0,0,1.06-.05l3.79-3.79a.76.76,0,0,0,.05-1.06Z" transform="translate(-17 -19.69)"/><path d="M296.82,334.1h5.36c.43,0,.43-.18.43-.58v-9.33c0-.38.39-.75.6-1.08s.59-.69.59-1.07V309.55a1.72,1.72,0,0,1,.06-.72l1.29-3.26c0-.09-.16-.18-.16-.28V304c0-.39,0-.83-.44-.83h-3.43l-.62,2.38h-2l-.62-2.38h-3.43c-.43,0-1.36.44-1.36.83v1.3c0,.1.31.19.35.28l1.69,3.26c.11.22.34.47.34.72V322c0,.38.09.16.29,1.35h-.31c.21,0,0,.42,0,.8v9.33C295.47,333.92,296.39,334.1,296.82,334.1Z" transform="translate(-17 -19.69)"/><path d="M413.27,393.89l-2,2.05c.17.3.33.59.48.9a2.73,2.73,0,0,1-1.88,3.91,1,1,0,0,1,.6-.95l-.18-.48a1,1,0,0,1-1.23-.52,1,1,0,0,1-.08-.5l-1.85,1.9c.14.3.26.62.37.93l-1.15.18c0-.07-.05-.15-.08-.22l-8.55,8.81-1,.8a5.6,5.6,0,0,1-3.06.88,5.64,5.64,0,0,1-2.15-.42,5.75,5.75,0,0,1-3.15-7.48,5.89,5.89,0,0,1,1.26-1.9l8.81-8.54.16-1,.64.24,1.82-1.76-.15-.06a1,1,0,0,1-.51-1.22l-.49-.19a1,1,0,0,1-.93.61,2.73,2.73,0,0,1,3.91-1.88l.64.34q1.07-1,2.16-2.1a1.37,1.37,0,0,1,.05-1.12l-.61-.34a1.34,1.34,0,0,1-2.41-1.12l-.66-.25a1.33,1.33,0,0,1-2.53-.78l-.69-.16a1.33,1.33,0,0,1-2.62-.41l-.7-.06a1.33,1.33,0,0,1-2.65-.05l-.71,0a1.33,1.33,0,0,1-2.63.32l-.7.14a1.33,1.33,0,0,1-2.56.68l-.67.23a1.33,1.33,0,0,1-.75,1.63,1.34,1.34,0,0,1-1.69-.59l-.63.32a1.33,1.33,0,0,1-2.27,1.36l-.58.41a1.32,1.32,0,0,1-.27,1.77,1.35,1.35,0,0,1-1.79-.1l-.51.48a1.34,1.34,0,0,1,0,1.79,1.33,1.33,0,0,1-1.78.15l-.45.55a1.33,1.33,0,0,1-1.52,2.17l-.36.61a1.33,1.33,0,0,1-1.21,2.36l-.27.65a1.34,1.34,0,0,1-.87,2.51l-.18.68a1.33,1.33,0,0,1-.5,2.6l-.09.7a1.33,1.33,0,0,1-.13,2.65c0,.24,0,.47,0,.71a1.33,1.33,0,0,1,.23,2.64c0,.23.07.46.11.7a1.31,1.31,0,0,1,1.46,1,1.33,1.33,0,0,1-.87,1.56l.21.68a1.33,1.33,0,0,1,.95,2.47c.09.22.19.43.3.64a1.33,1.33,0,0,1,1.28,2.32l.39.59a1.33,1.33,0,0,1,1.6,2.12c.15.18.3.36.46.53a1.33,1.33,0,0,1,1.87,1.88l.54.46a1.33,1.33,0,0,1,2.11,1.6l.59.38a1.33,1.33,0,0,1,2.32,1.29l.64.3a1.33,1.33,0,0,1,2.48,1l.68.2a1.33,1.33,0,0,1,2.58.6l.7.11a1.32,1.32,0,0,1,1.42-1.08A1.33,1.33,0,0,1,393,430h.7a1.35,1.35,0,0,1,1.27-1.27,1.33,1.33,0,0,1,1.38,1.13l.7-.08a1.34,1.34,0,0,1,2.61-.51c.23,0,.45-.11.68-.18a1.33,1.33,0,0,1,2.51-.86l.65-.28a1.33,1.33,0,0,1,2.36-1.2l.61-.36a1.32,1.32,0,0,1,.39-1.75,1.34,1.34,0,0,1,1.78.22l.54-.44a1.33,1.33,0,0,1,.16-1.78,1.31,1.31,0,0,1,1.78,0c.17-.17.33-.35.48-.52a1.32,1.32,0,0,1-.09-1.78,1.34,1.34,0,0,1,1.77-.28c.13-.19.27-.38.4-.58a1.33,1.33,0,0,1,1.37-2.27c.11-.21.22-.42.32-.63a1.33,1.33,0,0,1,1-2.44c.07-.22.15-.44.22-.67a1.33,1.33,0,0,1,.69-2.56c.05-.23.09-.46.13-.69a1.33,1.33,0,0,1,.32-2.63c0-.24,0-.47,0-.71a1.33,1.33,0,0,1,0-2.65c0-.24,0-.47-.07-.7a1.33,1.33,0,0,1-.41-2.62c0-.23-.1-.46-.16-.69a1.33,1.33,0,0,1-.77-2.54l-.25-.66a1.33,1.33,0,0,1-1.12-2.4c-.11-.21-.23-.41-.35-.62A1.33,1.33,0,0,1,413.27,393.89Zm-21,4.35a2.74,2.74,0,0,1-3.94,2L385.72,399c.16-.19.33-.38.51-.56a10.64,10.64,0,0,1,6.47-3.07Zm.91-5.7h-.27a.74.74,0,0,1-1.47.18l-.39.08a.73.73,0,0,1-.54.84.74.74,0,0,1-.88-.46l-.38.13a.73.73,0,0,1-.42.9.74.74,0,0,1-.94-.33l-.35.18a.75.75,0,0,1-1.27.77l-.32.22a.74.74,0,0,1-1.15.93l-.28.27a.76.76,0,0,1,0,1,.74.74,0,0,1-1,.08c-.09.1-.17.21-.25.31l0,.05-1.08-.55a15.29,15.29,0,0,1,1.31-1.5,14.47,14.47,0,0,1,9.82-4.25Zm4.17-.52a1.4,1.4,0,0,1-1.6,1.16,1.39,1.39,0,1,1,1.6-1.16Zm-18-.3,0,0a20.15,20.15,0,0,1,11.2-5.71,2.74,2.74,0,0,1,3.15,3,1,1,0,0,1-.6-.83l-.53,0a1,1,0,0,1-1.95.23l-.51.1a1,1,0,0,1-1.9.51l-.49.17a1,1,0,0,1-1.81.77l-.46.23a1,1,0,0,1-.38,1.27,1,1,0,0,1-1.3-.26l-.43.31a1,1,0,0,1-1.53,1.23l-.38.36a1,1,0,0,1-1.34,1.43l-.33.41a1,1,0,0,1,.28,1.11h0A2.7,2.7,0,0,1,379.32,391.72Zm.28,7.14a1.4,1.4,0,1,1,.61,1.87A1.4,1.4,0,0,1,379.6,398.86Zm3.74,4.87,2.53,1.28a2.74,2.74,0,0,1,.69,4.38l-2,2A10.67,10.67,0,0,1,383.34,403.73Zm-3.54-1.81,1,.52-.06.22a.73.73,0,0,1,.51.85.74.74,0,0,1-.79.6c0,.13,0,.26-.05.39a.74.74,0,0,1-.08,1.48c0,.13,0,.26,0,.39a.73.73,0,0,1,.73.68.74.74,0,0,1-.6.79l.06.39a.74.74,0,0,1,.33,1.44l.11.38a.74.74,0,0,1,.53,1.38l.17.36a.74.74,0,0,1,.72,1.29l.18.28-.8.81A14.55,14.55,0,0,1,379.8,401.92Zm4.68,13.31a1.39,1.39,0,1,1-2,2,1.39,1.39,0,0,1,2-2Zm-8.85,0a20.34,20.34,0,0,1-2-12.47,2.75,2.75,0,0,1,3.94-2,1,1,0,0,1-1,.29c0,.17-.09.34-.13.5a1,1,0,0,1,.68,1.14,1,1,0,0,1-1.05.79c0,.17-.05.35-.07.52a1,1,0,0,1,.84,1,1,1,0,0,1-.94.93c0,.17,0,.35,0,.52a1,1,0,0,1,.17,2c0,.17.05.34.08.51a1,1,0,0,1,.44,1.92l.15.5A1,1,0,0,1,378,412a1,1,0,0,1-.48,1.24c.07.16.14.32.22.47a1,1,0,0,1,.95,1.72c.09.15.19.3.29.44a1,1,0,0,1,1.08,0L380,416A2.74,2.74,0,0,1,375.63,415.28Zm21.27,10.77a20.26,20.26,0,0,1-12.43-1.94,2.73,2.73,0,0,1-.69-4.37l.06-.06a1,1,0,0,1,0,1.06l.43.28a1,1,0,0,1,1.71,1l.48.22a1,1,0,0,1,1.83.7l.5.16a1,1,0,0,1,1.91.44l.52.08a1,1,0,0,1,1.95.17h.53a1,1,0,0,1,2-.11l.51-.06a1,1,0,0,1,.8-1.06,1,1,0,0,1,1.13.69l.51-.14a1,1,0,0,1,.28-.95A2.73,2.73,0,0,1,396.9,426.05Zm.9-6.13a14.62,14.62,0,0,1-12.23-2l.8-.81a2.73,2.73,0,0,1,.26.17.75.75,0,0,1,1-.24.75.75,0,0,1,.32.95l.36.16a.74.74,0,0,1,1.38.53l.37.12a.74.74,0,0,1,1.44.33l.39.06a.74.74,0,0,1,.8-.6.75.75,0,0,1,.68.73h.39a.75.75,0,0,1,1.48-.07l.39,0a.74.74,0,0,1,.6-.8.75.75,0,0,1,.85.52l.22-.05Zm-9.43-4.78,2-2a2.73,2.73,0,0,1,4.37.68l1.29,2.53A10.79,10.79,0,0,1,388.37,415.14Zm13.09,3.09a1.39,1.39,0,1,1-1.87-.61A1.4,1.4,0,0,1,401.46,418.23ZM406.53,404a1.39,1.39,0,1,1,1.59,1.16A1.39,1.39,0,0,1,406.53,404Zm-7.08,7.44a2.74,2.74,0,0,1,2-3.94l2.93-.47a10.62,10.62,0,0,1-3.07,6.46c-.18.18-.37.35-.56.52Zm2.54,5a.23.23,0,0,1,.07.07l.3-.25a.74.74,0,0,1,.09-1,.73.73,0,0,1,1,0l.27-.29a.74.74,0,0,1,0-1,.75.75,0,0,1,1-.16,3.71,3.71,0,0,0,.23-.32.74.74,0,0,1-.19-1,.73.73,0,0,1,.95-.28l.18-.36a.74.74,0,0,1-.33-.94.76.76,0,0,1,.91-.42c0-.12.09-.24.13-.37a.74.74,0,0,1-.46-.89.75.75,0,0,1,.84-.54c0-.13.05-.26.07-.38a.74.74,0,0,1,.18-1.47c0-.09,0-.17,0-.26l1.14-.18a14.47,14.47,0,0,1-4.25,9.82,16.74,16.74,0,0,1-1.5,1.31Zm11.72-7.25A20.12,20.12,0,0,1,408,420.35l0,0a2.7,2.7,0,0,1-4.32-.69v0a1,1,0,0,1,1.11.27l.41-.33a1,1,0,0,1,1.44-1.34c.12-.12.24-.25.35-.38a1,1,0,0,1-.07-1.32,1,1,0,0,1,1.31-.2l.3-.43a1,1,0,0,1-.26-1.3,1,1,0,0,1,1.27-.38l.24-.47a1,1,0,0,1,.77-1.8l.17-.5a1,1,0,0,1,.5-1.9c0-.17.07-.34.1-.51a1,1,0,0,1,.24-1.95l0-.52a1,1,0,0,1-.83-.59A2.74,2.74,0,0,1,413.71,409.17Z" transform="translate(-17 -19.69)"/><path d="M427.65,371.87a3.77,3.77,0,0,0-5.33,0l-31.81,30.8a4.48,4.48,0,0,0,6.3,6.36h0l30.83-31.82a3.75,3.75,0,0,0,0-5.33Zm-30.08,34a3.89,3.89,0,0,1-3.89,3.89,3.89,3.89,0,1,1,2.75-6.64A3.83,3.83,0,0,1,397.57,405.84Zm28.89-30.21a2,2,0,1,1,0-2.79A2,2,0,0,1,426.46,375.63Z" transform="translate(-17 -19.69)"/><path d="M391.58,403.74a3,3,0,1,0,4.19,0A3,3,0,0,0,391.58,403.74Z" transform="translate(-17 -19.69)"/></svg>