<svg id="Vrstva_1" data-name="Vrstva 1" xmlns="http://www.w3.org/2000/svg" viewBox="0 0 72.24 72.24"><path d="M63.77,15.24,62.34,9l-.41-1.73a2.29,2.29,0,0,0-2.1-2H43.26a2.12,2.12,0,0,0-1.92,1.4L36.79,17.09a3.35,3.35,0,0,0-.28,1.34V22.2a3.36,3.36,0,0,0,.28,1.35L41.34,34a2.19,2.19,0,0,0,1.92,1.45H59.83a2.35,2.35,0,0,0,2.1-2l.4-1.78,1.44-6.28a4,4,0,0,0,.08-.78V16A3.94,3.94,0,0,0,63.77,15.24ZM40.11,17.18l3.36-7.66A.81.81,0,0,1,44.21,9h7.85a.68.68,0,0,1,.62.95l-3.12,7.15a4.43,4.43,0,0,0-.18.55.69.69,0,0,1-.66.52h-8A.7.7,0,0,1,40.11,17.18Zm12,14.52H44.21a.85.85,0,0,1-.74-.56l-3.35-7.66a.68.68,0,0,1,.62-.95h8a.67.67,0,0,1,.66.5,4.12,4.12,0,0,0,.18.53l3.12,7.17A.69.69,0,0,1,52.06,31.7Zm8.83-11.38v4a1,1,0,0,1,0,.3l-1.42,6.28a.93.93,0,0,1-.82.79H57a.85.85,0,0,1-.74-.56l-3.9-8.93a1.33,1.33,0,0,1-.12-.53,4.7,4.7,0,0,1,0-2.73,1.32,1.32,0,0,1,.12-.52l3.9-8.92A.81.81,0,0,1,57,9h1.62a.88.88,0,0,1,.81.76L60.85,16a1,1,0,0,1,0,.29Z"/><rect x="30.72" y="18.68" width="2.49" height="3.37" rx="0.39"/><rect x="33.91" y="17.97" width="1.89" height="4.91" rx="0.39"/><path d="M34.22,29.41A2.18,2.18,0,0,0,32.3,28H15.74a2.35,2.35,0,0,0-2.11,2l-.4,1.77L11.8,38a3.39,3.39,0,0,0-.08.78v8.61a3.3,3.3,0,0,0,.08.77l1.43,6.28.4,1.74a2.31,2.31,0,0,0,2.11,2H32.3a2.13,2.13,0,0,0,1.92-1.41l4.56-10.45A3.35,3.35,0,0,0,39.06,45V41.23a3.35,3.35,0,0,0-.28-1.34ZM23.51,31.7h7.84a.87.87,0,0,1,.74.58L35.44,40a.69.69,0,0,1-.62,1h-8a.68.68,0,0,1-.66-.52,4.72,4.72,0,0,0-.18-.53l-3.12-7.19A.71.71,0,0,1,23.51,31.7Zm-4.2,22.23a.82.82,0,0,1-.74.55H17a.89.89,0,0,1-.81-.77l-1.43-6.28a1.36,1.36,0,0,1,0-.29v-8a1.53,1.53,0,0,1,0-.3l1.43-6.31a.92.92,0,0,1,.81-.8h1.62a.85.85,0,0,1,.74.58l3.9,8.94a1.37,1.37,0,0,1,.12.53,4.74,4.74,0,0,1,0,2.74,1.32,1.32,0,0,1-.12.52Zm16.14-7.67L32.1,53.93a.85.85,0,0,1-.75.55H23.51a.68.68,0,0,1-.63-1L26,46.36a4.27,4.27,0,0,0,.18-.54.68.68,0,0,1,.66-.51h8A.68.68,0,0,1,35.45,46.26Z"/><rect x="42.37" y="41.4" width="2.49" height="3.37" rx="0.39"/><rect x="39.83" y="40.63" width="1.89" height="4.91" rx="0.39"/></svg>