<svg id="Vrstva_1" data-name="Vrstva 1" xmlns="http://www.w3.org/2000/svg" viewBox="0 0 72.24 72.24"><path d="M49.59,27.59v0Z"/><path d="M49.61,27.65l0-.06S49.62,27.69,49.61,27.65Z"/><path d="M62.62,21.48a3.49,3.49,0,0,0-2.31-.34c-.29.06-.57.15-.86.23L55,22.61l-3.67,1a2.19,2.19,0,0,0-.49.17c-.28.13-.31.39-.39.66-.23.74-.47,1.47-.7,2.2a1.6,1.6,0,0,0-.09,1c.14.44.56.68.91.94a1.64,1.64,0,0,1,.41.38,1.45,1.45,0,0,1,.2.93c0,1.52,0,3,0,4.57s0,3,0,4.52a2.11,2.11,0,0,0,.39,1.55,1.13,1.13,0,0,0,1,.3c.7-.09,1.4-.21,2.09-.32a1.94,1.94,0,0,0,.89-.24,1.62,1.62,0,0,0,.42-.55q2.18-3.49,4.36-7c1.18-1.86,2.36-3.71,3.57-5.55a3.63,3.63,0,0,0,.68-1.84,4.65,4.65,0,0,0-.32-1.6A3.79,3.79,0,0,0,62.62,21.48Z"/><path d="M49.58,27.57Z"/><polygon points="64.48 25.31 64.48 25.32 64.48 25.31 64.48 25.31"/><path d="M53.53,50.05v0a5.21,5.21,0,0,1-3.17,3.48c-2.07.64-6.11,1.54-7.36,1.82a.39.39,0,0,0-.3.46L43,57.61a.4.4,0,0,0,.45.32,2.5,2.5,0,0,1,2.36.64c.82,1.08,3.86,5.52,7.61,6.09s5.09.63,8.11-.65a.39.39,0,0,0,.2-.18l3.31-6.25a.45.45,0,0,0,0-.2l-.56-13.92a.38.38,0,0,0-.07-.21,11.64,11.64,0,0,0-1.27-1.55c-.69-.7-.06-2.22,1.4-3.93,1.23-1.45,3.89-7.12.92-11.63a5.15,5.15,0,0,1-.8,1.62c-.91,1.3-5.24,8.22-7.16,11.31Zm8.19,8.33c-.51,1.22-1.38,3.07-1.63,3.59a.36.36,0,0,1-.22.2,9.16,9.16,0,0,1-11.44-4.43l0-.07a1.33,1.33,0,0,1,1.1-1.83c1.36-.34,3.44-.82,4.2-1a.41.41,0,0,1,.42.18c.42.66,1.81,2.36,4.3.73a.41.41,0,0,1,.34,0l2.55.79.08,0C61.57,56.65,62.23,57.13,61.72,58.38Zm-1-15.27a2.08,2.08,0,0,0,.84,2.41.84.84,0,0,1,.3,1s-.21,0-.21,0V53c0,.93-.54.77-.54.77l-1.64-.46c-.14,0-.2-.14-.23-.28a3.22,3.22,0,0,0-2.53-2.15.39.39,0,0,1-.28-.49c.42-1.58,1.9-7.16,2.23-8S61.08,41.93,60.73,43.11Z"/><path d="M59.62,47.3a1.54,1.54,0,0,1-.43-2.06c-.25-.09-.4-.17-.66-.24-.34,1.2-.71,2.78-1.2,4.63a4.29,4.29,0,0,1,3.13,3.13V47.43C60.47,47.57,60,47.53,59.62,47.3Z"/><path d="M47.86,50.66a9.37,9.37,0,0,0-.39,1.47,1.62,1.62,0,0,1,1.38,1.11c.47-.13.91-.25,1.29-.37a4.47,4.47,0,0,0,2.68-3l0-.09,1.82-4.94a9.07,9.07,0,0,0-1.38.38,1.6,1.6,0,0,1-2.76,1.59,8.4,8.4,0,0,0-1.07,1.08,1.6,1.6,0,0,1-1.6,2.75Z"/><path d="M61.05,57.18l-1.66-.51a4.23,4.23,0,0,1-6.72-.85c-.93.22-2.11.49-3,.72a1.15,1.15,0,0,0-.5.23A1.61,1.61,0,0,1,50,58.83a9.38,9.38,0,0,0,1.17,1.25,1.61,1.61,0,0,1,2.25,1.39,7.52,7.52,0,0,0,1.56.44,1.6,1.6,0,0,1,2.73,0,10.05,10.05,0,0,0,1.54-.32,1.6,1.6,0,0,1,.8-1.46l.11-.06c.31-.66.64-1.41.88-2S61.24,57.32,61.05,57.18Z"/><path d="M48.57,26.26c.21-.66.41-1.32.62-2-1.1-.15-2.21-.29-3.31-.45a1.67,1.67,0,0,0-.79.16l-1.35.49L39.48,26,35.4,27.46l-1.15.41a6.34,6.34,0,0,0-.82.42,5.89,5.89,0,0,1-3.16.65c-.73-.06-1.41-.29-2.16-.28a8.5,8.5,0,0,0-2.06.32c-.14,0-.09,0-.09.16V42.83c0-.07,1.07-.39,1.62-.61a1.76,1.76,0,0,0,1-.69c.11-.17.13-.36.26-.53a2.22,2.22,0,0,1,.64-.5A6.22,6.22,0,0,1,31.12,40c.79-.17,1.57-.48,2.35-.73a89.64,89.64,0,0,1,8.81-2.56,13.21,13.21,0,0,1,1.87-.29c.3,0,.78-.07,1,.16a4.28,4.28,0,0,0,2,.81,20.82,20.82,0,0,0,2.72.44c0-2.45,0-4.87.07-7.32,0-.27,0-.55,0-.83a.5.5,0,0,0-.26-.42,7.31,7.31,0,0,1-.82-.65,1.85,1.85,0,0,1-.46-1.65C48.42,26.7,48.5,26.48,48.57,26.26Zm-1.94,4.22a1.22,1.22,0,0,1-.44.64c-.29.22-.46.44-.75.66a.61.61,0,0,1-.64.14l-.63-.2L41.9,31c-.45-.13-1.48-.24-1.91-.42s-.94-.4-.94-.7h0c0-.58,1.46-.84,2-1s1.48-.44,2.09-.66,1.54-.52,2.25-.78c.43-.16,1.23-.48,1.6-.08.08.09-.33.18-.33.29,0,.3-.43.61-.43.91v1.19C46.19,30,46.69,30.26,46.63,30.48ZM39.05,30Zm0,0Zm0-.08Z"/><circle cx="20.36" cy="15.66" r="1.87"/><path d="M26.36,25.91c.34,0-.29-1.69-1.75-2a1.14,1.14,0,0,1-.89-.9l-.16-.8a1.18,1.18,0,0,1,.1-.74,1.32,1.32,0,0,1,.74-.66c.82-.31,2-1,.76-2a2.61,2.61,0,0,1-.85-2A3.68,3.68,0,0,0,24.4,16a4,4,0,1,0-6.89,2.76,3.85,3.85,0,0,1,.61,3.41c-.23.76-.47,1.56-.68,2.28a4.84,4.84,0,0,1,6.7.14,4.73,4.73,0,0,1,1.19,1.94A2.82,2.82,0,0,1,26.36,25.91Zm-6-7.67A2.59,2.59,0,1,1,23,15.66,2.59,2.59,0,0,1,20.36,18.24Z"/><path d="M20.7,25.88a1.87,1.87,0,1,0,1.87,1.87A1.87,1.87,0,0,0,20.7,25.88Z"/><path d="M20.72,23.9A4.12,4.12,0,0,0,16.6,28c0,.12,0,.23,0,.33a.49.49,0,0,0,0,.12l0,3.07a4.75,4.75,0,0,0,1.12,3.1l7.12,8.42,0-14.59a.41.41,0,0,0,0-.11c0-.11,0-.22,0-.34A4.12,4.12,0,0,0,20.72,23.9Zm0,6.43a2.59,2.59,0,1,1,2.59-2.58A2.59,2.59,0,0,1,20.7,30.33Z"/></svg>