<svg id="Vrstva_1" data-name="Vrstva 1" xmlns="http://www.w3.org/2000/svg" viewBox="0 0 72.24 72.24"><path d="M63.36,12v-.59a39.48,39.48,0,0,0-12,3,39.94,39.94,0,0,0-6.87,3.71,40.69,40.69,0,0,0-6,4.92,40.11,40.11,0,0,0-11.8,28.47h.69A39.62,39.62,0,0,1,63.36,12Z"/><path d="M59.24,15a.82.82,0,0,1,.22,0,.91.91,0,0,1,.75.44c1-.19,2-.34,3.15-.45V13a38.75,38.75,0,0,0-35,38.56H30.2c0-1,0-2,.12-3a.85.85,0,0,1-.51-.89.86.86,0,0,1,.69-.76A35.16,35.16,0,0,1,31.75,41a.83.83,0,0,1-.26-.3l-.06-.13,0-.13a.57.57,0,0,1,0-.13V40.2a1.55,1.55,0,0,1,0-.21.56.56,0,0,1,.09-.19l0-.06a.67.67,0,0,1,.14-.15.88.88,0,0,1,.56-.21A36.56,36.56,0,0,1,34,35.2c.23-.45.46-.9.7-1.34a.44.44,0,0,1-.08-.11.85.85,0,0,1-.13-.31,1,1,0,0,1,0-.34,1.39,1.39,0,0,1,.1-.26.91.91,0,0,1,.74-.44l.2,0c.46-.75,1-1.49,1.46-2.21l.45-.61-.45.61c-.51.72-1,1.46-1.46,2.21h0a38.09,38.09,0,0,1,3.56-4.88.88.88,0,0,1,.1-1,.9.9,0,0,1,.68-.29,1,1,0,0,1,.34.08h0a37.32,37.32,0,0,1,4.48-4,.88.88,0,0,1,.32-1,.85.85,0,0,1,.52-.17.87.87,0,0,1,.51.17,37.49,37.49,0,0,1,5.22-3h0a34.75,34.75,0,0,0-5.24,3h0a34.75,34.75,0,0,1,5.24-3h0a.85.85,0,0,1,.52-.89.8.8,0,0,1,.33-.08.88.88,0,0,1,.67.29,36.8,36.8,0,0,1,5.75-1.87A.86.86,0,0,1,59.24,15ZM38.15,28.7l.47-.58ZM45,21.28a.88.88,0,0,0-.32,1c-.5.38-1,.78-1.47,1.18s-1,.83-1.41,1.26q.69-.64,1.41-1.26c.48-.4,1-.8,1.47-1.18a.88.88,0,0,1,.32-1,.85.85,0,0,1,.52-.17h0A.85.85,0,0,0,45,21.28Zm6.77-3.91a1,1,0,0,0-.28.2,1,1,0,0,1,.28-.2.84.84,0,0,1,.34-.08h0A.84.84,0,0,0,51.8,17.37Z"/><path d="M13.47,35.87A40,40,0,0,0,10.3,51.54h.59a39.72,39.72,0,0,1,39.7-39.68c.78,0,1.55,0,2.32.07.48-.17,1-.33,1.43-.48q-1.86-.18-3.75-.18a40,40,0,0,0-15.68,3.17A40.33,40.33,0,0,0,13.47,35.87Z"/><path d="M28.59,21.28a.89.89,0,0,1,1,0,37.14,37.14,0,0,1,5.24-3,.87.87,0,0,1,1.51-.68,36.41,36.41,0,0,1,5.75-1.86.88.88,0,0,1,1.63-.35c.82-.15,1.65-.28,2.49-.38a43.21,43.21,0,0,1,4.42-2.19h-.07A38.73,38.73,0,0,0,11.83,51.54h1.94c0-1,0-2,.12-3a.86.86,0,0,1-.52-.88.88.88,0,0,1,.69-.77A37.13,37.13,0,0,1,15.31,41,.89.89,0,0,1,15,40a.87.87,0,0,1,.83-.6,36,36,0,0,1,2.46-5.52.87.87,0,0,1,.83-1.44,36.36,36.36,0,0,1,3.56-4.89.87.87,0,0,1,1.11-1.23,36.74,36.74,0,0,1,4.49-4A.87.87,0,0,1,28.59,21.28Z"/><path d="M27.3,124.21a7.35,7.35,0,0,1-1.89-1.76,18.84,18.84,0,0,1-2.83-5.71,59.3,59.3,0,0,1-2.48-18,59.27,59.27,0,0,1,2.48-18,18.84,18.84,0,0,1,2.83-5.71,7.35,7.35,0,0,1,1.89-1.76,4.46,4.46,0,0,1,2.35-.7h.18A5,5,0,0,0,27.39,72c-2.2,0-5.32,1.49-7.69,8.61a59.91,59.91,0,0,0-2.51,18.16,59.94,59.94,0,0,0,2.51,18.17c2.37,7.12,5.49,8.61,7.69,8.61a5,5,0,0,0,2.44-.65h-.18A4.46,4.46,0,0,1,27.3,124.21Z"/></svg>