<svg id="Vrstva_1" data-name="Vrstva 1" xmlns="http://www.w3.org/2000/svg" viewBox="0 0 72.24 72.24"><path d="M34.41,11.28a2.43,2.43,0,0,0-1.64.85,3.92,3.92,0,0,1,1,1,16,16,0,0,1,2.3,4.73,56,56,0,0,1,2.31,16.92A56,56,0,0,1,36.11,51.7a16,16,0,0,1-2.3,4.73,4.09,4.09,0,0,1-1,1,2.48,2.48,0,0,0,1.64.85c1.52,0,3.27-2.44,4.58-6.37a56.67,56.67,0,0,0,2.34-17.13A56.72,56.72,0,0,0,39,17.64C37.68,13.72,35.93,11.28,34.41,11.28Z"/><path d="M32.06,60.21a7.52,7.52,0,0,1-1.89-1.76,19.31,19.31,0,0,1-2.83-5.71,59.3,59.3,0,0,1-2.48-18,59.27,59.27,0,0,1,2.48-18,19.31,19.31,0,0,1,2.83-5.71,7.52,7.52,0,0,1,1.89-1.76,4.51,4.51,0,0,1,2.35-.7h.18A5,5,0,0,0,32.15,8c-2.2,0-5.32,1.49-7.68,8.61A59.91,59.91,0,0,0,22,34.77a59.94,59.94,0,0,0,2.51,18.17c2.36,7.12,5.48,8.61,7.68,8.61a5,5,0,0,0,2.44-.65h-.18A4.51,4.51,0,0,1,32.06,60.21Z"/></svg>