<svg id="Vrstva_1" data-name="Vrstva 1" xmlns="http://www.w3.org/2000/svg" viewBox="0 0 72.24 72.24"><path d="M62.29,13h0l0-.06,0,0,0,0-.06-.05h0c-.53-.48-2.6-1.94-6.46,1.12C51.22,17.5,36.54,31,30.41,32.74s-8.91.71-13.49,3.51S9.67,47,10.27,49.57s3.19,6.54,7.39,5.17c3.63-1.18,4.09-2.26,4.54-1.92h0l.07,0s0,0,.05.06h0c.34.45-.73.93-1.91,4.56-1.36,4.21,2.58,6.8,5.17,7.4s10.51-2.08,13.31-6.66,1.74-7.37,3.52-13.5S57.65,23.93,61.16,19.49C64.22,15.63,62.72,13.51,62.29,13ZM40.88,36.77c-3.37,3.37-6.66,5.54-7.35,4.85s1.49-4,4.85-7.35,6.66-5.54,7.35-4.85S44.25,33.4,40.88,36.77Z"/></svg>