<svg id="Vrstva_1" data-name="Vrstva 1" xmlns="http://www.w3.org/2000/svg" viewBox="0 0 72.24 72.24"><path d="M63.19,20.7c.29.29.61.45.71.34l.38-.37c.09-.1,0-.32-.11-.6l-.8-1.39a2.89,2.89,0,0,0-.48-.62l-6-6a2.8,2.8,0,0,0-.38-.32l-2.71-2c-.38-.28-.7-.38-.83-.26l-.32.32c-.1.1,0,.42.34.71Z"/><path d="M58.67,23.3l2.41-.15a.83.83,0,0,0,.85-.15l.75-.74c.2-.21.11-.61-.18-.9l-2.43-2.43a4.62,4.62,0,0,1-3.86-1.55,4.62,4.62,0,0,1-1.55-3.86l-2.39-2.4a.65.65,0,0,0-.88-.15l-.64.64a.94.94,0,0,0,0,1.12L53,17.83a1.85,1.85,0,0,0,.3.39L58,22.91A1.47,1.47,0,0,0,58.67,23.3Z"/><rect x="8.6" y="37.19" width="54.48" height="6.93" transform="translate(-18.25 37.25) rotate(-45)"/></svg>