<svg id="Vrstva_1" data-name="Vrstva 1" xmlns="http://www.w3.org/2000/svg" viewBox="0 0 72.24 72.24"><path d="M50.77,11.52H50c-.47,0-.84.57-.84,1l0,7.87,4.3,4.35L51.6,12.39C51.54,12,51.18,11.52,50.77,11.52Z"/><path d="M62.67,17.12a.75.75,0,0,0-1-.18L54.28,22l.44,2.81,5.05-3.5a.81.81,0,0,0,.14-.12L62.62,18A.75.75,0,0,0,62.67,17.12Z"/><path d="M42.87,35.58l-1.82-1.82c-.34,0-.57,0-.94,0l-1.78,1.78c0,.37,0,.58,0,1l1.82,1.81h.94l1.78-1.79C42.87,36.13,42.89,35.92,42.87,35.58Z"/><path d="M51.66,24.07l-6.57-6.58a1.89,1.89,0,0,0-2.75.1l-4.06,4.64a1.87,1.87,0,0,0,.09,2.56l4,4a2.1,2.1,0,0,1,0,3l-.67.68a.63.63,0,0,0,0,.9l1.88,1.89a1.33,1.33,0,0,0,1.07.38c1.91-.22,7.61-1,9.16-2.54a4.86,4.86,0,0,0,0-6.85Zm-6.38-3.84a12.49,12.49,0,0,0-4.47,4.47.47.47,0,0,1-.66,0l-1-1a.46.46,0,0,1,0-.65l4.13-4.82a.46.46,0,0,1,.66,0l1.33,1.33A.47.47,0,0,1,45.28,20.23Z"/><path d="M18.28,44.44l-7.75,0a.81.81,0,0,0-.81.83V46a.82.82,0,0,0,.68.83l12.19,1.91Z"/><path d="M14.7,56.86a.74.74,0,0,0,1.09,1L19,55.14A.93.93,0,0,0,19.1,55l3.49-5.05-2.81-.44Z"/><path d="M36,35.4l-1.82-1.82c-.37,0-.56,0-.93,0l-1.78,1.79c0,.37,0,.57,0,.94l1.82,1.82h.94l1.79-1.78C36.05,36,36,35.77,36,35.4Z"/><path d="M31.05,36.91a.61.61,0,0,0-.89,0l-.67.68a2.09,2.09,0,0,1-2.95,0l-4-4A1.88,1.88,0,0,0,20,33.5l-4.66,4.08a1.89,1.89,0,0,0-.1,2.75l6.57,6.57L23.93,49a4.87,4.87,0,0,0,6.86,0c1.55-1.56,2.31-7.25,2.53-9.16a1.3,1.3,0,0,0-.38-1.06ZM22.47,36A12.49,12.49,0,0,0,18,40.5a.47.47,0,0,1-.66,0L16,39.16a.45.45,0,0,1,0-.65l4.82-4.13a.46.46,0,0,1,.65,0l1,1A.46.46,0,0,1,22.47,36Z"/></svg>