<svg id="Vrstva_1" data-name="Vrstva 1" xmlns="http://www.w3.org/2000/svg" viewBox="0 0 72.24 72.24"><path d="M30.64,48a8.08,8.08,0,0,1-5.31,2.3,10.78,10.78,0,0,1-6.88-2.69,1.86,1.86,0,0,1-.57-2.2c.38-.87.43-1.61.05-2-.74-.74-2.79.11-4.58,1.9s-2.64,3.84-1.9,4.57c.4.41,1.2.34,2.14-.11a1.88,1.88,0,0,1,2,.27c3.24,2.72,6.55,4.05,9.85,4a11.81,11.81,0,0,0,7.93-3.49l29.73-35L30.71,47.92Z"/><path d="M28.83,48a8.12,8.12,0,0,1-5.32,2.3,10.76,10.76,0,0,1-6.87-2.69,1.86,1.86,0,0,1-.57-2.2c.38-.87.43-1.61,0-2-.74-.74-2.79.11-4.57,1.9S8.9,49.15,9.63,49.88c.41.41,1.21.34,2.15-.11a1.86,1.86,0,0,1,2,.27c3.25,2.72,6.55,4.05,9.86,4a11.77,11.77,0,0,0,7.92-3.49l29.73-35L28.9,47.92Z"/></svg>