<svg id="Vrstva_1" data-name="Vrstva 1" xmlns="http://www.w3.org/2000/svg" viewBox="0 0 72.24 72.24"><path d="M59.49,30.61A9.24,9.24,0,0,1,53.3,41.83l1.88,7,5.75-1.56a.88.88,0,0,0,.62-.66l2.28-10.71a1,1,0,0,0,0-.41L60.67,23.9a.8.8,0,0,0-.19-.35l-7.37-8.11a.86.86,0,0,0-.87-.25l-5.67,1.53,2,7.27A9.25,9.25,0,0,1,59.49,30.61Z"/><circle cx="15.23" cy="33.81" r="1.97"/><circle cx="15.19" cy="46.19" r="1.97"/><path d="M15.94,41.46H12.61a.88.88,0,0,0-.87.88v7.33a.9.9,0,0,0,.88.89h7.79l28.19.08a.58.58,0,0,0,.23,0l4.94-1.35-1.87-7a9.25,9.25,0,0,1-4.78-17.85l-2-7.27L40.1,18.52,20.31,28.84a3.82,3.82,0,0,1-1.78.45H12.06a.87.87,0,0,0-.57.81v7.56a.88.88,0,0,0,.87.88h3.58a.86.86,0,0,1,.87.85v1.24A.84.84,0,0,1,15.94,41.46Zm6.26-4.52a3.07,3.07,0,0,1,1.66-2.73l4.92-2.58a3.09,3.09,0,0,1,4.51,2.84c0,.18,0,.36,0,.55a12.18,12.18,0,0,0,1.39,5.27,3.09,3.09,0,0,1-2.75,4.48H25.29a3.11,3.11,0,0,1-3.09-3.1Zm-7-.09a3,3,0,1,1,3-3A3,3,0,0,1,15.19,36.85Zm3.07,9.34a3,3,0,1,1-3-3A3,3,0,0,1,18.26,46.19Z"/></svg>