<svg id="Vrstva_1" data-name="Vrstva 1" xmlns="http://www.w3.org/2000/svg" viewBox="0 0 72.24 72.24"><path d="M42.58,40.27l-7-7L20.45,48.43a1.4,1.4,0,0,0,0,2l5,5a1.42,1.42,0,0,0,2,0Z"/><path d="M52,12.53l-3.2,3.2a.78.78,0,0,0,0,1.11l.12.12L59,27h0a.81.81,0,0,0,1.14,0l3.19-3.19a.85.85,0,0,0,0-1.17L53.17,12.46A.83.83,0,0,0,52,12.53Z"/><path d="M36.4,30.22l.05.05-.38.38a1.28,1.28,0,0,0,0,1.8l7.28,7.27a1.15,1.15,0,0,0,1.7,0l.38-.38.14.15a1,1,0,0,0,1.42,0l11.5-11.5L47.86,17.27,36.37,28.76A1,1,0,0,0,36.4,30.22Z"/><path d="M45.93,14l1.42,1.42a.4.4,0,0,0,.58,0l3.69-3.67a.42.42,0,0,0-.09-.66l-2-.83a.41.41,0,0,0-.49.08l-3.1,3.09A.39.39,0,0,0,45.93,14Z"/><rect x="34.86" y="14.55" width="2.49" height="6.34" rx="0.37" transform="translate(-1.96 30.72) rotate(-45)"/><path d="M39.34,18.63l6.56-6.56.27-.26.29-.29,2.06-2.07.08-.08L45.67,6.45A1.47,1.47,0,0,0,43.6,6.3h0L42.42,7.48,35.31,14.6Z"/><path d="M64.49,15.86a1.94,1.94,0,0,0,0-2.73l-2.28-2.28a2,2,0,0,0-2.74,0l-3.28,3.28,5,5Zm-5,0a2.19,2.19,0,1,1,3.1,0A2.18,2.18,0,0,1,59.47,15.89Z"/><path d="M22.32,57.69l2-2-4.09-4.09-2,2a2.55,2.55,0,0,0,0,3.59l.5.5A2.5,2.5,0,0,0,22.32,57.69ZM19.09,54.2a1.88,1.88,0,1,1,0,2.67A1.89,1.89,0,0,1,19.09,54.2Z"/></svg>