<svg id="Vrstva_1" data-name="Vrstva 1" xmlns="http://www.w3.org/2000/svg" viewBox="0 0 72.24 72.24"><path d="M64,42.51a30.48,30.48,0,0,0,.28-3.19h-.73V37.68h.73A29,29,0,0,0,64,34.51l-.79.15L62.93,33l.79-.14a29.11,29.11,0,0,0-.83-3.08l-.76.28-.56-1.55.76-.27A28.23,28.23,0,0,0,61,25.39l-.7.4-.82-1.43.7-.4a28.43,28.43,0,0,0-1.84-2.61l-.61.52-1.06-1.26.62-.52A30.12,30.12,0,0,0,55,17.83l-.52.62-1.26-1.06.52-.61a27.87,27.87,0,0,0-2.61-1.84l-.41.7-1.42-.82.4-.7a25.31,25.31,0,0,0-2.89-1.35l-.28.76L45,13l.28-.77a29.24,29.24,0,0,0-3.09-.82l-.14.8-1.62-.28.15-.8a25.57,25.57,0,0,0-3.17-.28v.73h-1.7v-.73a25.41,25.41,0,0,0-3.16.28l.15.8-1.62.28-.14-.8a28.44,28.44,0,0,0-3.08.82l.28.77-1.55.57-.28-.77a27.14,27.14,0,0,0-2.89,1.35l.41.71-1.43.82-.4-.71a28,28,0,0,0-2.62,1.84l.53.62-1.26,1.06-.53-.62a26.54,26.54,0,0,0-2.25,2.25l.62.53-1.06,1.26-.62-.53A27.91,27.91,0,0,0,13,24l.7.41-.82,1.42-.71-.41a29.43,29.43,0,0,0-1.35,2.9l.77.28L11,30.11l-.77-.28a27,27,0,0,0-.82,3.09l.8.14-.28,1.62-.81-.16a26.37,26.37,0,0,0-.27,3.16h.78v1.7H8.86a27.65,27.65,0,0,0,.28,3.17l.8-.14L10.22,44l-.8.15a26.34,26.34,0,0,0,.83,3.08L11,47l.57,1.55-.77.27a29.43,29.43,0,0,0,1.35,2.9l.71-.41.82,1.42-.7.41a26.52,26.52,0,0,0,1.83,2.61l.62-.52,1.06,1.26-.62.52a26.78,26.78,0,0,0,2.26,2.26l.52-.62,1.26,1.06-.52.61A27.77,27.77,0,0,0,22,62.12l.41-.69,1.42.82-.4.7a29.26,29.26,0,0,0,2.89,1.35l.28-.76,1.54.56-.27.76a26.31,26.31,0,0,0,3.08.82l.14-.79,1.62.28-.16.79a27.31,27.31,0,0,0,3.15.28v-.79h1.7v.79A28.93,28.93,0,0,0,40.59,66l-.14-.79,1.61-.28.14.79a29.28,29.28,0,0,0,3.09-.83L45,64.09l1.55-.56.27.76a29.26,29.26,0,0,0,2.89-1.35l-.4-.7,1.42-.82.4.69a27.91,27.91,0,0,0,2.62-1.83l-.52-.61,1.26-1.06.51.61A26.78,26.78,0,0,0,57.27,57l-.61-.51,1.06-1.26.61.51a26.52,26.52,0,0,0,1.83-2.61l-.69-.4.82-1.42.69.4a25.31,25.31,0,0,0,1.35-2.89l-.75-.28L62.14,47l.75.27a26.34,26.34,0,0,0,.83-3.08L62.93,44l.28-1.63Zm-.31-7.23.14,1.65-1.65.15L62,35.43Zm-1-4.66.43,1.6-1.6.43-.43-1.6Zm-4.28-8.46,1,1.36L58,24.47l-1-1.36Zm-3.18-3.55,1.17,1.17L55.25,21l-1.17-1.17Zm-3.74-2.94,1.36,1L51.92,18,50.56,17Zm-4.2-2.24,1.5.7-.69,1.5-1.51-.7Zm-4.52-1.49,1.6.43L44,14l-1.6-.42Zm-4.71-.67,1.65.14-.14,1.65-1.66-.14Zm-3.11,0,.15,1.65-1.65.14-.15-1.65ZM30.26,12l.43,1.6-1.6.43-.43-1.6Zm-4.52,1.5.71,1.5-1.5.7-.71-1.5Zm-4.18,2.26,1,1.36L21.15,18l-.95-1.36Zm-3.74,2.95L19,19.85,17.83,21l-1.18-1.17ZM11.47,27.8l.7-1.5,1.5.69L13,28.5ZM10,32.32l.43-1.6,1.6.43-.42,1.6ZM9.31,37l.14-1.65,1.65.14L11,37.17Zm.15,4.76-.14-1.65L11,40l.14,1.65Zm1,4.66L10,44.85l1.6-.43L12,46Zm1.77,4.42-.7-1.5,1.5-.71.7,1.5Zm2.45-28.63,1.36,1-.95,1.36-1.36-.95Zm.06,32.67-1-1.36,1.36-.95L16.08,54Zm3.18,3.54-1.17-1.16,1.16-1.18,1.18,1.17Zm3.74,2.95-1.36-.95.95-1.36,1.36.95Zm4.2,2.24-1.5-.7.69-1.5,1.51.7Zm4.52,1.48-1.6-.42.43-1.6,1.6.42Zm4.71.68-1.65-.14L33.56,64l1.65.14Zm3.11,0L38,64.14,39.68,64l.15,1.65Zm4.71-.69-.43-1.6,1.6-.43.43,1.6Zm4.52-1.5-.71-1.5,1.5-.7.71,1.5Zm4.18-2.26-1-1.36L52,59l1,1.36Zm3.74-3-1.18-1.17L55.32,56l1.18,1.17ZM36.57,61.14a22.61,22.61,0,1,1,22.6-22.61A22.61,22.61,0,0,1,36.57,61.14Zm21.92-6.31-1.36-.95.95-1.36,1.36.95Zm.95-27.92,1.5-.71.7,1.5-1.5.71Zm2.24,22.36-.7,1.5-1.5-.69.7-1.51Zm1.48-4.52-.42,1.6-1.6-.43.42-1.6Zm-1.11-3.2.14-1.66,1.65.15-.14,1.65Z"/><path d="M56.62,30.1a21.74,21.74,0,0,0-40.06,0,21.78,21.78,0,0,0,0,16.92A21.74,21.74,0,0,0,56.62,30.1ZM36.59,59A20.48,20.48,0,1,1,57.07,38.56,20.5,20.5,0,0,1,36.59,59Z"/></svg>