<svg id="Vrstva_1" data-name="Vrstva 1" xmlns="http://www.w3.org/2000/svg" viewBox="0 0 72.24 72.24"><path d="M37.52,13.38A25.22,25.22,0,1,0,62.74,38.6,25.22,25.22,0,0,0,37.52,13.38Zm20.4,13.43a.78.78,0,0,1-.17,1,23.86,23.86,0,0,1,1.33,3,.78.78,0,0,1,.85.54.8.8,0,0,1-.37.94,23.78,23.78,0,0,1,.67,3.17.79.79,0,0,1,.72.71.77.77,0,0,1-.56.84c0,.54.06,1.08.06,1.63s0,1.08-.06,1.61a.79.79,0,0,1-.16,1.55,22.3,22.3,0,0,1-.67,3.17.79.79,0,0,1-.48,1.48,22,22,0,0,1-1.32,3,.79.79,0,0,1,.17,1,.78.78,0,0,1-1,.35,23.42,23.42,0,0,1-1.9,2.63.79.79,0,0,1-1,1.15,22.49,22.49,0,0,1-2.41,2.17.79.79,0,0,1-1.26.92,22.35,22.35,0,0,1-2.81,1.63.78.78,0,0,1-.45.9.79.79,0,0,1-1-.27,23.21,23.21,0,0,1-3.09,1,.79.79,0,0,1-.63.79.78.78,0,0,1-.89-.46,23,23,0,0,1-3.23.33.79.79,0,0,1-1.55,0,21.42,21.42,0,0,1-3.23-.33.8.8,0,0,1-.9.46.78.78,0,0,1-.62-.78,22.75,22.75,0,0,1-3.09-1,.79.79,0,0,1-1,.26.78.78,0,0,1-.45-.89,22.35,22.35,0,0,1-2.81-1.63.8.8,0,0,1-1,.06.78.78,0,0,1-.25-1A23.61,23.61,0,0,1,21,54.52a.79.79,0,0,1-1-1.16,22.59,22.59,0,0,1-1.92-2.62.79.79,0,0,1-.77-1.34,23.21,23.21,0,0,1-1.33-3,.8.8,0,0,1-.84-.55.79.79,0,0,1,.36-.93,23.6,23.6,0,0,1-.67-3.18.78.78,0,0,1-.71-.7.8.8,0,0,1,.55-.84c0-.54-.06-1.08-.06-1.63s0-1.08.06-1.62a.79.79,0,0,1,.16-1.54,22.15,22.15,0,0,1,.67-3.18A.79.79,0,0,1,16,30.78a23.15,23.15,0,0,1,1.32-3,.79.79,0,0,1,.78-1.34A22.31,22.31,0,0,1,20,23.84a.79.79,0,0,1,1-1.15,22.49,22.49,0,0,1,2.41-2.17.8.8,0,0,1,.25-1,.81.81,0,0,1,1,.06A22.28,22.28,0,0,1,27.49,18a.8.8,0,0,1,.45-.9.77.77,0,0,1,1,.27,21.6,21.6,0,0,1,3.1-1,.77.77,0,0,1,.62-.78.78.78,0,0,1,.89.46,23,23,0,0,1,3.23-.33.79.79,0,0,1,1.56,0,22.81,22.81,0,0,1,3.22.33.81.81,0,0,1,.9-.47.79.79,0,0,1,.62.79,23.21,23.21,0,0,1,3.09,1,.81.81,0,0,1,1-.27.8.8,0,0,1,.45.91,22.28,22.28,0,0,1,2.81,1.62.79.79,0,0,1,1-.06.79.79,0,0,1,.25,1A22.39,22.39,0,0,1,54,22.69a.79.79,0,0,1,1,1.15A24.72,24.72,0,0,1,57,26.46.79.79,0,0,1,57.92,26.81Z"/><path d="M42.52,34.91l2.79-4.78,9.25-6.73-.17-.24-8.71,6.33,5.49-9.4-.26-.15-5.83,10-4.47,3.25.6-5.5,5.72-9.92-.26-.14L41.29,27l1.19-10.83-.29,0-1.27,11.5-2.76,4.79-1.69-5.27,1.19-11.39-.29,0L36.25,26.4,32.93,16l-.28.09,3.52,11-.57,5.5-3.69-4.13L28.37,17.63l-.28.09L31.42,28l-7.25-8.13L24,20l7.7,8.63,1.71,5.27-5-2.28-7.67-8.5-.22.2,7.21,8-9.92-4.48-.13.27L28.14,31.9,31.84,36l-5.53,0L15.85,31.33l-.12.27L25.57,36l-10.89-.06v.3l11.56.06,5.06,2.24-5.64,2.23h-12v.3H25L15.3,45.43l.26.27,10.66-4.65H31.8l-3.71,4.09L17.65,49.8l.12.27,9.84-4.38-7.33,8.06.22.2,7.79-8.56,5.05-2.26-1.73,5.26L24,56.9l.22.2,7.2-8L28,59.43l.28.1,3.63-11,3.7-4.11.55,5.5L32.59,60.82l.28.09L36.2,50.67l1.08,10.84.3,0L36.42,50l1.71-5.27,2.75,4.81,1.2,11.38.29,0L41.24,50.15l5.4,9.46.26-.15-5.74-10-.58-5.51L45,47.19l5.73,9.9L51,57l-5.39-9.33,8.78,6.45.18-.24L45.27,47,42.5,42.19l5.41,1.18,9.26,6.72.18-.24-8.72-6.32,10.64,2.31.07-.29L48,43.09l-4.48-3.25L49,38.72l11.2,2.37.06-.29L49.7,38.57l10.66-2.22-.06-.29L49,38.41l-5.41-1.14L48.05,34l11.2-2.38-.07-.29L48.65,33.6l8.84-6.36L57.32,27l-9.39,6.76Zm2.19-4.35L42.12,35l-1.75.38.19-1.79Zm-9,9.93.14.26H35.5l0-.38Zm-.26-3.8,0-.37h.38l-.15.25Zm.31,1.91a1.74,1.74,0,1,1,1.74,1.74A1.74,1.74,0,0,1,35.78,38.6Zm.43-2.25,0,0h0l0,0Zm4,2.49.19.33-.31.22,0-.29ZM40.08,38l0-.29.3.22-.19.32Zm.31.55.26-.45.62.45-.62.44Zm.17-.88-.41-.3.05-.51L41,37Zm-.5-2.24-.87.19-.27-.85,1.32-1Zm-.46,4.72a.42.42,0,0,0,.06-.08l.2-.14,0,.37-.37.07Zm-.05-3.43.36.08,0,.37L39.64,37Zm.38,3.87.08.76-.74-.16.16-.49Zm0-4.09-.5-.11-.15-.49.74-.16ZM39,36l.12.35-.28-.06-.2-.22Zm-.59-.18-.34-.39.61-.44.23.72Zm-.1.33h0Zm-.23-.26-.29.06-.26-.12.3-.22Zm-.87-.2-.47-.21.38-.66.51.57Zm.07.35h-.06l0,0Zm-.34-.15-.24.17H36.4l.19-.33ZM36.63,41l.08,0,.2.15-.34.15L36.38,41Zm.55.38.42.3-.51.57-.37-.66Zm.32-.14.19-.09h.15l.21,0-.25.28Zm.88,0,.51.11-.24.72L38,41.68Zm.23-.26.14-.15.14-.08.2,0-.11.35Zm.57.43.86.19.18,1.62-1.32-1Zm1-1.23,0-.51.42-.3.38.65Zm.9.11.82,1.41-1.59-.35-.1-.88Zm-.29-1.1.72-.52,1.32,1-1.6.33Zm0-1.4.45-.77,1.59.34-1.32.95Zm.3-1.1-.86-.19.09-.88,1.59-.34Zm-.26-8.43-.56,5.1-1.45,1.06-.55-1.72Zm-2.26,6.34-.72.52-.59-.66.81-1.41ZM36.4,27.84,38,32.73l-.9,1.56-1.2-1.35Zm-.58,5.5,1.09,1.22-.45.76L35.65,35Zm-.2,1.93.69.31-.25.45h-.52Zm-3.48-6.06L35.56,33l-.19,1.79-1.64-.74ZM35.45,37v0Zm-.36.43-.19.22-.12-.36.34-.15Zm0,2.43-.34-.15.12-.35.19.21Zm-.25-1.36-.09.28-.25-.28.25-.28Zm-.2.6-.16.49-.69-.31.51-.56Zm0,.9.47.2.05.52h-.76Zm.48-3.2-.47.21-.24-.72h.76Zm-.65.61.16.49-.35.38-.51-.56Zm-.91.07-1.09-1.2h1.63l.28.85Zm.52,1-.6.66L32,38.53l1.49-.66Zm-.52,1,.81.36-.28.85H32.5Zm.74,1.5h.89l.09.89-1.49.66Zm.9-5h-.88l-.51-1.55,1.49.67ZM28.81,32.2l4.68,2.11L34,36H32.25ZM27,36.28l5.13,0,1.21,1.34-1.65.72Zm0,4.47,4.7-2.06,1.64.73L32.1,40.75Zm1.81,4.09L32.23,41H34l-.56,1.71Zm3.32,3L33.71,43l1.64-.73L35.53,44ZM35.53,41H36l.26.45-.7.31Zm.1,1.07.81-.36.44.77L35.8,43.73Zm.72,7.12-.51-5.1L37,42.79l.89,1.56ZM38.05,44l-.8-1.41.59-.66.72.52Zm2.75,4.81-2.55-4.46.56-1.71,1.45,1.06Zm3.88-2.23-4.14-3-.19-1.79,1.76.39Zm2.63-3.61-5-1.09-.9-1.56,1.76-.37Zm.94-4.38-5,1-1.46-1.06,1.46-1Zm-5.08-1.38-1.76-.37.9-1.55,5-1.07Z"/><path d="M56.12,19.93a26.31,26.31,0,1,0-18.59,44.9,26.29,26.29,0,0,0,18.59-44.9ZM37.53,64.32A25.79,25.79,0,1,1,63.32,38.53,25.82,25.82,0,0,1,37.53,64.32Z"/></svg>